<svg width="1440" height="1039" viewBox="0 0 1440 1039" fill="none" xmlns="http://www.w3.org/2000/svg">
<g opacity="0.04">
<circle cx="3.74849" cy="53.0102" r="53.0102" fill="#00ADAD"/>
<circle cx="3.74849" cy="519.499" r="53.0102" fill="#00ADAD"/>
<circle cx="123.748" cy="752.745" r="53.0102" fill="#00ADAD"/>
<circle cx="3.74849" cy="985.99" r="53.0102" fill="#00ADAD"/>
<circle cx="236.992" cy="53.0102" r="53.0102" fill="#00ADAD"/>
<circle cx="236.992" cy="519.499" r="53.0102" fill="#00ADAD"/>
<circle cx="356.992" cy="752.745" r="53.0102" fill="#00ADAD"/>
<circle cx="236.992" cy="985.99" r="53.0102" fill="#00ADAD"/>
<circle cx="470.233" cy="53.0102" r="53.0102" fill="#00ADAD"/>
<circle cx="470.233" cy="519.499" r="53.0102" fill="#00ADAD"/>
<circle cx="590.233" cy="752.745" r="53.0102" fill="#00ADAD"/>
<circle cx="470.233" cy="985.99" r="53.0102" fill="#00ADAD"/>
<circle cx="703.476" cy="53.0102" r="53.0102" fill="#00ADAD"/>
<circle cx="703.476" cy="519.499" r="53.0102" fill="#00ADAD"/>
<circle cx="823.476" cy="752.745" r="53.0102" fill="#00ADAD"/>
<circle cx="703.476" cy="985.99" r="53.0102" fill="#00ADAD"/>
<circle cx="936.718" cy="53.0102" r="53.0102" fill="#00ADAD"/>
<circle cx="936.718" cy="519.499" r="53.0102" fill="#00ADAD"/>
<circle cx="1056.72" cy="752.745" r="53.0102" fill="#00ADAD"/>
<circle cx="936.718" cy="985.99" r="53.0102" fill="#00ADAD"/>
<circle cx="1169.97" cy="53.0102" r="53.0102" fill="#00ADAD"/>
<circle cx="1169.97" cy="519.499" r="53.0102" fill="#00ADAD"/>
<circle cx="1289.97" cy="752.745" r="53.0102" fill="#00ADAD"/>
<circle cx="1169.97" cy="985.99" r="53.0102" fill="#00ADAD"/>
<circle cx="1403.21" cy="53.0102" r="53.0102" fill="#00ADAD"/>
<circle cx="116.992" cy="286.256" r="53.0102" fill="#00ADAD"/>
<circle cx="350.233" cy="286.256" r="53.0102" fill="#00ADAD"/>
<circle cx="583.476" cy="286.256" r="53.0102" fill="#00ADAD"/>
<circle cx="816.718" cy="286.256" r="53.0102" fill="#00ADAD"/>
<circle cx="1049.97" cy="286.256" r="53.0102" fill="#00ADAD"/>
<circle cx="1283.21" cy="286.256" r="53.0102" fill="#00ADAD"/>
<circle cx="1403.21" cy="519.499" r="53.0102" fill="#00ADAD"/>
<circle cx="1403.21" cy="985.99" r="53.0102" fill="#00ADAD"/>
</g>
</svg>
