<svg width="594" height="70" viewBox="0 0 594 70" fill="none" xmlns="http://www.w3.org/2000/svg">
<rect width="594" height="70" fill="#49CCCC"/>
<path d="M60.9812 22.296C59.6052 22.296 58.3732 22.568 57.2852 23.112C56.2292 23.656 55.3332 24.44 54.5972 25.464C53.8612 26.456 53.3012 27.672 52.9172 29.112C52.5652 30.552 52.3892 32.168 52.3892 33.96C52.3892 36.392 52.6772 38.472 53.2532 40.2C53.8612 41.896 54.8052 43.192 56.0852 44.088C57.3652 44.984 58.9972 45.432 60.9812 45.432C62.3892 45.432 63.7812 45.272 65.1572 44.952C66.5652 44.632 68.0852 44.184 69.7172 43.608V49.704C68.2132 50.312 66.7252 50.76 65.2532 51.048C63.7812 51.336 62.1332 51.48 60.3092 51.48C56.7892 51.48 53.8772 50.76 51.5732 49.32C49.3012 47.848 47.6212 45.8 46.5332 43.176C45.4452 40.52 44.9012 37.432 44.9012 33.912C44.9012 31.32 45.2532 28.952 45.9572 26.808C46.6612 24.632 47.6852 22.76 49.0292 21.192C50.4052 19.624 52.0852 18.408 54.0692 17.544C56.0852 16.68 58.3892 16.248 60.9812 16.248C62.6772 16.248 64.3732 16.472 66.0692 16.92C67.7972 17.336 69.4452 17.912 71.0132 18.648L68.6612 24.552C67.3812 23.944 66.0852 23.416 64.7732 22.968C63.4932 22.52 62.2292 22.296 60.9812 22.296ZM100.232 37.848C100.232 40.024 99.9277 41.96 99.3197 43.656C98.7437 45.352 97.8957 46.792 96.7757 47.976C95.6877 49.128 94.3597 50.008 92.7917 50.616C91.2237 51.192 89.4477 51.48 87.4637 51.48C85.6397 51.48 83.9437 51.192 82.3757 50.616C80.8397 50.008 79.5117 49.128 78.3917 47.976C77.2717 46.792 76.3917 45.352 75.7517 43.656C75.1437 41.96 74.8397 40.024 74.8397 37.848C74.8397 34.936 75.3517 32.488 76.3757 30.504C77.3997 28.488 78.8717 26.952 80.7917 25.896C82.7117 24.84 84.9837 24.312 87.6077 24.312C90.0717 24.312 92.2477 24.84 94.1357 25.896C96.0237 26.952 97.5117 28.488 98.5997 30.504C99.6877 32.488 100.232 34.936 100.232 37.848ZM82.1357 37.848C82.1357 39.576 82.3117 41.032 82.6637 42.216C83.0477 43.368 83.6397 44.248 84.4397 44.856C85.2397 45.432 86.2797 45.72 87.5597 45.72C88.8397 45.72 89.8637 45.432 90.6317 44.856C91.4317 44.248 92.0077 43.368 92.3597 42.216C92.7437 41.032 92.9357 39.576 92.9357 37.848C92.9357 36.12 92.7437 34.68 92.3597 33.528C92.0077 32.376 91.4317 31.512 90.6317 30.936C89.8317 30.36 88.7917 30.072 87.5117 30.072C85.6237 30.072 84.2477 30.728 83.3837 32.04C82.5517 33.32 82.1357 35.256 82.1357 37.848ZM121.022 24.312C123.838 24.312 126.094 25.08 127.79 26.616C129.486 28.12 130.334 30.552 130.334 33.912V51H123.182V35.688C123.182 33.8 122.846 32.392 122.174 31.464C121.502 30.504 120.43 30.024 118.958 30.024C116.782 30.024 115.294 30.776 114.494 32.28C113.694 33.752 113.294 35.88 113.294 38.664V51H106.142V24.792H111.614L112.574 28.152H112.958C113.534 27.256 114.238 26.536 115.07 25.992C115.902 25.416 116.83 25 117.854 24.744C118.878 24.456 119.934 24.312 121.022 24.312ZM155.977 43.224C155.977 44.984 155.561 46.488 154.729 47.736C153.897 48.952 152.649 49.88 150.985 50.52C149.321 51.16 147.257 51.48 144.793 51.48C142.969 51.48 141.401 51.352 140.089 51.096C138.777 50.872 137.465 50.488 136.153 49.944V44.04C137.561 44.68 139.081 45.208 140.713 45.624C142.345 46.04 143.785 46.248 145.033 46.248C146.441 46.248 147.433 46.04 148.009 45.624C148.617 45.208 148.921 44.664 148.921 43.992C148.921 43.544 148.793 43.144 148.537 42.792C148.313 42.44 147.801 42.04 147.001 41.592C146.201 41.144 144.953 40.568 143.257 39.864C141.625 39.16 140.281 38.472 139.225 37.8C138.169 37.096 137.385 36.264 136.873 35.304C136.361 34.312 136.105 33.08 136.105 31.608C136.105 29.176 137.049 27.352 138.937 26.136C140.825 24.92 143.337 24.312 146.473 24.312C148.105 24.312 149.657 24.472 151.129 24.792C152.601 25.112 154.121 25.64 155.689 26.376L153.529 31.512C152.665 31.128 151.833 30.792 151.033 30.504C150.233 30.216 149.449 29.992 148.681 29.832C147.945 29.672 147.177 29.592 146.377 29.592C145.321 29.592 144.521 29.736 143.977 30.024C143.465 30.312 143.209 30.744 143.209 31.32C143.209 31.736 143.337 32.12 143.593 32.472C143.881 32.792 144.409 33.144 145.177 33.528C145.977 33.912 147.145 34.424 148.681 35.064C150.185 35.672 151.481 36.312 152.569 36.984C153.657 37.624 154.489 38.44 155.065 39.432C155.673 40.392 155.977 41.656 155.977 43.224ZM185.597 24.792V51H180.125L179.165 47.64H178.781C178.237 48.536 177.533 49.272 176.669 49.848C175.837 50.392 174.909 50.792 173.885 51.048C172.861 51.336 171.805 51.48 170.717 51.48C168.861 51.48 167.229 51.144 165.821 50.472C164.413 49.8 163.325 48.76 162.557 47.352C161.789 45.944 161.405 44.12 161.405 41.88V24.792H168.557V40.104C168.557 41.96 168.893 43.368 169.565 44.328C170.237 45.288 171.309 45.768 172.781 45.768C174.253 45.768 175.389 45.432 176.189 44.76C177.021 44.088 177.597 43.112 177.917 41.832C178.269 40.552 178.445 38.984 178.445 37.128V24.792H185.597ZM200.248 51H193.096V14.52H200.248V51ZM218.761 45.768C219.561 45.768 220.329 45.688 221.065 45.528C221.801 45.368 222.537 45.176 223.273 44.952V50.28C222.505 50.6 221.545 50.872 220.393 51.096C219.273 51.352 218.041 51.48 216.697 51.48C215.129 51.48 213.721 51.224 212.473 50.712C211.257 50.2 210.281 49.32 209.545 48.072C208.841 46.792 208.489 45.032 208.489 42.792V30.168H205.081V27.144L209.017 24.744L211.081 19.224H215.641V24.792H222.985V30.168H215.641V42.792C215.641 43.784 215.929 44.536 216.505 45.048C217.081 45.528 217.833 45.768 218.761 45.768ZM239.285 24.264C242.805 24.264 245.493 25.032 247.349 26.568C249.237 28.072 250.181 30.392 250.181 33.528V51H245.189L243.797 47.448H243.605C242.869 48.376 242.101 49.144 241.301 49.752C240.533 50.36 239.637 50.792 238.613 51.048C237.621 51.336 236.389 51.48 234.917 51.48C233.381 51.48 231.989 51.192 230.741 50.616C229.525 50.008 228.565 49.096 227.861 47.88C227.157 46.632 226.805 45.064 226.805 43.176C226.805 40.392 227.781 38.344 229.733 37.032C231.685 35.688 234.613 34.952 238.517 34.824L243.077 34.68V33.528C243.077 32.152 242.709 31.144 241.973 30.504C241.269 29.864 240.277 29.544 238.997 29.544C237.717 29.544 236.469 29.736 235.253 30.12C234.037 30.472 232.821 30.92 231.605 31.464L229.253 26.616C230.661 25.88 232.213 25.304 233.909 24.888C235.637 24.472 237.429 24.264 239.285 24.264ZM240.293 38.952C237.989 39.016 236.389 39.432 235.493 40.2C234.597 40.968 234.149 41.976 234.149 43.224C234.149 44.312 234.469 45.096 235.109 45.576C235.749 46.024 236.581 46.248 237.605 46.248C239.141 46.248 240.437 45.8 241.493 44.904C242.549 43.976 243.077 42.68 243.077 41.016V38.856L240.293 38.952ZM275.79 43.224C275.79 44.984 275.374 46.488 274.542 47.736C273.71 48.952 272.462 49.88 270.798 50.52C269.134 51.16 267.07 51.48 264.606 51.48C262.782 51.48 261.214 51.352 259.902 51.096C258.59 50.872 257.278 50.488 255.966 49.944V44.04C257.374 44.68 258.894 45.208 260.526 45.624C262.158 46.04 263.598 46.248 264.846 46.248C266.254 46.248 267.246 46.04 267.822 45.624C268.43 45.208 268.734 44.664 268.734 43.992C268.734 43.544 268.606 43.144 268.35 42.792C268.126 42.44 267.614 42.04 266.814 41.592C266.014 41.144 264.766 40.568 263.07 39.864C261.438 39.16 260.094 38.472 259.038 37.8C257.982 37.096 257.198 36.264 256.686 35.304C256.174 34.312 255.918 33.08 255.918 31.608C255.918 29.176 256.862 27.352 258.75 26.136C260.638 24.92 263.15 24.312 266.286 24.312C267.918 24.312 269.47 24.472 270.942 24.792C272.414 25.112 273.934 25.64 275.502 26.376L273.342 31.512C272.478 31.128 271.646 30.792 270.846 30.504C270.046 30.216 269.262 29.992 268.494 29.832C267.758 29.672 266.99 29.592 266.19 29.592C265.134 29.592 264.334 29.736 263.79 30.024C263.278 30.312 263.022 30.744 263.022 31.32C263.022 31.736 263.15 32.12 263.406 32.472C263.694 32.792 264.222 33.144 264.99 33.528C265.79 33.912 266.958 34.424 268.494 35.064C269.998 35.672 271.294 36.312 272.382 36.984C273.47 37.624 274.302 38.44 274.878 39.432C275.486 40.392 275.79 41.656 275.79 43.224ZM304.582 24.264C308.102 24.264 310.79 25.032 312.646 26.568C314.534 28.072 315.478 30.392 315.478 33.528V51H310.486L309.094 47.448H308.902C308.166 48.376 307.398 49.144 306.598 49.752C305.83 50.36 304.934 50.792 303.91 51.048C302.918 51.336 301.686 51.48 300.214 51.48C298.678 51.48 297.286 51.192 296.038 50.616C294.822 50.008 293.862 49.096 293.158 47.88C292.454 46.632 292.102 45.064 292.102 43.176C292.102 40.392 293.078 38.344 295.03 37.032C296.982 35.688 299.91 34.952 303.814 34.824L308.374 34.68V33.528C308.374 32.152 308.006 31.144 307.27 30.504C306.566 29.864 305.574 29.544 304.294 29.544C303.014 29.544 301.766 29.736 300.55 30.12C299.334 30.472 298.118 30.92 296.902 31.464L294.55 26.616C295.958 25.88 297.51 25.304 299.206 24.888C300.934 24.472 302.726 24.264 304.582 24.264ZM305.59 38.952C303.286 39.016 301.686 39.432 300.79 40.2C299.894 40.968 299.446 41.976 299.446 43.224C299.446 44.312 299.766 45.096 300.406 45.576C301.046 46.024 301.878 46.248 302.902 46.248C304.438 46.248 305.734 45.8 306.79 44.904C307.846 43.976 308.374 42.68 308.374 41.016V38.856L305.59 38.952ZM331.295 24.312C332.895 24.312 334.335 24.632 335.615 25.272C336.895 25.912 337.983 26.872 338.879 28.152H339.071L339.647 24.792H345.695V51.048C345.695 53.544 345.199 55.64 344.207 57.336C343.247 59.032 341.791 60.312 339.839 61.176C337.887 62.072 335.471 62.52 332.591 62.52C330.735 62.52 329.007 62.408 327.407 62.184C325.839 61.96 324.303 61.56 322.799 60.984V55.272C323.887 55.72 324.975 56.088 326.063 56.376C327.183 56.696 328.319 56.92 329.471 57.048C330.655 57.208 331.839 57.288 333.023 57.288C334.879 57.288 336.255 56.792 337.151 55.8C338.079 54.808 338.543 53.32 338.543 51.336V50.808C338.543 50.264 338.559 49.704 338.591 49.128C338.655 48.552 338.703 48.04 338.735 47.592H338.543C337.647 48.968 336.575 49.96 335.327 50.568C334.079 51.176 332.671 51.48 331.103 51.48C327.999 51.48 325.567 50.296 323.807 47.928C322.079 45.528 321.215 42.2 321.215 37.944C321.215 35.064 321.615 32.616 322.415 30.6C323.215 28.552 324.367 27 325.871 25.944C327.407 24.856 329.215 24.312 331.295 24.312ZM333.551 30.12C332.431 30.12 331.487 30.424 330.719 31.032C329.983 31.608 329.423 32.488 329.039 33.672C328.687 34.824 328.511 36.28 328.511 38.04C328.511 40.664 328.927 42.632 329.759 43.944C330.591 45.224 331.887 45.864 333.647 45.864C334.575 45.864 335.375 45.752 336.047 45.528C336.719 45.272 337.263 44.872 337.679 44.328C338.127 43.752 338.463 43.016 338.687 42.12C338.911 41.224 339.023 40.136 339.023 38.856V37.992C339.023 36.104 338.831 34.584 338.447 33.432C338.063 32.28 337.471 31.448 336.671 30.936C335.871 30.392 334.831 30.12 333.551 30.12ZM363.974 24.312C366.406 24.312 368.486 24.776 370.214 25.704C371.974 26.632 373.334 27.976 374.294 29.736C375.254 31.496 375.734 33.656 375.734 36.216V39.672H358.838C358.902 41.688 359.494 43.272 360.614 44.424C361.766 45.576 363.35 46.152 365.366 46.152C367.062 46.152 368.598 45.992 369.974 45.672C371.35 45.32 372.774 44.792 374.246 44.088V49.608C372.966 50.248 371.606 50.712 370.166 51C368.758 51.32 367.046 51.48 365.03 51.48C362.406 51.48 360.086 51 358.07 50.04C356.054 49.048 354.47 47.56 353.318 45.576C352.166 43.592 351.59 41.096 351.59 38.088C351.59 35.016 352.102 32.472 353.126 30.456C354.182 28.408 355.638 26.872 357.494 25.848C359.35 24.824 361.51 24.312 363.974 24.312ZM364.022 29.4C362.646 29.4 361.494 29.848 360.566 30.744C359.67 31.64 359.142 33.032 358.982 34.92H369.014C369.014 33.864 368.822 32.92 368.438 32.088C368.086 31.256 367.542 30.6 366.806 30.12C366.07 29.64 365.142 29.4 364.022 29.4ZM396.413 24.312C399.229 24.312 401.485 25.08 403.181 26.616C404.877 28.12 405.725 30.552 405.725 33.912V51H398.573V35.688C398.573 33.8 398.237 32.392 397.565 31.464C396.893 30.504 395.821 30.024 394.349 30.024C392.173 30.024 390.685 30.776 389.885 32.28C389.085 33.752 388.685 35.88 388.685 38.664V51H381.533V24.792H387.005L387.965 28.152H388.349C388.925 27.256 389.629 26.536 390.461 25.992C391.293 25.416 392.221 25 393.245 24.744C394.269 24.456 395.325 24.312 396.413 24.312ZM421.384 51.48C418.472 51.48 416.088 50.344 414.232 48.072C412.408 45.768 411.496 42.392 411.496 37.944C411.496 33.464 412.424 30.072 414.28 27.768C416.136 25.464 418.568 24.312 421.576 24.312C422.824 24.312 423.928 24.488 424.888 24.84C425.848 25.16 426.664 25.608 427.336 26.184C428.04 26.76 428.632 27.416 429.112 28.152H429.352C429.256 27.64 429.144 26.904 429.016 25.944C428.888 24.952 428.824 23.944 428.824 22.92V14.52H435.976V51H430.504L429.112 47.592H428.824C428.376 48.296 427.8 48.952 427.096 49.56C426.424 50.136 425.624 50.6 424.696 50.952C423.768 51.304 422.664 51.48 421.384 51.48ZM423.88 45.768C425.864 45.768 427.256 45.192 428.056 44.04C428.856 42.856 429.272 41.096 429.304 38.76V37.992C429.304 35.432 428.904 33.48 428.104 32.136C427.336 30.792 425.896 30.12 423.784 30.12C422.216 30.12 420.984 30.808 420.088 32.184C419.192 33.528 418.744 35.48 418.744 38.04C418.744 40.6 419.192 42.536 420.088 43.848C420.984 45.128 422.248 45.768 423.88 45.768ZM454.207 24.264C457.727 24.264 460.415 25.032 462.271 26.568C464.159 28.072 465.103 30.392 465.103 33.528V51H460.111L458.719 47.448H458.527C457.791 48.376 457.023 49.144 456.223 49.752C455.455 50.36 454.559 50.792 453.535 51.048C452.543 51.336 451.311 51.48 449.839 51.48C448.303 51.48 446.911 51.192 445.663 50.616C444.447 50.008 443.487 49.096 442.783 47.88C442.079 46.632 441.727 45.064 441.727 43.176C441.727 40.392 442.703 38.344 444.655 37.032C446.607 35.688 449.535 34.952 453.439 34.824L457.999 34.68V33.528C457.999 32.152 457.631 31.144 456.895 30.504C456.191 29.864 455.199 29.544 453.919 29.544C452.639 29.544 451.391 29.736 450.175 30.12C448.959 30.472 447.743 30.92 446.527 31.464L444.175 26.616C445.583 25.88 447.135 25.304 448.831 24.888C450.559 24.472 452.351 24.264 454.207 24.264ZM455.215 38.952C452.911 39.016 451.311 39.432 450.415 40.2C449.519 40.968 449.071 41.976 449.071 43.224C449.071 44.312 449.391 45.096 450.031 45.576C450.671 46.024 451.503 46.248 452.527 46.248C454.063 46.248 455.359 45.8 456.415 44.904C457.471 43.976 457.999 42.68 457.999 41.016V38.856L455.215 38.952ZM480.728 51.48C477.816 51.48 475.432 50.344 473.576 48.072C471.752 45.768 470.84 42.392 470.84 37.944C470.84 33.464 471.768 30.072 473.624 27.768C475.48 25.464 477.912 24.312 480.92 24.312C482.168 24.312 483.272 24.488 484.232 24.84C485.192 25.16 486.008 25.608 486.68 26.184C487.384 26.76 487.976 27.416 488.456 28.152H488.696C488.6 27.64 488.488 26.904 488.36 25.944C488.232 24.952 488.168 23.944 488.168 22.92V14.52H495.32V51H489.848L488.456 47.592H488.168C487.72 48.296 487.144 48.952 486.44 49.56C485.768 50.136 484.968 50.6 484.04 50.952C483.112 51.304 482.008 51.48 480.728 51.48ZM483.224 45.768C485.208 45.768 486.6 45.192 487.4 44.04C488.2 42.856 488.616 41.096 488.648 38.76V37.992C488.648 35.432 488.248 33.48 487.448 32.136C486.68 30.792 485.24 30.12 483.128 30.12C481.56 30.12 480.328 30.808 479.432 32.184C478.536 33.528 478.088 35.48 478.088 38.04C478.088 40.6 478.536 42.536 479.432 43.848C480.328 45.128 481.592 45.768 483.224 45.768ZM513.551 24.264C517.071 24.264 519.759 25.032 521.615 26.568C523.503 28.072 524.447 30.392 524.447 33.528V51H519.455L518.063 47.448H517.871C517.135 48.376 516.367 49.144 515.567 49.752C514.799 50.36 513.903 50.792 512.879 51.048C511.887 51.336 510.655 51.48 509.183 51.48C507.647 51.48 506.255 51.192 505.007 50.616C503.791 50.008 502.831 49.096 502.127 47.88C501.423 46.632 501.071 45.064 501.071 43.176C501.071 40.392 502.047 38.344 503.999 37.032C505.951 35.688 508.879 34.952 512.783 34.824L517.343 34.68V33.528C517.343 32.152 516.975 31.144 516.239 30.504C515.535 29.864 514.543 29.544 513.263 29.544C511.983 29.544 510.735 29.736 509.519 30.12C508.303 30.472 507.087 30.92 505.871 31.464L503.519 26.616C504.927 25.88 506.479 25.304 508.175 24.888C509.903 24.472 511.695 24.264 513.551 24.264ZM514.559 38.952C512.255 39.016 510.655 39.432 509.759 40.2C508.863 40.968 508.415 41.976 508.415 43.224C508.415 44.312 508.735 45.096 509.375 45.576C510.015 46.024 510.847 46.248 511.871 46.248C513.407 46.248 514.703 45.8 515.759 44.904C516.815 43.976 517.343 42.68 517.343 41.016V38.856L514.559 38.952ZM550.055 43.224C550.055 44.984 549.639 46.488 548.807 47.736C547.975 48.952 546.727 49.88 545.063 50.52C543.399 51.16 541.335 51.48 538.871 51.48C537.047 51.48 535.479 51.352 534.167 51.096C532.855 50.872 531.543 50.488 530.231 49.944V44.04C531.639 44.68 533.159 45.208 534.791 45.624C536.423 46.04 537.863 46.248 539.111 46.248C540.519 46.248 541.511 46.04 542.087 45.624C542.695 45.208 542.999 44.664 542.999 43.992C542.999 43.544 542.871 43.144 542.615 42.792C542.391 42.44 541.879 42.04 541.079 41.592C540.279 41.144 539.031 40.568 537.335 39.864C535.703 39.16 534.359 38.472 533.303 37.8C532.247 37.096 531.463 36.264 530.951 35.304C530.439 34.312 530.183 33.08 530.183 31.608C530.183 29.176 531.127 27.352 533.015 26.136C534.903 24.92 537.415 24.312 540.551 24.312C542.183 24.312 543.735 24.472 545.207 24.792C546.679 25.112 548.199 25.64 549.767 26.376L547.607 31.512C546.743 31.128 545.911 30.792 545.111 30.504C544.311 30.216 543.527 29.992 542.759 29.832C542.023 29.672 541.255 29.592 540.455 29.592C539.399 29.592 538.599 29.736 538.055 30.024C537.543 30.312 537.287 30.744 537.287 31.32C537.287 31.736 537.415 32.12 537.671 32.472C537.959 32.792 538.487 33.144 539.255 33.528C540.055 33.912 541.223 34.424 542.759 35.064C544.263 35.672 545.559 36.312 546.647 36.984C547.735 37.624 548.567 38.44 549.143 39.432C549.751 40.392 550.055 41.656 550.055 43.224Z" fill="white"/>
</svg>
