<svg width="535" height="453" viewBox="0 0 535 453" fill="none" xmlns="http://www.w3.org/2000/svg">
<g clip-path="url(#clip0_3_462)">
<path fill-rule="evenodd" clip-rule="evenodd" d="M338.651 300.212C337.61 315.578 316.786 323.521 304.162 326.841C306.7 311.801 309.953 296.175 307.936 280.874C307.285 275.861 306.374 270.847 305.463 265.834C305.138 264.011 304.747 262.123 304.357 260.3C304.292 259.844 303.511 257.89 303.771 257.435C304.162 256.653 307.741 256.784 308.652 256.784C310.974 256.86 313.256 257.414 315.355 258.411C319.845 260.365 323.554 263.685 326.678 267.396C333.901 276.186 339.432 288.622 338.651 300.212ZM314.509 195.906C302.405 203.068 287.893 206.91 274.097 208.798C253.078 211.663 231.669 208.342 211.105 203.785C206.094 202.678 201.019 201.441 196.073 200.073C195.829 214.482 199.958 228.626 207.917 240.636C214.554 250.663 223.144 259.062 230.693 268.373C237.721 277.033 243.382 286.799 243.642 298.193C243.773 302.946 243.382 307.309 239.348 310.434C235.313 313.559 229.912 314.666 225.031 315.382C212.732 317.14 199.912 316.229 187.678 314.275C185.336 313.885 182.928 313.494 180.585 312.908C177.917 312.322 177.006 311.606 174.794 313.559C169.978 317.856 167.831 324.302 166.724 330.488C164.767 342.621 165.298 355.027 168.286 366.949C171.084 377.952 184.425 384.008 194.316 386.677C224.055 394.686 256.918 383.617 279.759 363.954C280.279 363.498 280.735 363.107 281.256 362.652C282.866 366.038 284.647 369.342 286.592 372.548C287.893 374.827 289.396 376.984 291.082 378.994C291.662 379.835 292.389 380.563 293.229 381.143C294.791 381.989 296.353 381.403 298.175 381.078C311.19 378.799 324.205 375.869 336.569 371.116C355.375 364.019 372.295 352.234 381.21 333.678C385.7 324.302 388.043 314.015 389.214 303.728C390.516 291.878 390.776 279.832 387.457 268.308C381.34 247.213 365.852 230.089 348.803 216.872C338.326 208.733 326.743 201.31 314.509 195.906Z" fill="#AEE1D3"/>
<path fill-rule="evenodd" clip-rule="evenodd" d="M527.433 56.0509C524.699 57.1577 521.706 57.4182 518.778 57.6786C516.5 57.8739 514.678 58.7855 512.53 58.8506C506.478 58.8932 500.436 59.3282 494.44 60.1528C488.388 61.0643 482.857 59.8923 478.106 64.3849C476.414 66.0126 474.267 67.8357 475.308 70.4401C475.763 71.612 476.414 72.4585 476.805 73.7607C477.25 75.1855 477.794 76.5778 478.431 77.9277C479.668 80.5971 485.72 90.4287 480.774 91.6007C475.438 92.9028 468.15 91.4053 463.009 89.9078C460.015 89.0614 457.022 88.0196 454.094 87.043C451.751 86.2617 448.627 85.8059 446.48 84.5688C445.048 83.7224 444.723 82.3551 443.812 80.9878C442.183 78.6049 440.307 76.4007 438.215 74.4117C433.595 70.1796 427.803 67.3148 422.077 64.8406C421.624 64.5902 421.144 64.3935 420.645 64.2547C420.19 64.1895 419.734 64.6453 419.474 64.5802C418.693 64.45 418.433 63.9291 417.587 63.4733C416.48 62.8223 411.925 60.7387 411.079 62.3665C411.795 60.1528 412.381 60.8039 414.398 61.1294C415.309 61.2596 415.895 60.869 416.676 60.9341C417.392 60.9992 417.717 61.3898 418.303 61.5201C419.426 61.6407 420.559 61.6625 421.686 61.5852C422.012 60.869 422.467 60.869 423.053 61.5852C423.378 61.7154 423.704 61.7805 424.029 61.9107C425.228 62.151 426.45 62.2601 427.673 62.2363C429.495 62.3665 434.181 64.5802 435.092 62.3665C436.068 59.9574 433.14 59.3714 432.619 57.7437C432.163 56.116 434.376 55.1393 435.287 54.1627C436.328 53.0558 436.914 52.0792 438.15 51.1025C438.953 50.58 439.677 49.944 440.298 49.2144C440.753 48.4982 440.753 47.3913 441.404 46.7402C442.12 46.024 442.25 46.5449 442.901 46.1542C444.202 45.5031 443.617 45.5031 444.397 44.5916C445.048 43.8103 445.569 43.8103 446.415 43.2243C447.716 42.3779 448.172 40.6199 449.408 39.7084C450.319 38.9922 451.751 38.9922 452.532 38.276C452.987 37.8853 452.857 37.1691 453.248 36.7784C454.028 35.9971 454.549 36.3227 455.525 36.0622C457.152 35.6065 457.673 34.7601 458.909 33.6532C460.015 32.6765 460.731 32.6765 462.098 32.2859C463.985 31.765 465.221 30.3326 466.913 29.4862C468.54 28.7049 470.167 28.1189 471.794 27.3376C472.965 26.7516 474.071 26.3609 475.178 25.7098C475.568 25.5145 475.568 24.7332 476.024 24.603C476.544 24.4727 477 25.3843 477.585 25.4494C478.757 25.5796 480.123 24.2123 480.904 23.431C481.23 23.1054 481.685 22.1939 482.141 21.9986C483.052 21.6079 483.572 22.3892 484.418 22.0637C485.59 21.6079 485.134 20.3709 485.785 19.7198C486.371 19.1338 487.672 19.1338 488.778 19.3291C493.203 20.1104 486.305 23.1706 485.069 23.8217C482.922 24.8634 467.174 32.5463 470.883 36.3878C472.835 38.4062 477.585 36.9087 479.733 36.3878C483.442 35.4763 487.282 33.6532 491.121 33.1974C491.577 33.1323 493.008 33.4579 493.399 33.3276C494.245 33.0021 494.049 32.351 494.765 31.9603C495.806 31.4395 497.954 31.4395 499.06 31.5697C499.906 31.6348 500.817 32.1557 501.663 32.0906C502.574 32.0255 503.485 31.4395 504.461 31.3092C506.088 30.9837 507.715 31.179 509.342 31.179C511.685 31.2441 516.305 31.5697 512.921 34.6949C510.188 37.1691 505.502 38.276 502.054 39.3828C496.978 41.0106 491.967 42.443 486.956 44.266C483.507 45.5031 476.219 47.7168 480.319 52.4047C480.709 52.0141 481.099 51.6234 481.555 51.2328C482.011 51.6885 482.531 52.6652 483.312 52.6652C483.963 52.6652 483.702 52.0141 484.288 51.8187C486.175 51.1676 488.778 51.2328 490.731 51.1025C495.676 50.777 500.687 50.1259 505.633 49.9306C510.343 49.6913 515.065 50.0412 519.689 50.9723C520.665 51.4932 531.727 54.358 527.433 56.0509V56.0509ZM486.761 104.232C487.021 106.315 486.11 108.008 485.85 110.027C485.525 112.436 485.785 114.649 485.069 117.058C483.702 121.746 482.791 126.63 481.295 131.317C478.757 139.586 474.657 146.879 470.427 154.431C468.28 158.273 465.026 161.398 462.033 164.654C458.974 167.909 456.566 171.164 452.922 173.834C445.634 179.238 437.825 183.991 429.235 186.921C420.255 189.981 410.754 190.893 401.318 190.502C397.088 190.307 392.663 190.762 388.563 190.046C384.138 189.33 379.388 188.418 375.093 187.377C367.154 185.423 359.54 182.103 351.796 179.108C343.141 175.787 335.398 171.555 327.458 166.802C325.376 165.565 323.164 164.914 321.211 163.416C319.584 162.114 317.958 160.877 316.201 159.705C314.183 158.338 312.296 156.905 310.279 155.603C309.042 154.822 307.35 154.106 306.7 152.673C305.854 150.785 306.895 148.376 307.416 146.488C308.131 144.079 308.912 141.67 309.758 139.326C311.19 135.289 314.899 129.169 312.882 124.872C308.587 127.541 306.7 132.75 304.878 137.177C302.593 142.349 301.228 147.879 300.843 153.52C300.236 165.257 302.098 176.991 306.309 187.963C306.96 189.59 308.001 191.283 307.22 192.976C306.374 194.799 304.097 196.297 302.34 197.078C296.808 199.552 291.212 200.268 285.42 201.636C283.859 202.026 282.102 203.133 280.605 203.263C279.629 203.329 278.783 203.003 277.611 203.068C276.44 203.068 275.529 203.719 274.553 203.784C273.642 203.849 272.861 203.329 272.015 203.394C270.063 203.524 269.737 206.779 268.761 203.915C268.566 204.045 267.655 205.087 267.525 205.087C267.265 205.087 266.744 204.305 266.484 204.11C265.924 203.881 265.33 203.749 264.727 203.719C263.449 203.535 262.149 203.579 260.887 203.849C258.61 204.37 256.332 204.175 254.38 204.11C253.924 204.11 253.599 204.435 253.078 204.435C252.818 204.435 252.493 203.98 252.232 203.915C250.671 203.524 249.109 203.784 247.547 203.719C243.838 203.524 240.324 203.394 236.745 202.612C229.391 200.92 221.908 200.594 214.489 199.096C210.715 198.315 207.071 197.924 203.361 196.883C202.06 196.492 200.693 196.362 199.587 195.841C198.481 195.385 198.936 194.734 197.179 195.971C196.398 194.083 196.333 194.278 194.446 193.627C193.426 193.3 192.444 192.863 191.518 192.325C191.453 192.26 190.346 189.395 190.216 189.07C189.761 187.377 190.151 185.423 190.346 183.665C190.802 179.759 191.453 175.917 191.453 172.011C191.453 170.253 191.778 170.253 192.299 168.951C192.494 168.56 192.949 168.56 193.014 167.974C193.08 167.128 192.234 166.607 192.299 165.63C192.429 164.328 193.73 163.026 194.186 161.854C194.706 160.421 194.706 158.859 195.032 157.361C195.487 155.343 196.333 153.52 196.724 151.501C197.114 149.809 197.114 148.441 198.025 147.009C198.936 145.576 198.676 144.404 199.392 142.907C200.043 141.605 200.888 141.084 201.344 139.521C202.416 135.598 204.131 131.879 206.42 128.518C208.502 136.722 210.715 145.251 216.441 151.697C218.784 154.366 221.842 157.101 225.422 157.882C229.456 158.794 232.71 156.45 235.313 153.585C241.56 146.879 244.163 139.326 244.553 130.211C244.619 127.932 244.619 125.653 244.619 123.374C244.619 122.332 244.098 119.793 244.749 118.947C245.53 118.035 247.677 118.621 248.783 117.97C250.15 117.189 251.712 115.17 251.061 113.543C254.77 115.235 258.284 117.449 262.384 117.905C263.992 118.007 265.605 117.941 267.199 117.71C267.134 117.71 268.306 117.97 268.371 117.97C268.468 117.827 268.613 117.722 268.779 117.675C268.946 117.627 269.124 117.639 269.282 117.71C269.423 117.712 269.561 117.756 269.677 117.837C269.793 117.919 269.882 118.033 269.933 118.165C275.789 118.751 281.711 115.886 286.722 112.761C289.65 110.938 292.839 108.334 293.685 104.818C294.01 103.581 293.75 102.409 294.986 101.758C296.027 101.237 298.045 102.018 299.151 102.083C303.056 102.344 306.83 102.018 310.604 103.125C312.947 103.841 316.916 108.79 318.543 105.274C319.259 105.925 318.869 107.097 319.584 107.748C320.235 108.334 322.383 108.724 323.294 109.18C324.66 109.896 325.506 110.873 326.743 111.785C328.239 112.891 329.801 112.957 331.233 114.259C336.244 118.686 342.1 121.877 347.697 125.588C354.334 129.95 360.191 135.094 367.349 138.61C374.638 142.256 381.666 145.251 389.67 147.139C393.281 148.041 396.958 148.651 400.667 148.962C402.424 149.092 404.051 149.027 405.743 149.548C406.494 149.838 407.283 150.014 408.086 150.069C408.672 150.069 409.518 149.743 410.233 149.743C411.73 149.743 412.446 149.678 413.812 150.199C415.233 150.8 416.76 151.11 418.303 151.111C420.255 151.176 421.426 150.395 423.248 149.939C424.68 149.548 425.981 149.743 427.283 148.962C433.069 145.34 437.733 140.177 440.753 134.052C444.202 127.085 446.935 118.621 447.456 110.808C447.697 106.386 446.894 101.97 445.113 97.9163C444.658 96.7443 441.729 91.8611 442.64 90.9496C443.617 89.9078 446.935 92.2517 447.846 92.7726C450.775 94.4004 456.111 94.9212 458.193 97.5907C458.714 96.549 461.642 98.0465 462.618 98.5023C463.399 98.8278 463.594 99.4789 464.571 99.544C465.482 99.6091 466.458 98.8929 467.304 98.6325C466.653 100.39 468.735 100.456 470.167 100.521C471.188 100.545 472.21 100.502 473.225 100.39C474.982 100.26 474.983 99.8696 476.609 98.958C476.545 99.6156 476.611 100.279 476.805 100.911C477.846 99.4138 479.798 100.456 481.165 99.8044C480.188 98.3069 484.418 97.8512 485.459 98.1767C488.258 99.1534 486.566 102.344 486.761 104.232V104.232ZM290.171 208.863C291.798 208.342 293.49 207.886 295.182 207.43C293.945 208.602 292.644 210.686 290.822 211.011C288.674 211.402 287.763 209.579 290.171 208.863ZM208.372 209.709C211.17 210.035 214.229 209.774 216.637 211.467C215.465 212.835 214.684 214.267 212.667 213.486C211.04 212.769 209.674 210.946 208.372 209.709V209.709ZM301.559 284.781C299.737 283.153 299.997 282.372 300.843 280.288C301.233 279.376 301.819 276.512 303.186 277.358C303.706 277.684 304.292 280.744 304.357 281.395C304.552 282.827 303.706 286.734 301.559 284.781ZM311.906 275.275C311.255 272.866 311.255 270.326 310.669 267.852C310.018 265.248 309.173 262.708 308.912 260.039C318.608 261.732 324.075 271.368 328.304 279.376C330.517 283.609 332.73 288.362 333.575 293.115C334.421 297.737 332.99 301.253 331.298 305.42C330.452 307.504 329.085 308.285 327.458 309.652C326.027 310.889 325.506 312.973 324.01 314.08C322.903 314.926 321.472 315.317 320.3 316.163C319.129 317.01 318.023 317.791 316.851 318.572C315.485 319.419 311.45 322.609 309.628 321.958C308.261 321.437 308.847 319.809 309.238 318.703C309.931 316.524 310.496 314.306 310.93 312.061C312.069 305.954 312.787 299.776 313.077 293.57C313.272 287.45 313.533 281.2 311.906 275.275V275.275ZM303.836 303.011C303.967 303.337 304.617 305.876 303.251 305.355C302.275 304.965 303.706 303.467 303.836 303.011ZM309.498 200.529C310.669 200.073 311.125 201.44 312.101 201.506C313.402 201.571 313.728 200.073 315.094 200.008C318.543 199.878 323.489 203.198 326.222 204.956C324.855 206.649 324.27 208.472 324.986 210.556C325.571 212.444 327.849 214.527 327.784 216.481C327.719 218.434 325.246 219.736 324.465 221.494C323.749 223.122 323.489 226.377 325.701 227.094C329.476 228.331 330.322 221.299 333.185 221.234C334.421 221.234 335.983 223.513 336.829 224.229C338.827 225.745 340.988 227.033 343.272 228.07C344.833 228.786 346.981 230.219 348.087 228.266C348.998 226.703 348.282 224.294 347.371 222.992C346.33 221.494 337.22 214.527 337.805 213.941C338.131 213.616 340.408 214.527 340.734 214.788C341.449 215.374 341.71 216.416 342.426 217.067C343.532 218.043 344.964 218.434 346.33 218.955C349.193 219.931 351.015 223.317 353.814 224.88C355.441 225.791 356.417 227.549 357.783 228.917C359.54 230.675 361.362 232.563 361.102 235.167C360.907 236.99 360.646 241.222 359.605 242.72C358.499 244.348 356.612 243.762 354.985 244.152C353.098 244.608 351.536 246.106 351.927 248.189C352.317 250.403 354.074 250.533 355.896 250.598C361.102 250.728 359.15 254.049 360.972 257.695C361.948 259.648 363.575 260.43 364.746 258.151C365.657 256.328 364.03 253.398 365.007 251.77C366.178 249.817 372.62 250.338 373.987 251.835C375.028 252.942 375.549 254.505 376.525 255.742C378.086 257.565 378.672 260.104 379.648 262.253C380.624 264.597 381.47 267.006 382.251 269.415C382.772 271.108 383.943 273.842 381.21 272.345C379.323 271.303 377.891 269.024 375.483 268.959C373.076 268.894 371.709 271.368 372.425 273.517C373.076 275.6 376.199 276.512 376.525 278.66C376.915 281.004 372.946 283.348 371.774 285.041C368.976 288.948 371.319 293.375 375.874 290.054C377.501 288.882 379.193 286.473 381.015 285.757C383.878 284.585 383.878 288.948 385.245 290.575C385.961 291.422 386.286 290.575 385.83 291.877C385.7 292.333 384.854 292.529 384.724 293.115C384.659 293.57 385.049 293.766 385.049 294.091C385.142 294.942 385.076 295.803 384.854 296.63C384.668 298.121 384.581 299.621 384.594 301.123C384.399 304.313 384.334 307.374 384.008 310.564C383.813 312.322 383.423 315.968 385.505 316.814C384.789 317.986 383.748 321.242 382.316 320.981C382.446 321.763 382.381 322.739 383.097 323.26C383.292 322.805 383.423 322.349 383.618 321.828C384.008 322.87 383.683 323 383.618 323.781C383.618 322.87 382.772 325.018 383.227 324.758C382.837 325.083 382.316 325.279 381.731 325.669C380.885 326.255 380.494 327.102 379.844 327.883C378.672 329.315 378.737 330.813 377.761 332.311C376.329 334.459 374.442 336.608 372.946 338.756C371.709 340.514 369.366 341.491 368.39 343.379C367.74 344.551 367.479 345.984 366.438 346.83C364.876 348.002 362.859 349.174 361.167 350.411C360.126 351.192 359.345 352.299 358.239 353.015C357.718 353.406 356.091 353.797 356.091 354.578C354.074 353.992 352.642 351.974 351.081 350.737C350.039 349.89 347.501 348.783 347.632 347.156C347.762 345.788 349.714 344.095 350.169 342.663C350.56 341.426 351.081 339.147 350.039 338.105C347.827 335.892 345.354 340.579 344.118 341.882C341.645 344.421 340.604 341.882 338.651 339.993C335.463 336.998 333.445 340.124 334.552 343.835C335.137 345.723 337.285 347.416 337.415 349.304C337.545 351.388 335.267 352.494 334.356 354.187C333.51 355.75 333.12 358.55 334.682 359.852C336.439 361.284 338.001 359.591 339.172 358.224C340.083 357.182 341.059 354.904 342.556 354.773C344.378 354.643 347.371 357.964 348.803 358.94C346.721 359.526 345.419 361.349 343.662 362.456C341.384 363.889 338.131 364.279 335.528 365.256C333.12 366.233 330.907 366.949 328.565 368.121C325.832 369.488 322.448 369.879 319.519 370.855C316.916 371.767 314.444 373.004 311.776 373.785C308.782 374.632 305.659 375.153 302.665 375.869C299.97 376.624 297.197 377.061 294.401 377.171C291.733 377.171 291.798 375.543 290.887 373.264C289.845 370.66 288.153 368.316 287.112 365.777C286.071 363.303 287.633 362.391 289.13 360.503C290.561 358.745 290.171 358.485 291.993 359.722C294.401 361.349 295.962 360.243 297.784 358.354C299.411 356.661 300.062 355.294 302.405 356.466C304.747 357.638 307.025 359.526 309.563 360.242C311.58 360.828 313.077 360.438 313.402 358.224C313.793 355.88 312.426 354.187 310.734 352.755C309.433 351.713 306.635 350.411 306.114 348.653C305.593 346.83 308.261 344.16 308.522 342.077C308.847 339.473 307.741 337.584 305.333 339.407C303.576 340.71 302.34 343.509 299.932 343.705C300.648 340.84 302.079 338.301 303.381 335.631C304.422 333.417 305.398 330.943 308.261 330.683C309.173 330.618 309.823 330.683 310.669 330.553C311.841 330.357 313.402 330.162 314.704 329.836C317.632 329.12 320.235 326.841 322.968 325.539C323.619 327.232 324.66 331.985 327.198 329.185C329.085 327.102 327.003 323.586 328.695 321.307C332.274 316.554 340.018 320.07 344.703 317.596C346.721 316.554 348.412 313.168 345.549 312.127C343.857 311.541 339.042 313.754 338.001 312.127C337.285 310.955 340.278 306.462 340.669 305.225C341.775 301.383 341.645 297.347 341.645 293.375C343.922 294.287 346.786 296.5 349.258 296.761C351.796 297.086 352.252 294.091 351.536 292.138C350.625 289.468 347.567 287.255 345.484 285.497C344.573 284.715 342.165 283.478 341.645 282.372C341.124 281.2 341.84 280.614 342.426 279.572C343.337 277.944 345.549 273.777 343.141 272.214C340.929 270.782 339.692 274.754 338.261 275.6C335.853 277.033 335.072 273.777 334.096 272.084C332.404 269.089 329.996 266.355 327.849 263.685C325.897 261.211 324.725 259.518 324.4 256.393C324.205 253.984 323.684 252.161 326.482 251.64C331.493 250.663 338.781 253.072 342.816 248.97C344.964 246.822 343.402 244.673 340.734 244.738C337.267 244.966 333.789 244.966 330.322 244.738C328.435 244.608 324.53 245.064 323.554 243.11C322.318 240.636 324.4 236.6 322.122 234.386C319.259 231.586 318.543 237.902 318.478 239.66C318.413 240.962 318.738 242.85 317.958 243.957C317.242 244.999 315.875 244.999 314.769 245.324C312.036 246.236 310.604 249.621 314.248 250.338C315.485 250.598 317.177 250.207 318.218 251.119C319.259 252.096 318.869 253.788 318.999 255.026C316.461 252.03 311.125 253.398 307.676 252.291C305.854 251.705 305.528 250.924 304.747 249.166C303.836 247.017 301.689 244.348 301.624 241.939C301.559 239.92 303.251 238.423 304.032 236.665C304.805 234.922 305.204 233.037 305.203 231.13C304.943 227.094 297.719 231.195 296.223 232.758C293.49 235.558 290.171 239.139 291.667 243.11C292.969 246.626 293.685 248.645 289.13 248.384C287.438 248.254 283.989 248.58 282.687 247.929C281.711 247.408 282.102 246.496 282.036 245.129C282.036 243.957 282.102 242.199 281.321 241.157C278.653 237.576 278.067 246.496 276.57 247.473C274.227 248.97 269.347 247.408 269.737 251.9C270.063 255.872 275.399 254.244 276.896 257.63C277.611 259.258 277.481 261.146 278.327 262.774C279.629 265.052 281.19 264.922 282.036 262.578C282.622 260.95 281.841 259.258 282.297 257.695C282.947 255.416 286.071 255.677 288.023 255.416C290.28 255.074 292.502 254.529 294.661 253.788C297.394 252.877 297.264 254.374 297.719 256.458C298.24 258.932 299.021 261.276 299.541 263.815C299.997 266.159 301.233 268.633 301.429 270.977C301.559 272.735 300.973 272.605 299.476 273.647C297.85 274.754 296.093 277.684 294.205 278.139C291.407 278.856 288.544 272.41 286.006 275.73C284.9 277.163 285.355 280.158 286.136 281.59C287.177 283.543 289.064 283.999 287.503 286.213C286.331 287.841 284.835 289.143 284.705 291.422C284.574 293.505 286.006 295.459 288.219 294.873C289.976 294.352 291.017 292.529 292.383 291.422C294.726 289.534 296.613 291.292 299.021 292.333C300.908 293.18 304.357 293.766 305.268 295.719C306.439 298.258 304.943 299.235 302.73 298.519C303.576 301.383 302.47 303.011 302.144 305.941C301.884 308.35 301.364 310.499 300.973 312.778C300.518 315.838 300.453 315.512 297.329 315.642C294.661 315.708 292.058 315.642 289.39 315.512C287.047 315.382 285.42 315.642 285.29 312.778C285.225 311.541 286.006 307.243 283.533 307.764C281.321 308.22 281.971 312.127 281.256 313.559C280.214 315.708 278.392 315.056 276.44 315.577C274.423 316.098 272.796 317.596 273.316 319.94C273.902 322.414 276.115 322.219 278.067 322.805C281.06 323.651 280.41 328.144 282.167 330.553C282.882 331.529 283.663 332.506 284.835 331.725C287.047 330.227 284.965 326.646 285.55 324.823C286.136 322.935 288.219 323.325 290.171 323.065C293.034 322.674 296.093 321.307 298.956 321.307C298.435 323 296.873 323.911 296.288 325.669C295.962 326.581 296.288 328.339 295.832 329.12C295.377 329.967 294.01 330.227 293.424 331.334C292.644 332.831 292.448 334.459 291.537 335.957C289.455 339.473 287.633 343.054 285.355 346.569C283.075 350.158 280.507 353.555 277.676 356.727C274.878 359.787 274.032 358.289 271.559 355.815C270.583 354.838 268.501 353.666 268.176 352.169C267.915 350.671 269.152 349.499 269.802 348.262C270.713 346.635 272.275 343.9 271.885 342.012C271.169 338.431 267.915 341.751 266.679 343.054C264.531 345.398 263.36 347.872 260.106 346.049C258.024 344.877 255.421 341.621 252.753 342.793C250.28 343.9 250.996 347.09 252.493 348.653C253.339 349.565 254.575 350.085 255.486 350.932C257.438 352.755 256.332 353.276 255.421 355.294C254.705 356.987 254.575 360.243 255.942 361.61C258.545 364.344 260.627 358.81 263.035 358.745C264.206 358.68 269.022 361.87 269.347 362.977C269.933 364.995 264.792 367.339 263.36 368.316C260.171 370.465 256.657 372.744 253.078 374.176C248.848 375.869 251.972 370.53 249.694 368.707C246.636 366.363 246.441 372.744 246.115 374.306C245.269 378.538 240.844 378.603 237.265 379.645C234.988 380.296 232.71 381.012 230.432 381.598C228.48 382.119 226.268 382.054 224.38 382.705C222.688 383.226 221.582 384.333 219.695 384.333C219.109 384.333 218.589 384.138 218.003 384.138C216.832 384.138 215.725 384.789 214.619 384.724C212.732 384.593 213.578 384.007 212.927 382.705C212.342 381.468 210.78 381.012 209.543 380.622C206.094 379.515 203.231 380.492 202.711 376.064C202.58 374.697 202.776 369.163 200.173 369.814C197.179 370.595 199.782 377.171 197.96 378.799C197.049 379.58 195.683 379.189 194.576 379.45C192.754 379.84 191.973 381.208 190.021 381.078C188.382 380.914 186.802 380.38 185.401 379.515C183.253 378.408 180.65 377.692 178.893 376.064C176.42 373.785 175.379 370.204 174.273 367.144C172.805 362.682 171.973 358.035 171.8 353.341C171.735 351.713 171.019 350.541 170.694 348.979C170.369 347.351 171.28 347.025 171.54 345.528C171.735 344.03 171.67 342.468 171.93 340.84C172.386 338.561 172.516 336.217 172.971 333.873C173.687 330.032 174.794 326.255 175.705 322.479C175.965 321.307 176.486 317.531 177.917 317.205C178.958 316.945 181.431 318.507 182.472 319.028C184.425 319.94 186.117 321.242 188.199 321.893C189.305 322.219 190.672 322.219 191.323 323.195C192.429 324.758 191.518 327.883 191.973 329.771C192.559 332.05 194.446 333.027 195.943 330.748C196.724 329.511 196.528 328.078 196.659 326.711C196.789 324.758 196.854 324.302 199.001 324.432C201.149 324.562 203.231 325.409 205.444 325.474C207.461 325.539 209.413 325.539 211.431 325.409C216.122 325.223 220.756 324.3 225.161 322.674C228.22 321.502 231.799 318.963 235.183 319.028C239.933 319.158 238.632 323.586 239.282 326.841C239.673 328.86 243.057 335.045 244.358 330.032C245.009 327.558 242.862 323.976 244.098 321.698C245.595 319.028 251.061 321.242 253.534 320.656C255.551 320.135 258.935 317.335 257.503 314.861C256.853 313.689 255.551 313.885 254.38 313.819C252.167 313.624 249.955 313.364 247.807 313.038C246.571 312.843 244.684 312.778 244.163 311.345C243.708 310.108 245.725 306.983 246.18 305.811C247.553 302.241 248.216 298.437 248.133 294.612C248.23 292.678 248.165 290.74 247.937 288.817C247.807 288.101 246.766 285.887 247.287 285.236C247.937 284.325 249.239 285.497 249.825 286.148C250.866 287.45 250.54 287.385 249.89 288.752C248.979 290.771 247.287 294.938 250.215 296.5C253.273 298.128 254.38 292.659 257.243 293.245C258.61 293.505 259.911 295.328 261.017 296.11C262.284 297.158 263.685 298.034 265.182 298.714C267.655 299.691 270.388 298.974 269.412 295.849C268.631 293.44 266.158 291.357 264.401 289.664C261.603 286.929 261.733 285.757 263.685 282.502C264.531 281.134 267.655 275.405 264.011 274.949C262.124 274.689 260.041 277.814 259 278.986C257.243 281.004 256.267 281.916 253.664 280.288C251.126 278.66 249.955 277.358 246.896 277.228C243.382 277.033 241.82 271.759 239.933 269.024C234.857 261.667 227.114 258.021 220.541 252.356C217.352 249.621 215.205 245.975 212.797 242.59C211.626 240.962 210.129 239.66 209.218 237.902C208.632 236.795 207.005 234.125 207.461 232.823C207.982 231.195 210.78 230.219 211.951 229.047C212.927 228.07 213.448 226.898 215.01 227.224C216.376 227.549 217.613 229.437 218.719 230.219C219.85 231.034 221.047 231.753 222.298 232.367C224.511 233.474 227.179 234.06 227.309 230.74C227.439 227.875 224.836 224.815 222.949 222.927C221.582 221.559 219.5 220.322 219.76 218.108C220.069 216.7 220.619 215.357 221.387 214.137C223.274 210.946 229.001 212.9 232.124 213.095C235.899 213.355 239.998 212.704 242.992 215.374C243.968 216.22 246.245 217.978 246.701 219.15C247.287 220.583 246.376 221.169 245.855 222.536C245.204 224.294 244.749 227.745 246.636 228.982C249.759 231 251.386 225.01 254.64 226.312C257.764 227.549 259.911 231.13 263.425 231.716C268.045 232.433 265.442 226.703 263.816 225.01C261.733 222.796 257.699 220.583 259.065 217.327C259.456 216.416 260.302 214.462 261.082 213.876C262.579 212.769 265.052 213.355 266.744 213.421C271.043 213.475 275.337 213.105 279.564 212.314C280.865 212.053 281.125 211.923 282.036 212.835C283.273 214.137 283.989 215.895 285.42 217.197C283.273 219.476 280.149 222.21 281.646 225.726C282.882 228.721 285.681 227.289 287.568 225.661C288.479 224.88 289.39 223.317 290.561 222.992C292.058 222.601 293.815 223.968 295.051 224.684C296.939 225.726 300.908 228.852 303.056 227.028C305.854 224.619 302.535 220.908 300.583 219.411C299.411 218.499 297.85 217.848 296.873 216.741C295.572 215.244 296.353 215.048 297.134 213.681C298.565 211.207 298.045 208.016 300.387 206.128C301.689 205.087 303.511 204.37 305.008 203.589C306.57 202.677 308.131 201.115 309.498 200.529V200.529ZM333.185 210.1C332.599 209.774 332.079 209.384 331.493 209.058C332.73 208.472 333.641 208.537 333.185 210.1ZM364.291 240.05C364.486 238.878 365.397 236.86 366.633 237.902C367.414 238.618 366.568 241.222 368.455 240.441C368.521 242.069 367.349 241.939 369.106 243.436C366.829 243.241 363.64 243.306 364.291 240.05ZM275.334 379.515C275.919 377.952 275.919 375.543 277.676 376.976C277.742 375.087 277.351 369.163 280.735 369.423C282.102 369.553 282.102 370.725 282.492 371.832C283.241 373.646 284.111 375.408 285.095 377.106C281.703 377.178 278.37 378.001 275.334 379.515V379.515ZM276.44 400.936C278.392 402.368 279.368 400.676 281.19 400.024C282.882 399.438 284.639 399.764 286.462 399.373C288.804 398.852 291.472 398.918 293.75 398.918C294.336 398.918 295.442 398.983 296.027 399.048C297.069 399.178 296.939 399.373 298.045 399.634C298.451 399.537 298.865 399.472 299.281 399.438C299.526 399.43 299.769 399.486 299.986 399.6C300.203 399.714 300.386 399.883 300.518 400.09C301.494 400.415 301.819 400.22 302.73 400.415C304.819 400.987 306.654 402.249 307.936 403.996C310.799 407.512 310.93 412.851 310.864 417.213C310.799 418.45 310.799 419.688 310.864 420.925C310.995 422.097 311.776 423.789 311.45 424.896C310.93 426.589 309.433 426.198 307.611 426.329C306.57 426.394 305.463 427.045 304.682 427.11C303.836 427.175 303.511 426.85 302.73 426.654C300.583 426.198 298.045 426.85 295.897 427.436C293.75 428.022 291.798 428.607 289.585 429.063C288.153 429.324 286.852 429.519 285.42 429.649C284.249 429.779 283.728 430.431 282.687 430.691C281.711 430.951 280.735 430.561 279.694 430.756C278.327 431.017 277.351 432.058 276.115 432.514C274.358 433.23 271.625 432.188 270.844 434.337C270.518 432.254 268.566 432.84 267.069 432.644C264.662 432.319 262.254 431.277 259.911 430.561C258.024 429.975 251.386 424.766 250.15 426.85C250.15 426.654 250.41 425.417 250.15 425.287C249.434 424.766 249.434 425.092 248.718 424.766C247.777 424.396 246.932 423.817 246.245 423.073C244.553 421.445 242.276 420.599 240.519 419.167C236.094 415.455 234.532 407.903 233.491 402.564C232.059 405.103 232.58 401.847 232.84 400.741C233.426 398.201 232.645 396.964 232.515 394.49C232.385 392.211 233.361 391.756 235.443 391.56C237.942 391.29 240.42 390.855 242.862 390.258C245.217 389.737 247.493 388.905 249.629 387.784C251.582 386.677 253.599 386.286 255.616 385.31C257.829 384.268 259.976 383.161 262.189 382.119C263.165 381.664 267.59 378.343 268.306 378.538C269.867 378.929 268.371 381.664 267.915 382.38C266.679 384.203 264.662 385.049 262.839 386.221C261.213 387.263 256.267 392.211 261.278 391.756C264.596 391.43 266.874 387.914 269.022 391.886C269.802 393.318 270.909 394.425 269.998 395.857C268.761 397.876 265.312 398.852 263.49 400.22C261.928 401.392 258.74 406.861 261.928 407.447C262.464 407.547 263.016 407.53 263.544 407.395C264.072 407.26 264.565 407.011 264.987 406.666C265.442 406.21 265.442 405.168 265.898 404.843C266.549 404.387 267.85 404.973 268.631 404.712C269.737 404.322 269.933 403.736 270.388 402.694C271.559 403.215 271.559 403.931 272.861 403.28C273.316 403.085 273.447 402.238 273.967 401.978C274.618 401.652 274.878 402.629 275.204 402.499C276.115 402.368 276.115 401.913 276.44 400.936V400.936ZM207.201 384.789C205.248 384.919 203.166 385.114 201.474 383.877C203.491 384.007 205.248 384.463 207.266 384.007C208.047 383.812 209.348 383.096 210.194 383.356C213.057 384.268 207.982 384.724 207.201 384.789V384.789ZM201.8 214.462C201.8 213.811 201.214 204.631 204.337 208.212C205.183 209.188 204.272 210.491 204.142 211.597C204.028 213.445 204.532 215.277 205.574 216.806C206.485 218.239 208.177 219.541 207.917 221.364C207.721 222.992 206.029 224.424 205.183 225.791C203.166 222.666 201.995 218.304 201.8 214.462ZM194.967 118.361C187.698 119.101 180.511 120.496 173.492 122.528C166.659 124.546 160.217 127.802 153.774 130.862C152.473 125.197 151.041 119.468 149.74 113.803C149.089 111.068 148.503 108.334 147.918 105.534C147.527 103.581 145.966 99.9347 146.616 97.9814C146.942 96.9396 147.397 96.9396 148.113 96.3536C148.627 95.8008 149.194 95.2992 149.805 94.8561C151.46 94.2906 153.197 94.0046 154.946 94.0097C155.987 94.0748 156.573 94.4655 157.614 94.205C158.525 93.9446 159.306 93.2284 160.152 92.8377C162.364 91.8611 165.097 91.5355 167.44 91.0147C169.718 90.4938 171.995 90.4287 174.273 89.9078C176.225 89.452 177.201 88.0196 178.893 88.0847C183.469 88.1922 188.04 87.7108 192.494 86.6523C197.374 85.4804 202.711 85.6757 207.721 85.5455C209.739 85.4804 211.105 85.0246 211.17 87.3034C211.17 90.038 210.064 93.0982 209.543 95.7025C208.242 101.495 207.329 107.368 206.81 113.282C206.55 116.277 205.379 116.082 202.906 116.993C200.303 117.97 197.83 118.035 194.967 118.361V118.361ZM156.833 178.782C158.59 179.043 158.395 174.16 158.525 173.183C162.755 181.191 167.57 188.939 171.345 197.273C172.191 199.227 173.037 201.18 173.948 203.133C174.598 204.435 176.03 206.193 175.965 207.756C175.9 209.319 174.663 209.97 173.297 210.556C171.8 211.207 171.28 211.532 170.238 210.751C169.002 209.84 167.961 207.105 167.18 205.803C166.009 203.784 164.902 201.701 163.731 199.682C161.649 195.971 159.176 192.455 157.484 188.549C155.857 184.903 153.449 181.777 151.692 178.196C150 174.68 147.592 171.295 145.64 167.844C147.592 166.997 150.065 164.979 152.343 165.044C154.686 165.174 154.62 167.388 154.686 169.276C154.816 171.164 154.1 178.327 156.833 178.782V178.782ZM162.56 215.048C161.518 216.285 159.111 217.067 157.614 217.718C155.597 218.694 153.514 219.541 151.497 220.517C144.859 223.773 138.222 226.703 131.454 229.698C127.94 231.261 124.491 232.888 121.107 234.581C119.35 235.493 115.381 238.618 113.298 238.683C110.955 238.748 110.89 233.995 110.37 232.237C109.914 230.74 109.133 229.568 108.548 228.135C108.352 227.549 108.483 227.094 108.157 226.573C107.767 225.922 106.661 225.401 106.14 224.815C103.797 222.406 101.845 219.345 99.8277 216.676C98.0056 214.202 94.882 211.142 94.0361 208.082C92.3441 202.157 102.301 198.836 106.14 196.427C112.843 192.26 119.545 187.963 125.923 183.275C128.851 181.126 131.649 178.978 134.577 176.829C135.944 175.852 139.718 172.011 141.475 173.378C142.126 173.899 142.126 175.266 142.386 176.048C143.02 177.609 143.828 179.095 144.794 180.475C145.575 181.777 146.746 183.08 147.267 184.512C147.853 186.205 147.853 187.181 148.959 188.679C150.976 191.414 151.952 194.604 153.774 197.469C155.597 200.203 157.289 202.222 158.46 205.217C159.111 206.975 160.217 208.472 161.128 210.1C161.583 210.881 162.039 211.597 162.429 212.379C163.275 213.876 163.536 213.876 162.56 215.048V215.048ZM105.489 238.292C104.188 239.204 102.301 237.641 101.064 237.641C100.544 237.641 100.023 238.032 99.6325 238.032C98.5262 238.032 97.6802 237.251 96.639 236.925C92.0187 235.362 86.5525 235.297 82.648 232.107C74.8391 225.791 78.5483 213.095 79.9799 204.891C80.2402 203.198 80.7608 200.92 79.4594 199.552C77.9626 198.055 75.7501 198.966 74.3835 200.138C73.017 201.375 72.0409 203.133 70.8695 204.566C69.0474 206.91 67.0301 209.058 65.0128 211.207C57.7895 218.825 50.1758 227.614 41.2606 233.214C37.5513 235.558 34.1675 238.683 30.1328 240.506C25.2523 242.655 30.263 234.386 31.174 233.018C36.9657 224.229 45.2952 217.262 52.3883 209.579C53.6898 208.147 55.577 206.193 55.6421 204.045C55.7071 200.92 52.9089 201.18 50.6964 202.026C48.614 202.873 47.6379 204.891 45.946 206.258C43.7986 207.933 41.5372 209.456 39.1782 210.816C34.1746 213.742 29.0272 216.415 23.7555 218.825C21.2827 219.997 18.8749 221.103 16.4021 222.21C15.7514 222.536 11.7167 225.075 11.912 222.861C11.912 222.536 14.515 219.411 14.8403 219.346C16.4021 218.76 17.183 220.517 18.6146 218.239C19.5908 216.611 19.786 215.764 21.1526 214.527C21.4129 214.332 21.543 213.811 21.7382 213.421C21.7382 213.551 22.7794 212.509 22.5842 212.704C22.9051 212.395 23.2092 212.069 23.4952 211.728C24.6015 210.295 26.749 210.23 27.66 208.602C28.0505 207.951 27.7902 207.17 28.2457 206.519C28.8964 205.673 30.1979 205.282 30.9788 204.501C31.6296 203.849 32.0851 203.329 32.4755 202.873C32.7358 202.612 33.1914 202.417 33.5167 202.091C34.2976 201.31 34.2325 200.594 35.3388 199.943C36.3149 199.357 36.7705 199.878 37.0958 198.445C38.2672 199.227 38.137 198.12 38.6576 197.273C39.3084 196.232 40.0893 195.776 40.9352 194.995C42.8224 193.302 44.6445 190.828 46.2713 188.744C50.306 183.535 53.6248 177.415 54.7961 170.839C55.0564 169.276 55.2516 167.714 55.3818 166.086C55.4468 165.24 55.1865 163.221 55.7071 162.375C56.488 161.072 58.0498 161.593 59.2212 161.072C59.6116 160.877 60.0021 160.356 60.3925 160.226C60.9131 160.031 61.5639 160.226 62.0844 160.031C62.2797 159.966 62.3447 159.38 62.6701 159.249C63.3453 159.196 64.0247 159.24 64.6874 159.38C66.1479 159.37 67.5976 159.128 68.9823 158.663C70.2838 158.208 71.325 157.296 72.6265 156.905C73.2704 157.025 73.9284 157.047 74.5788 156.971C74.7089 156.45 74.774 155.864 74.9041 155.343C75.7501 155.929 78.6134 156.71 79.5244 156.58C80.9561 156.385 80.6307 155.082 81.8671 156.775C82.5829 156.189 83.2337 155.538 83.9495 154.952C84.4701 157.166 88.0492 156.059 89.7411 156.189C92.0187 156.385 93.8408 155.929 95.9232 156.71C98.4611 157.687 100.739 158.729 103.472 158.989C105.424 159.184 106.205 160.096 108.092 160.617C110.63 161.333 110.825 162.179 110.044 164.784C109.394 166.867 108.873 168.495 109.784 170.644C111.476 174.485 115.966 176.048 118.895 178.652C112.062 183.47 105.359 188.158 98.7214 193.237C95.9883 195.385 92.9949 197.534 91.4331 200.724C90.0014 203.719 89.1555 207.235 88.3095 210.426C86.2922 217.718 91.9537 222.601 97.7453 225.791C98.8516 226.768 107.116 237.12 105.489 238.292V238.292ZM94.2313 247.147C93.8408 245.715 93.9059 245.389 95.2074 244.868C95.728 244.673 97.6802 244.413 98.0056 245.129C98.7214 246.691 94.9471 246.692 94.2313 247.147ZM151.692 145.642C152.148 148.767 152.668 151.827 153.059 154.952C153.319 156.645 153.84 158.208 152.538 159.51C151.822 160.226 150.065 160.552 149.089 160.942C147.723 161.528 146.421 162.179 145.185 162.83C142.907 164.068 140.499 164.784 138.222 165.825C137.246 166.281 136.66 167.258 135.814 167.844C134.643 168.69 133.211 169.146 132.04 169.993C129.892 171.49 127.94 173.248 125.727 174.745C123.255 176.438 122.799 175.917 121.432 173.378C120.196 171.099 118.699 170.058 116.942 168.3C116.226 167.583 113.819 163.677 115.901 163.351C116.422 163.286 118.309 164.068 118.699 164.328C119.35 164.719 120.326 166.932 120.847 166.997C121.758 167.063 122.994 164.393 123.58 163.677C127.4 158.998 131.554 154.603 136.009 150.525C138.278 148.439 140.716 146.544 143.297 144.86C145.12 143.688 146.746 141.995 148.569 140.823C148.949 140.498 149.392 140.255 149.87 140.107C150.846 139.651 151.172 140.042 150.911 141.214C151.562 142.386 151.497 144.339 151.692 145.642V145.642ZM68.1364 141.54C69.0474 140.563 70.2188 139.847 71.0647 138.805C71.5203 138.219 71.8456 137.177 72.3662 136.787C73.2773 136.136 74.5788 136.396 75.62 135.55C76.6611 134.703 77.5071 133.661 78.5483 132.75C80.6958 130.797 82.9734 128.974 85.0558 127.02C86.2922 125.913 87.5286 124.416 88.5698 123.7C88.846 123.446 89.1519 123.228 89.4808 123.049C90.1316 122.723 90.457 123.049 91.368 122.723C92.0187 122.528 92.4092 121.746 92.9298 121.356C94.1011 120.444 95.6629 120.119 96.8343 119.272C98.0056 118.426 98.5262 117.058 100.088 116.407C101.975 115.561 103.407 116.212 104.773 114.584C105.359 113.933 105.489 113.087 106.4 112.631C107.441 112.11 108.418 112.631 109.394 112.11C110.109 111.719 110.565 110.873 111.281 110.482C112.517 109.701 113.949 109.636 115.12 108.659C116.096 107.878 115.576 107.943 116.747 107.618C117.296 107.518 117.839 107.388 118.374 107.227C120.131 106.641 123.059 105.86 124.1 104.167C124.621 104.948 124.816 105.078 125.662 104.883C126.106 104.504 126.52 104.09 126.899 103.646C126.943 103.725 127.006 103.791 127.083 103.84C127.159 103.888 127.247 103.917 127.337 103.923C127.427 103.93 127.517 103.914 127.6 103.877C127.682 103.84 127.755 103.783 127.81 103.711C129.697 103.06 131.389 101.953 133.276 101.367C133.55 101.494 133.811 101.647 134.057 101.823C134.447 101.823 134.577 101.693 134.512 101.302C135.27 101.132 136.011 100.892 136.725 100.586C138.026 99.9998 139.393 98.6976 140.955 99.1534C143.493 99.9347 143.623 105.078 144.013 107.162C145.054 112.175 146.161 117.254 147.267 122.267C147.723 124.286 148.113 126.369 148.699 128.388C149.089 129.69 150 131.643 149.675 133.01C149.284 134.703 147.592 135.289 146.161 136.07C144.233 137.164 142.365 138.36 140.564 139.651C132.82 144.99 127.029 152.348 121.563 159.901C120.106 158.072 118.231 156.621 116.096 155.668C114.925 155.213 113.819 155.603 112.647 155.017C111.826 154.512 111.042 153.946 110.305 153.324C105.278 150.079 99.7308 147.722 93.9059 146.358C82.3226 143.818 70.9997 147.725 59.7418 149.613C62.0194 146.228 65.4683 144.274 68.1364 141.54V141.54ZM145.705 56.3764C147.657 49.9306 151.041 43.6149 155.792 38.7968C158.172 36.2876 161.025 34.274 164.186 32.8719C166.92 31.6999 170.173 30.5279 170.173 34.3694C170.108 42.6383 168.156 50.777 167.961 59.0459C167.766 67.1195 169.067 73.6304 174.013 80.2065C170.889 80.9227 167.831 81.6389 164.707 82.4202C162.364 83.0062 159.891 83.6573 157.679 84.048C155.522 84.3408 153.39 84.7979 151.302 85.4152C149.87 85.9361 147.527 87.4336 145.966 87.1081C143.363 86.5872 143.948 77.0812 143.818 74.8024C143.272 68.5962 143.913 62.3429 145.705 56.3764V56.3764ZM193.86 68.8774C197.44 64.5151 201.214 59.4366 207.266 58.5901C213.122 57.8088 215.27 64.8406 214.879 69.5936C214.749 71.2214 214.489 75.3884 213.383 76.6255C212.081 78.0579 209.804 76.951 208.177 76.7557C201.149 75.779 193.86 77.4068 186.832 77.4068C189.11 74.542 191.518 71.7423 193.86 68.8774V68.8774ZM222.819 86.2617C225.291 86.5872 227.244 86.9779 226.072 89.7776C223.73 95.377 221.908 100.716 223.925 106.836C225.487 111.524 230.562 117.189 235.573 118.1C237.33 118.426 239.998 117.84 241.039 119.663C242.016 121.225 240.974 126.044 240.844 127.802C240.454 134.378 238.762 140.954 234.467 146.097C230.693 150.72 226.007 154.301 220.541 149.939C215.856 146.293 213.122 139.717 211.756 134.117C211.138 131.139 210.811 128.108 210.78 125.067C210.65 122.332 210.129 120.639 213.188 120.054C214.034 119.923 216.051 119.923 216.051 118.686C216.051 116.993 213.838 117.644 212.992 117.579C209.739 117.254 211.235 113.412 211.561 111.003C212.081 106.836 212.927 102.669 213.708 98.5023C214.359 94.9863 214.424 90.2985 215.856 87.043C216.702 85.0897 221.192 86.0663 222.819 86.2617V86.2617ZM228.871 98.6976C229.261 96.4188 229.456 93.5539 231.734 92.3169C234.207 90.9496 235.443 93.1633 236.679 95.0515C239.933 99.9347 243.512 104.492 244.098 110.613C244.163 111.329 244.488 112.761 243.773 113.282C243.447 113.477 242.731 112.891 242.211 112.957C239.608 113.152 237.786 113.803 235.248 112.371C232.885 111.05 230.997 109.019 229.852 106.565C228.708 104.11 228.364 101.358 228.871 98.6976V98.6976ZM248.263 112.371C247.742 107.032 245.269 102.344 242.536 97.8512C241.17 95.6374 238.567 93.2284 237.656 90.8845C237.135 89.6474 238.046 88.0847 239.868 88.6056C240.779 88.8661 242.536 91.2751 243.122 92.1215C244.649 94.2998 246.019 96.5844 247.222 98.958C248.458 101.497 252.232 110.613 248.263 112.371ZM231.994 59.5017C232.254 54.4882 232.319 48.7586 235.573 44.5916C238.111 41.4012 242.666 39.9688 246.376 38.7317C251.386 37.0389 257.438 36.7784 262.644 37.3644C267.265 37.8202 270.779 41.0106 273.577 44.4614C276.505 47.9773 278.718 52.5349 280.735 56.5717C281.256 57.6135 285.485 64.1896 282.622 63.9942C281.516 63.9291 280.475 61.7154 279.629 61.0643C278.978 60.5434 278.132 60.6085 277.546 60.2179C276.896 59.7621 277.026 59.3714 276.505 58.8506C272.991 55.1393 269.802 57.2879 266.028 59.2412C265.833 57.939 266.158 55.53 265.052 54.5533C263.62 53.3163 262.124 55.2695 261.148 56.2462C260.236 57.1577 259.065 58.7204 257.894 59.2412C256.397 59.8923 256.918 59.1761 255.551 58.6552C252.883 57.6135 250.866 60.7387 249.499 62.4967C248.979 63.1478 248.198 64.8406 247.287 65.036C246.441 65.2313 246.311 64.5802 245.53 64.3849C243.382 63.7338 242.796 65.2313 242.146 67.1195C241.463 69.2235 240.614 71.2701 239.608 73.2398C237.591 76.7557 236.745 77.8625 238.306 81.704C236.029 82.0296 235.508 82.29 234.402 80.2716C233.312 78.3775 232.814 76.2008 232.97 74.0211C233.231 69.0077 231.734 64.6453 231.994 59.5017V59.5017ZM285.355 83.3969C287.84 88.1429 289.177 93.4058 289.26 98.7627C289.26 101.237 289.13 104.232 287.958 106.446C286.852 108.594 284.574 109.636 282.427 110.548C277.286 112.761 271.559 112.696 266.158 111.719C263.36 111.199 260.627 111.524 258.284 109.831C256.462 108.594 254.315 107.357 253.794 105.013C253.599 104.037 253.924 103.255 253.859 102.279C253.937 101.845 253.915 101.4 253.794 100.976C253.469 100.781 253.143 100.651 252.818 100.456C252.558 99.7393 253.078 98.958 252.948 98.1767C252.818 97.2652 252.037 96.549 251.712 95.7025C250.736 93.4237 251.451 92.1866 253.273 90.624C253.729 90.2985 254.119 89.9729 254.575 89.5823C254.965 88.9312 255.421 88.9312 255.876 89.5823C256.722 89.5823 256.722 89.8427 257.633 89.5823C259.651 88.9963 261.278 86.8477 263.23 86.1315C264.011 85.871 265.117 86.0663 265.768 85.5455C266.288 85.0897 265.963 84.0479 266.419 83.5922C267.98 82.0947 270.388 83.5271 271.82 81.3134C272.991 79.5554 272.731 77.0161 272.861 74.9977C276.44 75.7139 278.002 79.0996 280.93 80.8576C281.516 78.5787 281.581 78.6439 283.859 78.0579C282.817 80.0112 284.444 81.8342 285.355 83.3969V83.3969ZM288.088 59.4366C288.739 60.283 289.26 62.4316 288.088 62.6269V59.4366ZM291.147 67.1195C296.613 67.1195 300.127 74.0862 301.689 78.3183C303.446 83.0062 305.268 89.1916 302.014 93.7493C300.778 95.5072 299.216 95.6374 297.264 95.4421C294.856 95.1817 293.62 94.791 294.531 92.2517C296.288 87.4336 294.986 81.2482 291.863 77.2115C296.158 76.365 293.424 72.3933 291.277 70.9609C288.739 69.203 286.722 67.0544 291.147 67.1195ZM166.139 317.466C164.837 320.916 163.536 324.302 162.429 327.818C161.388 331.139 161.974 334.915 160.737 338.105C159.957 337.715 159.761 336.998 159.046 336.608C158.655 336.347 157.874 336.217 157.549 335.957C156.582 335.067 155.73 334.061 155.011 332.962C153.579 330.487 154.555 326.516 155.271 324.042C156.188 320.889 157.788 317.977 159.957 315.512C161.453 313.819 162.299 314.34 164.251 315.187C165.488 315.642 166.724 315.968 166.139 317.466V317.466ZM156.377 344.421C155.336 346.504 153.449 348.197 152.343 350.346C151.172 352.56 150.26 355.034 148.764 357.052C147.202 359.136 145.835 358.745 143.753 359.657C142.972 359.982 142.647 360.568 142.061 361.024C140.89 361.87 139.653 362.391 138.417 363.172C137.571 361.089 134.968 350.476 131.584 350.737C128.656 350.932 130.152 356.466 130.543 358.094C130.834 359.488 131.225 360.859 131.714 362.196C132.17 363.563 133.732 365.581 133.146 367.014C132.43 368.902 130.673 368.772 129.762 367.405C129.046 366.233 128.656 364.735 128.07 363.433C127.615 362.326 125.402 356.336 123.515 357.313C121.693 358.224 124.556 364.019 125.012 365.126C126.183 367.86 128.395 370.53 125.467 372.744C121.042 376.064 115.576 378.603 110.63 381.012C107.767 382.445 105.164 384.268 102.105 385.44C99.3071 386.482 96.0534 386.677 93.3202 387.914C92.6695 388.24 93.125 388.565 92.1489 388.76C91.3029 388.891 89.8713 388.5 89.0253 388.5C87.5722 388.576 86.1156 388.554 84.6653 388.435C83.8193 388.305 81.9973 387.458 82.2576 388.891C81.0862 388.565 80.6307 387.393 79.7847 386.677C78.9768 386.116 78.1285 385.615 77.2468 385.179C75.4898 384.138 74.1883 382.901 73.6677 380.882C72.4313 376.129 75.0343 371.181 78.2229 367.925C80.045 366.037 82.1925 364.475 83.8844 362.391C84.3978 361.619 84.9863 360.899 85.6414 360.242C86.5525 359.526 87.7889 359.461 88.6999 358.745C89.3507 358.224 89.5459 357.378 90.2617 356.857C91.3029 356.141 92.4743 356.401 93.4504 355.49C93.971 354.969 95.9232 352.364 95.7931 351.648C96.3137 351.843 96.8343 351.974 97.3549 352.169C97.6802 350.606 100.413 348.653 101.78 347.872C102.431 347.481 103.797 347.481 104.318 347.09C104.969 346.569 104.969 345.398 105.489 344.681C107.051 342.728 110.24 341.817 112.257 340.449C114.855 338.684 117.334 336.748 119.675 334.654C124.438 330.468 128.58 325.622 131.975 320.265C133.379 318.138 134.598 315.895 135.619 313.559C136.204 312.127 136.79 309.522 138.287 308.676C139.849 307.829 143.363 309.001 145.054 309.132C147.592 309.327 151.497 309.197 153.774 310.434C156.182 311.736 154.23 312.843 152.994 314.405C151.265 316.811 149.966 319.499 149.154 322.349C148.438 324.497 148.308 326.581 147.853 328.729C147.397 331.008 147.397 334.068 148.503 336.152C149.545 338.17 157.549 342.077 156.377 344.421V344.421ZM61.1083 386.351C55.7071 378.929 60.1973 368.121 65.4683 362.131C71.8456 354.904 81.0211 350.867 88.5047 345.007C97.1596 338.236 106.075 331.92 113.754 323.976C117.613 319.955 121.078 315.573 124.1 310.889C126.703 306.918 128.591 301.644 133.862 301.058C130.738 304.965 130.543 310.499 128.2 314.861C125.662 319.419 121.888 323.26 118.114 326.776C110.044 334.199 101.324 340.97 92.6044 347.611C88.1793 350.997 83.8193 354.513 79.3943 357.899C75.4247 360.959 71.26 363.563 68.9823 368.186C65.0128 376.194 64.8176 388.044 73.5376 392.993C68.9823 392.081 63.9065 390.193 61.1083 386.351V386.351ZM534.396 52.8605C532.769 49.6701 529.775 48.4982 526.782 47.2611C523.853 46.024 521.12 44.5265 517.867 44.1358C516.435 43.9405 512.27 44.3963 512.075 42.2476C511.945 40.4897 516.24 38.7317 517.216 37.3644C518.713 35.346 519.689 32.1557 519.103 29.6164C518.582 27.2073 516.24 26.4911 514.092 26.0354C507.39 24.6681 500.231 25.7098 493.464 26.2307C494.31 25.0587 495.481 24.1472 496.132 22.7148L497.173 24.9285C497.767 23.6505 498.441 22.4109 499.19 21.2173L500.752 22.9752C499.906 19.9802 502.769 19.9802 502.444 17.506C502.314 16.5294 501.663 16.0736 501.468 15.2923C501.142 13.7297 502.379 12.753 501.012 11.3206C499.451 9.69289 496.978 10.344 495.221 10.4742C495.025 10.4742 494.7 10.93 494.375 10.9951C493.984 11.0602 493.724 10.4742 493.268 10.5393C491.967 10.6044 490.796 11.6462 489.429 11.9717C483.312 13.4041 477.195 16.0085 471.273 18.4176C465.286 20.8917 459.43 23.7565 454.224 27.6631C448.627 31.8301 444.593 37.104 440.168 42.3779C438.085 44.852 435.873 47.196 434.311 50.0608C433.465 51.5583 432.749 56.116 431.252 56.8322C429.626 57.5484 425.591 55.53 423.964 55.1393C420.126 54.2527 416.187 53.8804 412.251 54.0325C409.062 54.1627 405.743 54.0976 402.62 54.4882C400.798 54.6836 396.242 56.7671 395.982 58.9808C395.852 59.9574 397.023 60.8039 397.283 61.7805C397.674 63.2129 397.023 64.7104 397.479 66.1428C398.39 69.0728 402.62 70.1145 405.157 71.026C412.186 73.5653 419.279 75.5837 426.307 77.8625C429.365 78.8392 432.033 80.4669 434.766 82.0296C437.044 83.3317 439.191 84.699 436.849 87.1732C434.636 89.5171 434.897 90.4938 435.547 93.6841C436.263 97.0698 436.458 100.521 437.369 103.906C438.28 107.292 439.972 110.482 439.647 114.063C439.322 117.644 437.825 121.291 436.458 124.546C435.092 127.802 433.53 131.057 432.033 134.312C430.667 137.308 429.105 140.368 425.916 141.605C419.734 144.014 411.86 143.623 405.483 142.777C398.081 141.823 390.811 140.032 383.813 137.438C377.175 134.964 369.887 131.122 364.421 126.564C361.492 124.155 358.304 122.332 355.245 120.184C352.122 117.97 349.714 115.04 346.981 112.371C341.58 107.227 334.942 103.646 328.109 100.846C320.43 97.6558 312.491 97.9814 304.292 97.6558C305.593 95.1166 307.22 92.7075 307.806 89.9078C308.457 86.9779 308.001 83.7875 307.611 80.8576C306.83 75.1931 305.333 70.1796 301.754 65.5568C300.127 63.4733 298.175 61.8456 295.442 61.5201C293.815 61.3247 290.691 62.6269 289.52 61.1945C288.999 60.5434 289.13 59.2412 288.804 58.525C288.375 57.8528 287.984 57.1572 287.633 56.4415C286.207 53.3745 284.599 50.3958 282.817 47.5215C282.167 46.3495 281.581 44.5916 280.67 43.6149C280.149 43.0941 279.499 42.8336 279.238 42.443C278.718 41.7268 278.457 40.3595 278.002 39.513C277.243 38.0747 276.302 36.7399 275.204 35.5414C273.418 33.5813 271.217 32.0462 268.761 31.0488C267.586 30.5701 266.317 30.3696 265.052 30.4628C264.662 30.4628 264.206 30.7233 263.75 30.7233C262.774 30.6582 262.905 30.2675 262.124 30.1373C256.853 29.0304 249.759 30.593 244.814 32.4812C239.608 34.4996 235.378 37.104 232.189 41.857C224.38 53.4465 226.202 68.4868 229.521 81.2482C227.504 80.7274 225.552 80.0763 223.534 79.6856C222.298 79.4252 220.606 79.4903 219.5 78.8392C217.027 77.4068 219.044 73.6955 219.044 71.2865C219.109 65.1662 216.181 55.5951 209.934 53.0558C203.361 50.3863 195.422 57.939 191.388 62.1712C188.785 64.9058 186.442 67.9008 183.969 70.7005C182.212 72.7189 179.934 75.8442 176.876 75.3233C170.238 74.2164 172.256 61.5201 172.581 57.2879C173.037 50.5166 174.013 43.6801 174.078 36.9087C174.078 32.8068 173.362 27.2074 168.286 26.7516C161.323 26.1005 154.751 32.4161 150.716 37.2993C140.044 50.1259 137.636 67.1195 140.499 83.2666C140.89 85.6106 142.256 88.5405 139.718 90.038C136.335 91.9913 132.04 93.1633 128.46 94.5306C120.391 97.7209 112.908 101.888 105.294 106.055C97.7453 110.157 90.3919 114.194 83.559 119.468C76.7367 124.692 70.1982 130.278 63.9716 136.201C60.9131 139.196 57.9197 142.256 55.1215 145.511C52.5185 148.571 50.371 152.022 47.5077 154.822C45.5555 156.775 41.9764 159.315 41.586 162.31C41.2606 164.719 45.2301 166.346 47.0522 167.453C48.2886 168.235 49.1346 168.169 49.2648 169.537C49.3949 171.23 47.6379 173.899 46.9872 175.527C45.4042 179.458 43.2318 183.124 40.5448 186.4C34.4278 193.888 27.0743 200.268 20.1114 206.975C13.6039 213.16 7.2266 219.28 2.47616 226.963C1.30482 228.851 -1.62354 232.693 1.17467 234.516C1.89049 234.972 4.10302 235.362 4.81884 234.842C5.72989 234.256 5.27437 233.344 6.31556 232.693C6.05526 234.711 15.3609 230.74 16.0767 230.349C18.029 229.372 19.786 228.2 21.8033 227.289C22.9746 226.768 23.1048 226.052 24.0158 225.466C24.4714 225.14 24.5364 225.596 25.1872 225.401C25.7729 225.205 27.1394 225.14 27.5949 224.619C27.5949 224.619 28.0505 223.252 27.66 223.513C29.2218 222.406 30.1979 224.099 29.2218 225.661C26.4236 230.284 22.8445 233.735 21.7382 239.269C21.3478 241.287 20.632 245.064 21.8684 246.887C21.9335 246.952 22.3239 246.757 22.389 246.822C22.605 247.122 22.8443 247.405 23.1048 247.668C24.2111 248.71 24.146 249.166 25.9681 249.166C27.0267 249.179 28.0808 249.025 29.0917 248.71C29.6773 248.449 29.9376 247.733 30.3281 247.538C30.7836 247.277 30.7185 247.147 31.109 247.017C31.174 247.017 31.3693 247.668 31.4994 247.668C32.3454 247.473 32.7358 247.017 33.4516 246.561C35.5991 245.389 37.6815 244.022 39.6988 242.85C41.7161 241.613 43.2779 239.92 45.2952 238.488C47.4427 236.99 49.1997 235.818 50.8916 233.735C52.063 232.302 53.4295 231.781 54.1454 231.065C55.0564 230.219 56.6182 226.963 58.1149 226.573C58.7656 226.377 59.3513 226.963 59.6767 226.768C60.0671 226.508 59.6116 225.987 59.8719 225.661C60.1509 225.194 60.5285 224.794 60.9782 224.489C61.8242 223.838 62.8653 223.643 63.5812 222.731C64.3621 221.755 64.4922 220.648 65.4683 219.736C67.811 217.522 69.8934 215.178 72.3662 213.095C71.3901 218.434 70.4791 223.708 71.1949 229.112C71.9107 234.321 74.1232 236.73 78.4832 239.334C79.4271 240.026 80.4285 240.636 81.4767 241.157C82.1274 241.418 83.0384 241.287 83.494 241.418C85.0558 242.069 84.5352 243.306 84.7304 244.803C85.0558 247.017 87.1381 248.775 88.4396 250.533C89.5459 252.03 91.5632 255.351 93.4504 255.872C95.1423 256.328 96.7041 254.374 98.1357 253.528C100.305 252.334 102.544 251.268 104.838 250.338C109.198 248.319 113.428 245.91 117.723 243.762C119.675 242.785 121.693 242.394 123.775 241.743C126.313 240.962 128.395 239.529 130.803 238.553C135.163 236.795 139.263 234.646 143.558 232.758C152.473 228.917 162.169 226.247 170.108 220.387C173.687 217.783 178.308 217.457 181.822 214.918C185.531 212.249 183.253 208.212 181.691 204.891C177.397 195.971 174.794 186.661 168.872 178.587C165.813 174.355 162.95 169.992 160.282 165.5C157.874 161.528 157.939 157.036 157.354 152.543C156.963 149.548 156.573 146.553 156.117 143.558C155.792 141.67 154.816 139.261 155.987 137.568C157.289 135.745 160.347 134.898 162.299 133.987C164.664 132.685 167.097 131.511 169.588 130.471C175.382 128.21 181.344 126.403 187.418 125.067C189.24 124.611 196.919 121.616 198.351 123.374C196.528 124.546 196.008 126.76 195.227 128.648C194.056 131.448 192.754 134.117 191.908 137.047C190.086 143.102 188.589 149.223 187.093 155.343C185.596 161.463 183.904 167.583 183.448 173.834C183.188 177.024 183.383 180.215 183.383 183.47C183.383 186.921 182.668 190.242 182.798 193.692C182.863 195.971 183.058 198.706 184.425 200.659C185.661 202.482 187.743 202.677 189.565 203.654C191.973 204.956 192.949 205.477 192.949 208.212C192.949 211.467 192.754 214.593 193.08 217.848C194.121 229.047 197.895 242.394 205.444 251.054C205.964 251.64 220.541 270.066 222.168 267.331C223.274 268.633 224.966 269.154 226.333 270.261C228.48 272.084 230.628 273.517 232.385 275.73C235.638 279.832 238.371 284.585 239.217 289.794C239.933 294.287 239.478 299.626 236.94 303.532C234.402 307.439 229.001 309.978 224.901 311.931C219.5 314.471 214.099 314.731 208.242 314.08C205.379 313.754 202.515 313.299 199.652 312.843C198.481 312.647 197.049 312.647 195.943 312.192C194.706 311.736 194.316 311.15 193.145 311.15C192.363 311.192 191.58 311.171 190.802 311.085C189.631 310.824 188.329 310.369 187.158 310.108C185.915 309.767 184.714 309.286 183.579 308.676C182.472 308.09 181.236 308.025 180.13 307.439C178.308 306.527 177.722 304.965 175.184 305.811C172.516 306.722 173.102 309.001 171.41 310.564C169.913 311.931 168.026 310.694 166.594 309.848C164.392 308.648 162.109 307.604 159.761 306.722C157.237 305.711 154.651 304.862 152.017 304.183C149.154 303.402 145.966 303.272 143.232 302.165C140.825 301.188 139.783 299.365 138.026 297.607C137.106 296.734 136.006 296.071 134.803 295.667C133.601 295.262 132.325 295.124 131.063 295.263C126.378 295.589 123.189 300.602 120.717 304.118C114.005 313.771 106.015 322.466 96.9644 329.967C92.5393 333.678 87.5937 336.803 83.2988 340.579C81.4767 342.207 80.1752 343.705 78.0928 344.877C75.2946 346.439 72.7567 348.458 70.0886 350.216C59.6116 357.182 51.9328 367.274 54.8612 380.492C56.1627 386.417 58.7656 390.649 63.6462 394.23C65.8588 395.857 67.8761 397.225 70.6743 397.095C73.3423 397.029 75.685 396.899 74.1232 393.774C76.0755 394.36 77.7674 395.923 79.9149 396.704C82.6207 397.627 85.4515 398.132 88.3095 398.201C92.5393 398.266 97.5501 396.053 101.259 395.076C102.301 394.816 104.318 394.36 105.489 393.383C106.4 392.602 106.205 391.69 107.637 391.3C109.524 390.844 110.24 391.365 111.997 390.258C114.6 388.63 117.398 387.654 120.066 386.156C123.71 384.138 127.159 381.794 130.738 379.71C131.194 381.012 133.992 388.826 135.749 385.114C137.246 381.859 132.365 378.994 135.358 375.673C138.222 372.483 138.807 375.869 141.54 377.301C145.38 379.32 144.794 375.543 143.688 373.264C143.232 372.353 142.321 370.986 142.582 369.944C143.102 367.925 144.729 369.097 146.031 369.293C146.965 369.458 147.926 369.396 148.832 369.113C149.737 368.83 150.562 368.333 151.237 367.665C152.538 366.493 154.62 365.516 155.401 364.019C155.792 363.238 155.857 362.261 156.182 361.414C156.638 360.373 156.898 360.633 157.093 359.331C156.961 358.644 156.895 357.947 156.898 357.247L157.874 357.052C157.874 356.987 157.939 355.685 157.744 355.88C158.069 355.424 158.72 355.229 159.111 354.578C159.436 353.992 159.111 352.885 159.306 352.234C159.566 350.867 160.412 349.76 160.998 348.523C162.364 354.318 161.974 360.308 163.275 366.037C164.317 370.79 166.789 375.022 169.588 378.929C170.889 380.752 172.646 381.989 174.013 383.747C175.184 385.179 175.77 386.482 177.462 387.328C178.633 387.914 179.869 388.174 181.041 388.695C181.822 389.021 183.514 390.453 184.229 390.453C183.644 390.453 185.401 390.518 184.945 390.453C184.945 390.453 184.75 389.672 184.945 389.672C187.548 392.081 190.216 392.146 193.21 393.644C194.576 394.36 195.097 394.295 196.528 394.555C198.416 394.881 199.977 395.988 201.8 396.053C204.598 396.248 207.721 396.574 210.585 396.509C211.365 396.509 212.862 395.988 213.448 396.639C213.838 397.094 213.057 400.415 213.057 401.131C212.537 409.01 213.578 417.344 216.962 424.571C219.695 430.561 222.688 437.658 227.569 442.215C232.97 447.294 240.584 450.875 247.807 452.242C255.811 453.74 263.75 452.633 271.82 452.177C279.802 451.797 287.711 450.464 295.377 448.205C302.61 445.901 309.714 443.206 316.656 440.132C321.407 438.048 327.458 435.118 324.986 428.868C324.4 427.37 322.057 423.138 319.975 425.222C318.153 427.045 321.211 430.496 322.578 431.668C312.101 438.96 299.411 441.369 287.242 443.973C280.54 445.406 273.902 445.341 267.069 445.341C261.278 445.341 255.486 445.536 249.759 444.69C244.553 443.973 238.502 442.606 234.597 438.765C230.419 434.703 226.827 430.079 223.925 425.026C220.866 419.557 220.151 413.697 219.89 407.512C219.684 404.259 219.706 400.996 219.955 397.746C220.216 395.402 221.387 395.141 221.973 393.253C223.339 395.206 224.25 394.49 225.942 393.318C227.048 396.378 226.528 399.504 226.333 402.629C226.236 405.701 226.432 408.775 226.918 411.809C227.569 416.953 230.042 422.357 233.165 426.524C234.597 428.412 236.679 429.193 238.632 430.496C241.105 432.123 243.642 433.686 246.18 435.184C250.996 437.983 256.267 440.392 261.668 440.783C263.555 440.913 264.922 441.89 267.199 441.76C268.566 441.694 269.867 441.239 271.234 441.239C272.601 441.304 273.707 441.694 275.139 441.629C280.865 441.239 286.787 439.351 292.448 438.309C298.565 437.202 304.813 435.965 310.669 433.751C313.207 432.775 315.29 431.537 316.721 429.128C317.762 427.436 317.437 424.31 319.389 423.334C318.153 421.706 318.608 421.445 319.65 420.013C320.17 419.362 321.732 417.604 319.78 417.604C320.365 415 319.389 412.525 318.934 410.051C318.738 408.944 318.804 407.317 318.153 406.405C317.762 405.884 317.112 405.819 316.786 405.429C316.616 405.442 316.446 405.407 316.296 405.326C316.146 405.245 316.022 405.122 315.94 404.973C315.926 404.883 315.93 404.791 315.953 404.703C315.975 404.614 316.014 404.531 316.069 404.459C316.123 404.386 316.192 404.325 316.27 404.279C316.349 404.233 316.436 404.203 316.526 404.191C316.396 403.345 317.047 403.671 316.396 402.303C315.416 400.478 314.037 398.898 312.361 397.68C311.06 396.639 310.084 394.751 308.587 394.23C306.635 393.513 304.552 392.732 302.47 392.016C297.883 390.382 292.959 389.934 288.153 390.714C285.904 391.065 283.685 391.588 281.516 392.276C280.214 392.667 278.262 393.774 277.156 392.602C276.765 392.211 275.985 388.695 275.985 388.37C276.18 386.872 279.238 386.286 280.41 385.7C282.102 384.919 285.29 384.007 286.396 382.445C286.852 381.794 286.331 378.929 286.396 378.864C287.112 378.408 290.106 385.245 290.952 385.765C292.123 386.417 295.507 385.57 296.678 385.44C300.322 385.049 304.097 384.789 307.676 383.942C314.574 382.25 321.341 379.645 327.979 377.366C340.767 373.03 353.016 367.241 364.486 360.112C369.999 356.749 374.96 352.555 379.193 347.676C381.015 345.463 382.316 342.923 384.204 340.775C386.351 338.301 385.7 336.087 386.676 332.962C388.629 326.711 391.036 320.981 392.078 314.47C393.204 307.696 393.618 300.822 393.314 293.961C392.728 280.418 392.078 267.657 386.091 255.221C380.624 243.827 373.596 232.693 365.202 223.317C363.304 221.091 361.165 219.082 358.824 217.327C356.221 215.504 353.423 214.072 351.081 211.858C349.193 210.1 347.567 208.016 345.549 206.324C343.076 204.24 340.148 203.329 337.285 202.026C334.552 200.789 332.014 199.096 329.215 197.924C327.508 197.181 325.746 196.572 323.944 196.101C322.643 195.711 320.886 195.711 319.65 195.06C317.762 193.953 315.745 190.828 314.509 189.004C312.687 186.4 311.71 183.34 310.799 180.345C309.758 176.634 308.782 172.922 307.741 169.276C307.416 168.039 306.049 163.612 308.717 164.654C309.498 164.979 310.214 166.346 310.799 166.932C311.955 168.071 313.271 169.036 314.704 169.797C316.981 171.034 319.324 172.532 321.472 173.378C323.359 174.159 325.311 175.592 327.068 176.634C327.328 176.764 327.393 177.35 327.784 177.48C328.63 177.871 329.15 176.829 329.931 177.089C330.973 177.415 331.168 178.392 331.753 179.238C332.599 180.41 333.055 180.475 334.356 181.061C335.788 181.712 336.829 183.014 338.261 183.665C339.953 184.447 343.727 183.861 343.987 186.53C346.655 184.772 349.974 188.158 351.601 189.916C353.293 187.377 356.221 190.372 358.759 189.525C357.393 191.479 357.588 191.283 359.801 191.479C361.688 191.674 362.794 192.911 364.616 193.627C365.918 194.148 367.284 194.929 368.586 195.32C369.822 195.646 370.798 194.929 371.839 195.125C372.62 195.255 373.271 195.906 373.987 196.101C374.898 196.297 376.199 196.622 377.175 196.818C378.412 197.143 379.648 196.818 380.885 197.078C382.316 197.338 383.553 198.185 385.049 198.51C386.676 198.836 388.368 198.641 389.995 199.031C391.492 199.422 392.403 199.813 393.9 199.813C396.177 199.813 398.78 200.138 400.993 199.878C402.229 199.748 402.88 199.096 404.246 199.748C405.158 200.138 405.678 201.375 406.914 200.789C405.613 200.268 406.784 198.25 408.216 199.813C408.541 198.966 408.802 198.445 409.713 198.185C409.648 199.031 409.517 199.878 410.624 200.073C410.689 199.487 410.819 198.901 410.884 198.25C413.292 200.073 413.812 200.724 416.09 198.51C416.025 199.227 415.7 200.073 416.48 200.594C416.936 199.813 417.392 199.031 417.912 198.25C418.693 200.789 422.532 199.878 424.354 199.487C425.07 199.292 427.023 199.031 427.478 198.445C427.803 198.055 427.738 197.729 427.869 197.469C427.999 197.273 426.762 196.687 427.803 196.362C428.584 196.101 429.17 197.794 430.081 197.729C430.862 197.664 431.252 196.297 431.838 196.036C431.903 196.036 432.294 196.622 432.554 196.492C433.009 196.297 433.205 195.776 433.725 195.581C434.766 195.19 436.068 195.255 437.239 194.799C438.671 194.213 440.168 193.888 441.664 193.432C443.551 192.781 444.397 191.544 445.894 190.567C446.22 190.307 446.61 190.437 447 190.307C447.456 190.111 447.977 189.525 448.562 189.33C450.278 188.673 451.933 187.867 453.508 186.921C455.005 185.944 456.957 185.228 458.323 184.056C459.43 183.08 460.015 181.712 461.122 180.736C462.748 179.303 466.848 177.545 466.197 174.811C468.865 175.201 469.516 173.508 470.492 171.555C471.403 169.732 473.356 169.211 474.592 167.518C475.113 166.802 476.024 165.825 476.284 164.979C476.479 164.523 476.024 164.002 476.154 163.677C476.74 162.179 478.822 161.463 479.863 160.096C481.1 158.338 481.555 156.124 482.596 154.301C482.791 153.976 483.312 153.715 483.507 153.39C483.637 153.129 483.377 152.543 483.507 152.283C483.898 151.697 484.418 151.501 484.809 150.981C485.72 149.743 485.85 147.92 486.696 146.488C486.891 146.162 487.607 145.121 487.672 144.925C487.849 144.287 487.958 143.633 487.997 142.972C488.062 142.712 488.518 141.344 488.583 141.149C488.904 140.674 489.252 140.218 489.624 139.782C490.775 137.846 491.424 135.652 491.511 133.401C491.576 132.555 491.251 131.643 491.577 130.797C491.837 130.08 492.683 129.625 493.008 128.908C493.854 126.955 493.724 124.155 493.919 122.072C494.179 119.793 494.895 117.514 495.091 115.235C495.221 114.129 494.7 113.152 494.7 112.11C494.765 110.938 495.351 110.678 495.611 109.701C495.871 108.594 495.481 107.292 495.741 106.055C495.936 104.948 496.262 103.906 496.392 102.734C496.652 99.7393 496.262 96.6141 496.132 93.619C495.979 92.448 496.023 91.2596 496.262 90.1031C496.522 89.1916 497.498 88.1498 497.498 87.1732C497.368 84.1131 494.96 86.7825 493.529 86.5221C491.902 86.2617 491.577 82.6155 491.121 81.1831C490.08 77.7323 488.974 74.3466 487.932 70.8958C493.008 69.5936 498.214 69.9843 503.355 69.5936C508.394 69.1643 513.382 68.2706 518.257 66.9242C522.422 65.8824 526.912 65.2964 530.686 63.0176C533.615 60.6736 536.218 56.5066 534.396 52.8605V52.8605Z" fill="#434343"/>
<path fill-rule="evenodd" clip-rule="evenodd" d="M44.4493 119.077C46.4666 118.035 45.946 116.603 47.4427 115.235C55.7072 107.683 65.4683 101.107 75.2295 95.6374C85.5113 89.9078 97.0295 87.4987 107.572 82.4202C109.003 81.7691 110.825 80.6622 110.305 78.7741C109.719 76.5603 107.572 77.6021 106.075 78.123C101.064 79.8809 95.728 80.532 90.5871 82.0946C79.7197 85.3501 69.503 91.0146 60.3274 97.6558C54.9137 101.485 49.8603 105.8 45.2301 110.548C43.5382 112.305 41.3257 114.389 40.8702 116.863C40.2845 119.923 42.1066 120.249 44.4493 119.077" fill="#434343"/>
<path fill-rule="evenodd" clip-rule="evenodd" d="M75.8803 316.293C75.8152 313.494 72.8218 314.535 71.26 314.926C64.9477 316.424 59.2863 317.596 53.7549 321.111C43.4081 327.622 35.534 337.519 30.4582 348.457C29.8075 349.89 27.0743 354.513 29.2218 355.88C30.6534 356.791 31.5645 354.122 32.0851 353.145C34.8182 348.132 38.4624 343.77 42.1716 339.407C50.371 329.771 60.1973 323.651 71.9758 319.223C73.3424 318.702 75.8803 318.247 75.8803 316.293" fill="#434343"/>
<path fill-rule="evenodd" clip-rule="evenodd" d="M424.615 248.189C422.402 243.827 418.888 238.358 414.008 236.534C411.275 235.558 409.713 237.186 410.494 239.985C411.144 242.199 413.292 243.241 414.854 244.738C418.953 248.515 421.491 254.114 422.988 259.323C424.55 264.857 424.875 270.782 424.875 276.512C424.875 279.507 424.029 282.111 423.639 285.041C423.443 286.213 423.183 288.752 424.485 289.468C427.413 291.031 428.78 282.762 429.04 281.134C430.07 275.431 430.092 269.591 429.105 263.88C428.259 258.476 427.088 253.072 424.615 248.189" fill="#434343"/>
<path fill-rule="evenodd" clip-rule="evenodd" d="M416.285 37.039C417.457 35.4112 416.611 33.1975 416.936 31.3744C417.326 29.4211 418.433 27.533 419.344 25.8401C421.378 22.1797 423.615 18.6365 426.046 15.2273C428.519 11.7114 431.578 8.71631 434.181 5.39573C435.092 4.28887 436.654 2.66113 436.263 1.29383C435.612 -0.919893 434.246 0.186968 433.205 1.0985C427.215 6.29681 421.999 12.3263 417.717 19.0036C415.7 22.1289 413.812 25.5146 413.162 29.2258C412.803 31.1485 412.87 33.1264 413.357 35.0206C413.747 36.1274 414.854 38.9271 416.285 37.039Z" fill="#434343"/>
<path fill-rule="evenodd" clip-rule="evenodd" d="M48.4839 307.829C51.4773 307.569 54.4707 307.439 57.4641 307.308C59.6767 307.178 62.1495 307.308 64.2319 306.267C66.2492 305.16 65.4032 303.597 63.7113 303.337C62.7352 303.207 61.1083 303.858 60.0021 303.923C58.8958 303.988 57.7244 303.923 56.5531 303.923C53.2343 303.923 49.6552 303.923 46.4665 305.03C45.4254 305.42 43.8636 305.941 43.408 307.178C42.497 309.717 47.1173 307.959 48.4839 307.829" fill="#434343"/>
<path fill-rule="evenodd" clip-rule="evenodd" d="M74.7089 73.5002C79.0689 72.9793 83.2337 71.6771 87.5286 70.8307C91.6283 70.0494 92.279 66.859 87.4635 66.9892C85.8366 66.9892 70.2838 69.9843 74.7089 73.5002Z" fill="#434343"/>
<path fill-rule="evenodd" clip-rule="evenodd" d="M433.53 234.386C430.602 233.67 432.098 236.925 433.009 237.902C434.701 239.725 435.612 241.157 436.068 243.632C436.328 245.064 436.068 248.319 437.304 249.426C438.476 250.533 438.606 249.817 438.801 248.45C439.452 244.673 438.215 235.558 433.53 234.386" fill="#434343"/>
<path fill-rule="evenodd" clip-rule="evenodd" d="M401.513 29.4864C402.359 28.6399 401.448 24.7985 401.578 23.6916C401.728 22.4068 402.012 21.1411 402.424 19.9153C402.62 19.3293 403.596 17.1155 403.075 16.4645C402.359 15.5529 401.123 17.1155 400.732 17.7015C399.496 19.7199 399.171 23.1056 399.366 25.3845C399.431 26.2309 399.887 31.1792 401.513 29.4864" fill="#434343"/>
<path fill-rule="evenodd" clip-rule="evenodd" d="M229.717 350.932C229.847 348.783 231.929 347.286 231.929 345.007C231.929 342.402 230.172 341.296 228.025 342.988C226.723 344.03 225.682 346.439 223.925 346.765C220.411 347.416 218.979 341.035 215.53 341.816C212.537 342.468 214.099 347.611 215.01 349.369C215.986 351.192 217.743 352.494 217.157 354.773C216.506 357.508 214.164 359.07 215.075 362.131C216.767 367.86 220.411 362.521 222.558 360.698C224.12 359.396 225.031 359.656 226.593 360.894C228.423 362.563 230.511 363.926 232.775 364.93C234.988 365.972 237.135 366.688 237.2 363.237C237.265 360.503 235.183 357.833 233.426 356.01C231.994 354.513 229.586 353.341 229.717 350.932" fill="#434343"/>
<path fill-rule="evenodd" clip-rule="evenodd" d="M190.802 342.337C188.199 339.538 184.945 346.634 182.798 347.416C179.414 348.653 178.633 341.881 175.509 342.077C173.102 342.272 173.232 345.723 173.817 347.351C174.403 349.043 176.095 350.476 176.355 352.234C176.811 354.903 171.67 360.307 175.249 362.912C178.308 365.126 179.414 357.638 183.188 360.698C185.075 362.196 190.281 367.795 192.819 364.995C195.878 361.675 188.589 356.075 187.288 353.601C185.596 350.215 194.641 346.439 190.802 342.337" fill="#434343"/>
<path fill-rule="evenodd" clip-rule="evenodd" d="M253.729 246.106C253.013 245.78 251.777 246.301 250.996 246.301C250.15 246.236 249.239 245.845 248.393 245.715C246.506 245.389 243.252 245.845 241.951 244.217C240.584 242.524 241.625 239.139 241.039 237.12C240.714 236.014 240.389 234.646 238.892 235.102C237.135 235.688 237.2 238.878 237.005 240.311C236.679 242.394 236.419 243.957 234.337 244.673C232.775 245.194 231.148 244.934 229.912 246.236C229.001 247.147 228.35 248.84 229.066 250.077C230.172 251.9 232.45 250.989 234.076 251.51C236.549 252.421 235.964 256.393 236.484 258.737C236.81 260.234 237.525 264.401 239.673 264.336C242.601 264.271 241.43 258.411 241.3 256.718C241.105 254.96 240.779 253.528 242.666 253.007C244.293 252.551 246.571 253.398 248.263 253.398C250.41 253.398 252.883 252.877 254.185 250.924C254.835 249.687 255.356 246.757 253.729 246.106" fill="#434343"/>
<path fill-rule="evenodd" clip-rule="evenodd" d="M360.451 317.921C365.072 318.312 362.273 324.041 365.332 326.255C368.26 328.404 368.651 322.479 368.651 320.786C368.651 316.684 373.661 318.182 376.72 317.53C379.323 316.944 382.186 314.275 379.063 311.931C376.85 310.238 373.076 311.02 370.473 310.629C366.959 310.043 368 307.699 367.935 304.964C367.935 303.988 367.544 300.407 366.308 300.146C363.965 299.625 363.835 306.267 363.64 307.504C362.989 312.843 359.345 309.587 356.417 312.257C352.577 315.707 357.718 317.726 360.451 317.921" fill="#434343"/>
<path fill-rule="evenodd" clip-rule="evenodd" d="M140.89 218.629C133.667 224.554 125.467 223.708 118.895 217.327C116.096 214.658 114.404 211.923 114.665 207.951C114.86 204.436 115.901 200.464 118.764 198.12C121.172 196.102 125.662 195.385 128.656 195.125C132.886 194.734 136.66 197.013 139.653 199.943C142.191 202.482 145.185 205.673 145.575 209.384C145.966 213.29 143.753 216.285 140.89 218.629V218.629ZM141.996 195.125C135.554 188.874 124.035 189.525 117.398 195.19C109.914 201.571 108.613 213.551 115.836 220.583C123.45 227.94 133.471 227.159 141.475 221.038C143.533 219.533 145.243 217.603 146.489 215.379C147.735 213.155 148.489 210.688 148.699 208.147C149.219 203.003 145.51 198.511 141.996 195.125" fill="#434343"/>
<path fill-rule="evenodd" clip-rule="evenodd" d="M267.069 87.8242C266.354 90.1682 266.874 92.7074 267.004 95.1165C264.922 93.8143 263.686 91.5355 261.473 90.4937C260.432 93.4236 265.703 101.758 269.022 99.0231C272.015 96.4838 269.737 89.452 267.069 87.8242Z" fill="#434343"/>
<path fill-rule="evenodd" clip-rule="evenodd" d="M277.872 102.214C276.245 102.799 274.748 102.669 273.121 102.995C272.08 103.19 271.95 102.604 271.755 103.841C271.429 106.446 275.659 107.422 277.546 107.422C279.824 107.357 282.362 105.86 282.167 103.32C281.906 100.586 279.629 101.562 277.872 102.214" fill="#434343"/>
<path fill-rule="evenodd" clip-rule="evenodd" d="M279.173 91.2752C278.457 90.6241 276.7 88.0848 275.464 88.4754C274.488 88.801 275.204 89.973 275.464 90.559C276.505 92.7076 278.588 94.5306 280.214 96.2886C278.978 96.7443 276.635 97.0048 277.286 98.893C277.872 100.651 280.475 100.39 281.711 99.6092C285.941 97.135 281.321 93.2284 279.173 91.2752" fill="#434343"/>
<path fill-rule="evenodd" clip-rule="evenodd" d="M283.468 87.1732C283.728 88.3451 283.924 89.5171 283.273 90.624L279.694 84.2432C276.83 85.4152 281.841 94.5957 284.77 93.5539C286.787 92.8377 285.811 88.5405 285.485 87.1732C285.29 86.457 284.9 84.113 283.924 83.9177C281.971 83.4619 283.273 86.3268 283.468 87.1732" fill="#434343"/>
<path fill-rule="evenodd" clip-rule="evenodd" d="M137.115 215.569C135.489 214.332 132.755 217.197 130.998 217.197C127.484 217.197 129.372 213.095 127.224 211.728C126.053 211.012 121.302 211.728 122.018 208.863C122.474 207.105 124.231 208.407 125.207 207.3C126.443 205.998 124.686 204.891 123.58 204.37C124.035 203.719 126.834 203.459 127.484 203.915C128.656 204.696 128.591 206.975 129.697 208.147C131.129 206.324 130.348 204.045 131.844 202.417C132.43 201.766 134.122 201.31 133.471 200.203C133.081 199.552 131.389 199.748 130.803 199.227C130.283 198.771 130.348 197.273 129.502 197.208C128.135 197.013 128.2 199.031 127.81 199.617C126.573 201.375 121.302 200.789 123.515 204.37C122.018 203.654 118.049 203.068 118.829 205.607C119.025 206.259 119.806 206.649 120.001 207.431C120.196 208.082 119.806 208.993 119.741 209.644C119.675 210.881 119.61 212.314 120.456 213.29C121.693 214.658 123.385 213.681 124.686 214.267C126.508 215.048 125.858 216.741 126.834 218.239C128.07 220.127 130.022 219.541 131.844 218.955C133.992 218.239 134.317 218.174 135.879 219.997C136.66 219.02 138.612 216.676 137.115 215.569" fill="#434343"/>
<path fill-rule="evenodd" clip-rule="evenodd" d="M139.979 208.147C138.287 207.821 138.937 202.743 136.855 204.956C136.074 205.803 136.855 207.43 136.009 208.277C135.423 208.863 134.708 208.537 134.122 208.928C133.601 209.254 133.471 209.97 133.146 210.491C134.11 210.985 135.224 211.101 136.269 210.816C136.269 211.728 135.684 214.332 137.18 214.137C138.612 213.941 138.222 211.337 138.938 210.491C139.653 209.644 142.582 210.035 142.907 208.863C143.167 207.43 140.76 208.277 139.979 208.147" fill="#434343"/>
</g>
<defs>
<clipPath id="clip0_3_462">
<rect width="535" height="453" fill="white"/>
</clipPath>
</defs>
</svg>
