<svg width="300" height="300" viewBox="0 0 300 300" fill="none" xmlns="http://www.w3.org/2000/svg">
<path d="M132.759 242.819C121.169 255.203 101.109 254.078 90.2376 241.047C75.4094 223.272 69.7313 213.791 90.5563 174.066C105.372 145.8 105.994 121.45 126.547 118.937C212.634 108.412 257.088 212.625 189.672 220.866C166.744 223.669 156.878 209.284 134.716 240.462C134.163 241.237 133.509 242.028 132.759 242.819Z" fill="#AEE1D3"/>
<path fill-rule="evenodd" clip-rule="evenodd" d="M133.647 63.6813C127.191 52.0938 116.631 44.2094 104.778 40.875C98.6969 39.1625 92.275 38.6594 85.9062 39.4438C79.7437 40.2 73.6312 42.1875 67.9031 45.4438C67.2875 45.7969 66.6375 46.1906 65.9969 46.6C65.3625 47.0031 64.7344 47.4188 64.1531 47.8125C52.7031 55.6094 46.4312 63.5594 43.2562 71.0812C38.0562 83.3906 41.1156 94.5625 43.4562 102.134C43.5781 102.525 43.9406 103.481 44.4281 104.716C45.6281 107.747 47.5906 112.522 48.4531 114.688C48.6844 115.263 48.9 116.6 49.1562 118.4C49.7219 122.438 50.3906 128.7 51.3312 134.278C51.7 136.459 52.0469 139.753 53.175 141.972C53.8344 143.272 54.7594 144.219 56.0156 144.55C56.9937 144.806 57.7594 144.778 58.6844 144.45C59.4812 144.169 60.4187 143.634 61.8062 142.825C62.6219 142.35 63.2062 141.959 63.6719 141.706C63.9812 141.541 64.175 141.4 64.4 141.509C64.8375 141.719 65.2719 142.341 66.0687 143.45C67.3562 145.238 69.3937 148.213 73.1437 152.841C78.3469 159.262 81.3812 162.453 84.2125 163.169C85.7344 163.556 87.2156 163.281 88.9312 162.391C91.1187 161.256 93.7281 159.091 97.4312 156.103C98.2062 155.478 98.8312 155.172 99.4125 155.194C100.053 155.219 100.603 155.647 101.212 156.334C102.812 158.15 104.644 161.713 108.162 166.053C108.297 166.222 108.544 166.25 108.713 166.116C108.881 165.981 108.909 165.734 108.775 165.566C105.291 161.169 103.491 157.572 101.903 155.734C101.097 154.797 100.316 154.294 99.4531 154.25C98.6937 154.213 97.8438 154.534 96.8187 155.344C93.1625 158.231 90.5906 160.334 88.4344 161.425C86.9969 162.15 85.7625 162.406 84.4969 162.072C81.8094 161.363 79.0437 158.2 74.1531 152.034C69.4906 146.156 67.525 142.934 66.3344 141.419C65.825 140.772 65.4156 140.4 65.0375 140.213C64.5125 139.953 64.0094 139.963 63.3687 140.234C62.8281 140.466 62.1344 140.934 61.0656 141.544C59.7812 142.275 58.9187 142.766 58.1812 143.019C57.5687 143.228 57.0594 143.241 56.4156 143.062C55.2906 142.756 54.6594 141.65 54.1937 140.338C53.475 138.322 53.2375 135.781 52.9562 134.016C52.0687 128.441 51.4656 122.191 50.9344 118.159C50.6687 116.15 50.4062 114.662 50.1562 114.019C49.4187 112.125 47.8656 108.247 46.7 105.269C46.0125 103.509 45.4594 102.069 45.3094 101.569C43.1281 94.3281 40.2219 83.6531 45.2375 71.9188C48.3219 64.7062 54.3812 57.1062 65.3969 49.6344L68.9937 47.3313C74.4437 44.1531 80.275 42.2125 86.1625 41.3969C92.2844 40.5469 98.4656 40.9219 104.366 42.4156C116.053 45.3781 126.622 52.7375 133.306 63.875C133.363 63.9688 133.481 64.0031 133.575 63.9469C133.669 63.8937 133.703 63.775 133.647 63.6813ZM143.416 99.6844C141.819 96.4219 140.594 92.95 139.781 89.3219C138.994 85.8219 138.591 82.1781 138.631 78.4375C138.738 65.5031 144.103 53.8562 152.644 45.425C161.147 37.0344 172.819 31.8188 185.722 31.8563C186.4 31.8563 187.128 31.8781 187.856 31.9094C188.587 31.9438 189.319 31.9906 190.003 32.0406C203.331 33.0125 212.425 36.5781 218.728 41.3031C228.988 48.9969 231.819 59.7406 233.553 67.1344C233.672 67.6437 233.916 69.1719 234.2 71.0469C234.678 74.2062 235.269 78.3406 235.578 80.35C235.681 81.0281 236.194 82.4344 236.966 84.2938C238.519 88.0531 241.113 93.775 243.131 99.05C243.772 100.725 244.834 103.05 245.222 105.162C245.478 106.559 245.469 107.859 244.634 108.7C244.15 109.188 243.691 109.438 243.038 109.562C242.269 109.713 241.272 109.713 239.791 109.716C238.562 109.722 237.728 109.659 237.144 109.728C236.475 109.809 236.047 110.041 235.731 110.513C235.5 110.856 235.334 111.378 235.219 112.178C234.944 114.088 234.847 117.856 233.741 125.272C232.578 133.05 231.756 137.166 229.781 139.119C228.85 140.037 227.656 140.428 226.044 140.516C223.634 140.641 220.356 140.097 215.741 139.409C214.441 139.219 213.534 139.366 212.891 139.778C212.156 140.25 211.722 141.081 211.488 142.309C211.028 144.694 211.266 148.706 210.438 154.25C210.4 154.5 210.575 154.734 210.825 154.775C211.075 154.812 211.309 154.641 211.35 154.388C212.209 148.872 212 144.872 212.472 142.5C212.65 141.613 212.903 140.975 213.438 140.638C213.925 140.331 214.613 140.284 215.584 140.438C220.291 141.169 223.637 141.734 226.1 141.619C228.034 141.531 229.456 141.025 230.578 139.928C232.666 137.891 233.688 133.616 234.959 125.456C235.875 119.578 236.141 115.984 236.356 113.791C236.491 112.419 236.556 111.656 236.834 111.25C236.984 111.028 237.234 111.041 237.609 111.028C238.141 111.016 238.844 111.059 239.791 111.062C241.388 111.069 242.466 111.062 243.294 110.906C244.241 110.728 244.906 110.378 245.613 109.678C246.519 108.781 246.834 107.519 246.753 106.088C246.616 103.613 245.263 100.6 244.488 98.5375C242.497 93.2375 239.928 87.4906 238.391 83.7125C237.7 82.0125 237.216 80.7344 237.125 80.1188C236.828 78.1094 236.259 73.9719 235.797 70.8094C235.513 68.8719 235.266 67.2938 235.144 66.7656C233.375 59.075 230.428 47.925 219.794 39.8906C213.297 34.9812 203.916 31.2312 190.141 30.1906C189.441 30.1375 188.691 30.0906 187.941 30.0563C187.184 30.0219 186.428 30 185.722 30C172.334 30.0375 160.203 35.4594 151.478 44.2625C142.791 53.0312 137.491 65.1344 137.603 78.4375C137.644 82.25 138.125 85.9562 139.009 89.5063C139.925 93.1594 141.266 96.6438 142.969 99.9094C143.031 100.031 143.181 100.081 143.303 100.019C143.428 99.9563 143.478 99.8063 143.416 99.6844ZM160.137 136.153C160.612 134.903 161.103 133.537 161.434 132.078C161.753 130.688 161.928 129.225 161.897 127.756C161.875 126.775 161.747 125.794 161.5 124.828C161.259 123.881 160.887 122.956 160.394 122.056C159.709 120.85 158.066 118.716 156.228 116.513C153.253 112.941 149.803 109.172 149.469 108.8C149.075 108.359 148.688 107.912 148.306 107.456C147.928 107 147.556 106.537 147.191 106.066C147.141 105.994 147.041 105.978 146.972 106.031C146.9 106.081 146.884 106.181 146.934 106.25C147.269 106.747 147.612 107.238 147.966 107.722C148.319 108.206 148.681 108.681 149.053 109.15C149.4 109.591 153.397 114.55 156.347 118.578C157.588 120.275 158.644 121.794 159.128 122.738C159.55 123.537 159.844 124.366 160.062 125.2C160.294 126.069 160.431 126.947 160.506 127.828C160.622 129.206 160.572 130.581 160.441 131.919C160.3 133.381 160.094 134.781 159.831 136.066C159.809 136.15 159.856 136.238 159.941 136.263C160.025 136.287 160.112 136.238 160.137 136.153ZM98.8438 102.119C98.4562 102.194 98.0687 102.253 97.6844 102.287C96.1844 102.422 94.7594 102.2 93.7156 101.513C93.625 101.453 93.5156 101.384 93.3875 101.309C92.7906 103.197 91.7562 104.953 89.9937 106.403C89.7656 106.591 89.2875 106.969 88.6219 107.359C89.0375 107.672 89.3937 107.972 89.6937 108.259C90.4906 109.019 90.9312 109.706 91.1187 110.287C91.4937 111.444 91.0094 112.291 90.1375 112.763C89.3219 113.203 88.1219 113.281 87.0406 112.894C86.4156 112.669 85.7719 112.328 85.1219 111.897C83.725 114.375 81.3344 116.238 77.5719 117.006C75.25 117.481 73.5344 117.397 72.0187 116.713C70.9719 116.238 70.0125 115.469 69.0125 114.366C67.4844 115.191 65.9687 115.825 64.5844 116.188C61.6344 116.966 59.2594 116.503 58.3375 114.375C58.0844 113.784 57.9531 112.716 57.9844 111.353C58.0281 109.509 58.3531 107.106 58.9687 104.681C58.2937 103.206 57.9437 101.366 57.9312 99.5406V99.3938C57.7094 99.4219 57.4937 99.4437 57.2812 99.4625C54.1844 99.7188 52.075 98.8156 51.5844 96.2438C51.3937 95.2469 50.8625 91.7969 51.3719 89.6875C51.575 88.8531 51.9531 88.2156 52.4969 87.9C53.0531 87.5812 53.8219 87.55 54.8531 88.1063C57.7844 89.6906 60.4094 90.5812 62.7719 90.9906C63.3 90.625 63.7437 90.2781 64.1125 89.95C62.275 89.075 60.4594 88.125 58.8625 87.0469C56.1344 85.2031 54.0469 82.9813 53.4594 80.1656C53.0687 78.2781 53.3406 76.1125 54.5844 73.6063C55.1969 72.3688 56.1187 70.7469 57.2812 69.4906C58.1 68.6094 59.0406 67.9094 60.0719 67.6156C61.475 67.2156 63.1062 67.65 64.7281 68.525C65.725 67.5781 66.8937 66.8969 67.5219 66.5375C69.3062 65.5094 70.6844 65.4 71.7844 65.8063C72.8156 66.1875 73.625 67.0406 74.3094 68.1313L74.5 67.0406C74.5344 66.8344 74.5719 66.6281 74.6062 66.4219L74.6719 66.0563C72.9875 65.0625 71.4687 64.3219 70.4125 63.6156C69.0062 62.675 68.3687 61.7281 68.7625 60.5281C69.1 59.4969 69.8844 58.7938 71.0187 58.3813C72.0406 58.0094 73.3687 57.875 74.8844 57.9281C75.3531 57.9438 75.8375 57.9781 76.3406 58.0281C76.3875 57.8438 76.4375 57.6656 76.4875 57.4844C77.2031 54.9344 78.075 53.1938 79.0187 52.0875C80.0437 50.8844 81.1687 50.4 82.2937 50.4156C84.2844 50.4438 86.3531 52.1344 87.975 54.4906C88.2812 54.9344 88.5719 55.4 88.8437 55.8813C89.3875 54.7531 90.0312 53.7969 90.7094 53.1125C92.0625 51.7531 93.5625 51.4188 94.8156 52.525C96.1062 53.6656 97.3438 54.5094 98.4844 55.1469C99.1031 53.6156 100.906 53.125 103.328 53.4156C107.544 53.925 113.688 56.7625 117.406 59.1344C119.072 60.1969 120.253 61.1875 120.631 61.8375C120.919 62.3375 120.988 62.9531 120.834 63.6437C120.641 64.5344 120.066 65.5781 119.197 66.6562C118.7 67.2719 118.109 67.9031 117.441 68.525C119.144 70.0219 120.975 72.3219 121.109 74.5375C121.244 76.7781 120.875 78.1813 120.231 79.0938C119.847 79.6406 119.359 80.025 118.8 80.3C119.625 81.4813 120.259 82.6188 120.628 83.6969C121.416 85.9844 121.075 88.0219 119.016 89.6813C117.666 90.7688 116.403 91.3312 115.206 91.525C115.094 91.5438 114.981 91.5594 114.872 91.5719C113.928 92.9844 112.678 94.2688 111.309 95.3469C111.703 97.05 111.287 98.4938 110.547 99.5062C109.725 100.625 108.147 102.181 105.828 102.628C104.825 102.822 103.681 102.809 102.4 102.456C105.016 104.506 107.616 108.631 112.406 110.816C117.797 113.281 123.006 113.162 127.938 111.681C131.472 110.619 134.859 108.847 138.084 106.819C140.253 105.459 142.347 103.981 144.353 102.509C147.728 100.034 150.859 97.575 153.672 95.7031C156.362 93.9062 158.781 92.6562 160.853 92.3781C160.903 92.3719 160.95 92.3688 160.997 92.3719C163.691 92.0625 165.225 93.625 166.675 95.5656C168.081 97.45 169.375 99.75 172.025 100.412C173.294 100.728 174.847 100.325 176.309 99.7156C178.625 98.7562 180.319 97.5813 181.234 96.8125C181.234 96.8125 181.247 96.8 181.275 96.7781C181.928 96.7406 182.584 96.6844 183.247 96.6125C182.516 97.3781 182.044 97.7719 182.044 97.7719C181.494 98.2312 179.262 99.85 176.794 100.875C175.066 101.591 173.222 102.003 171.719 101.628C168.762 100.891 167.238 98.4188 165.666 96.3156C164.334 94.5312 162.959 93.0375 160.178 93.8125C160.141 93.8219 160.106 93.8312 160.072 93.8406C158.403 94.35 156.544 95.4688 154.494 96.9031C151.744 98.8313 148.684 101.353 145.359 103.859C143.337 105.381 141.216 106.903 139.006 108.284C135.647 110.388 132.088 112.175 128.394 113.231C123.109 114.744 117.544 114.753 111.838 112.025C106.859 109.634 104.25 105.231 101.547 103.144C100.691 102.484 99.8281 102.069 98.8438 102.119ZM80.5031 107.812C79.9656 108.522 79.5125 109.053 79.1156 109.431C78.2812 110.234 77.6219 110.422 77.0781 110.3C76.7344 110.222 76.4125 110.016 76.1 109.684C76.0219 109.6 75.9437 109.509 75.8656 109.409C74.1062 111.078 72.0187 112.634 69.9125 113.863C70.7437 114.756 71.55 115.397 72.4344 115.797C73.7812 116.406 75.3062 116.444 77.3687 116.022C80.8312 115.316 83.0125 113.588 84.2812 111.297C83.0312 110.344 81.7562 109.116 80.5031 107.812ZM68.1156 102.706C67.3812 103.772 66.5937 104.963 65.75 105.897C64.2969 107.509 62.6687 108.359 60.9062 107.159C60.4531 106.853 60.05 106.444 59.7 105.956C59.2625 107.941 59.0281 109.856 58.9906 111.378C58.9656 112.547 59.0437 113.469 59.2625 113.975C60 115.684 61.9625 115.841 64.325 115.219C65.5875 114.884 66.9594 114.319 68.3469 113.588C68.1344 113.331 67.9187 113.056 67.7 112.769C66.8531 111.653 66.55 110.522 66.2781 109.206C65.9375 107.531 66.7281 106.019 67.8281 104.781C68.4406 104.094 69.0531 103.591 69.6656 103.244C69.1906 103.041 68.6781 102.859 68.1156 102.706ZM70.8125 103.816C70.0687 104.088 69.3281 104.609 68.5812 105.45C67.6937 106.45 66.9875 107.65 67.2656 109.003C67.5062 110.169 67.7562 111.175 68.5031 112.159C68.7562 112.494 69 112.803 69.2406 113.094C71.3781 111.866 73.5062 110.278 75.2781 108.578C75.1687 108.412 75.0562 108.234 74.9375 108.053C74.0906 106.747 72.9406 105.05 70.8125 103.816ZM87.625 107.872C87.2562 108.037 86.8531 108.188 86.4219 108.309C86.2281 109.256 85.95 110.156 85.5719 111C86.1844 111.409 86.7906 111.734 87.3812 111.947C88.175 112.231 89.0594 112.2 89.6594 111.878C89.9344 111.728 90.15 111.513 90.2125 111.219C90.2875 110.888 90.1781 110.488 89.875 110.013C89.4719 109.384 88.7531 108.666 87.625 107.872ZM82.475 108.388C83.2281 109.122 83.9812 109.806 84.725 110.384C84.975 109.8 85.1781 109.184 85.3312 108.544C84.4531 108.669 83.4906 108.65 82.475 108.388ZM78.5187 106.453C77.9594 107.206 77.3094 107.963 76.5875 108.7C76.6187 108.741 76.65 108.784 76.6844 108.822C76.8875 109.075 77.0719 109.269 77.3 109.319C77.4156 109.344 77.5406 109.319 77.6812 109.253C77.9 109.156 78.1406 108.975 78.4187 108.706C78.7937 108.347 79.2219 107.844 79.725 107.178C79.3219 106.947 78.9219 106.703 78.5187 106.453ZM72.3062 103.584C73.9937 104.819 75.0062 106.312 75.7812 107.506L76.0062 107.853C76.6219 107.213 77.1844 106.566 77.6719 105.919C76.6937 105.303 75.7219 104.7 74.7531 104.253C73.9344 103.878 73.1187 103.616 72.3062 103.584ZM82.5594 104.834C82.0656 105.591 81.6187 106.253 81.2125 106.831C81.4781 106.959 81.7406 107.075 82.0062 107.178C83.2812 107.675 84.4875 107.7 85.5437 107.497C85.5875 107.216 85.625 106.931 85.6562 106.644C85.025 106.291 84.3187 105.922 83.5312 105.544C83.2094 105.391 82.8812 105.147 82.5594 104.834ZM86.4375 98.075C86.3344 98.3125 86.225 98.55 86.1125 98.7938C86.55 100.903 86.8031 103.047 86.7625 105.088C86.7562 105.428 86.7406 105.763 86.7187 106.097C87.075 106.309 87.4062 106.516 87.7156 106.722C88.5281 106.294 89.1062 105.831 89.3562 105.628C91.0156 104.263 91.9562 102.594 92.4875 100.803C90.9906 99.9969 88.6312 98.8719 86.4375 98.075ZM70.6812 95.1937C67.9062 96.3906 65.1469 97.4938 62.6312 98.2844C62.175 98.9969 61.7656 99.7875 61.3969 100.628C60.8437 101.884 60.3875 103.247 60.0281 104.609C60.4062 105.334 60.8844 105.931 61.4719 106.328C62.2406 106.853 62.9656 106.784 63.6469 106.391C64.4469 105.928 65.1906 105.066 65.8937 104.122C66.3 103.581 66.6906 103.013 67.0656 102.463C65.3156 102.031 64.6562 100.697 64.6469 99.6562C64.6406 99.1281 64.8062 98.6719 65.0625 98.3812C65.7219 97.6406 67.0531 96.4531 71.8312 98.7344C72.2812 98.5531 72.6531 98.3563 72.9562 98.1406C73.4875 97.7625 73.7781 97.3406 73.8625 96.8688C73.9437 96.4188 73.85 95.9344 73.65 95.4219C72.5781 95.3562 71.575 95.2719 70.6812 95.1937ZM80.6062 101.688C80.6062 101.781 80.6031 101.875 80.5906 101.969C80.4719 102.969 80.0437 104.05 79.3875 105.156C79.6344 105.425 79.8875 105.694 80.1375 105.966C80.225 106.059 80.3125 106.153 80.4 106.247C80.8406 105.622 81.3281 104.891 81.8719 104.047C81.3937 103.412 80.9687 102.644 80.6562 101.825C80.6406 101.778 80.6219 101.731 80.6062 101.688ZM85.3656 100.256C85.05 100.838 84.7031 101.431 84.3281 102.041C83.8937 102.738 83.4906 103.384 83.1094 103.978C83.3906 104.272 83.6812 104.5 83.9656 104.638C84.6094 104.947 85.2 105.247 85.7406 105.544C85.7469 105.384 85.7531 105.225 85.7562 105.069C85.7875 103.503 85.6406 101.878 85.3656 100.256ZM71.775 99.825C71.3531 99.9719 70.8812 100.109 70.3562 100.234C70.1531 100.281 69.9531 100.434 69.7375 100.638C69.4625 100.897 69.1812 101.238 68.8875 101.628C68.8344 101.697 68.7844 101.766 68.7312 101.838C69.5531 102.081 70.2812 102.384 70.9312 102.728C71.1281 102.678 71.325 102.641 71.5187 102.616C72.7344 102.463 73.9531 102.778 75.175 103.341C75.9781 103.713 76.7844 104.191 77.5937 104.697C75.8375 102.803 74.1937 101.119 72.7969 100.359C72.4375 100.162 72.0969 99.9844 71.775 99.825ZM74.775 95.65C74.9 96.1406 74.9312 96.6062 74.8531 97.0469C74.7031 97.8844 74.1437 98.6625 72.9625 99.3063C73.0656 99.3594 73.1719 99.4188 73.2781 99.475C74.8344 100.325 76.6969 102.259 78.6781 104.391C79.1719 103.513 79.4937 102.653 79.5906 101.847C79.6437 101.412 79.4625 100.972 79.2031 100.547C78.7469 99.7938 78.0312 99.1094 77.5594 98.6219C76.6625 97.6969 75.7625 96.6031 74.775 95.65ZM84.7937 97.5344C84.5344 97.4594 84.2844 97.3938 84.0406 97.3375C83.3687 97.1781 82.7687 97.0938 82.2937 97.1156C81.975 97.1344 81.7219 97.1719 81.6 97.3531C80.875 98.45 81.0594 100.044 81.6 101.469C81.8281 102.069 82.1187 102.644 82.45 103.141C82.7719 102.634 83.1125 102.091 83.4719 101.513C84.0781 100.528 84.6094 99.5781 85.0594 98.6656C84.975 98.2875 84.8875 97.9094 84.7937 97.5344ZM61.2187 98.7031C60.425 98.9219 59.6625 99.1 58.9375 99.2344C58.9375 99.3344 58.9375 99.4344 58.9375 99.5344C58.9469 100.747 59.1031 101.975 59.4219 103.069C59.725 102.094 60.075 101.131 60.475 100.225C60.7062 99.6969 60.9531 99.1875 61.2187 98.7031ZM183.3 100.709C181.716 100.434 181.047 100.231 180.894 100.194C180.381 100.519 179.738 100.834 179.35 101.047C182.038 101.903 184.9 102.366 187.872 102.366C203.341 102.366 215.9 89.8344 215.9 74.3937C215.9 58.9562 203.341 46.425 187.872 46.425C172.403 46.425 159.844 58.9562 159.844 74.3937C159.844 85.0219 165.794 94.2719 174.55 99.0062C175.044 98.8594 175.681 98.6094 176.153 98.4031C175.238 97.9563 175.003 97.8438 173.856 97.1406C172.581 96.3563 171.381 95.4688 170.259 94.4906C175.35 95.9188 181.834 96.0031 188.328 94.4406C194.731 92.9 201.144 89.7656 206.231 84.7687L206.213 84.7781C205.619 85.0594 205.019 85.325 204.413 85.5781C203.819 85.8281 203.219 86.0625 202.613 86.2844L202.597 86.2906C198.212 89.7375 193.119 92 188.034 93.2219C180.672 94.9938 173.319 94.5938 168.156 92.4406C167.231 91.4344 166.384 90.3563 165.619 89.2188C173.897 92.0406 183.634 92.0531 192.15 88.75C190.438 88.9375 188.744 89.0188 187.078 89.0063C179.531 90.8063 171.431 90.1875 164.556 87.4938C163.906 86.3469 163.341 85.1469 162.866 83.9062C165.359 85.3312 168.497 86.2 171.966 86.5219C172.322 86.5531 172.684 86.5812 173.05 86.6031C171.478 86.0531 169.978 85.4219 168.572 84.725C166.116 84.1656 163.938 83.2625 162.216 81.9906C161.847 80.7469 161.566 79.4625 161.378 78.15L161.406 78.1781C162.244 79.0281 163.153 79.8094 164.106 80.5312C164.869 81.1063 165.662 81.6437 166.475 82.1437C167.641 82.8563 168.85 83.4969 170.091 84.0688C171.522 84.7281 172.997 85.2969 174.5 85.775C176.491 86.4125 178.531 86.8937 180.594 87.2219C184.228 87.8031 187.941 87.9094 191.606 87.5406C193.272 87.3719 194.928 87.1063 196.566 86.7438C198.134 86.3969 199.681 85.9594 201.203 85.4406C203.791 84.5531 206.294 83.4219 208.678 82.075C209.922 81.375 211.131 80.6156 212.306 79.8031C212.988 79.3312 213.659 78.8406 214.319 78.3375L214.338 78.3188C214.113 79.85 213.756 81.3344 213.281 82.7687C211.897 83.1188 210.538 83.3406 209.209 83.4469C208.825 83.9 208.428 84.3375 208.025 84.7656C209.566 84.725 211.15 84.5344 212.772 84.1781C212.591 84.6375 212.397 85.0875 212.191 85.5344C210.425 85.7719 208.678 85.8719 206.959 85.8438C206.528 86.2594 206.091 86.6625 205.644 87.0531C207.572 87.1531 209.534 87.1 211.525 86.8781C211.144 87.5969 210.728 88.2938 210.288 88.9719C208.434 89.2094 206.606 89.3063 204.812 89.275C204.644 89.6938 204.472 90.1094 204.297 90.5156C205.947 90.5656 207.628 90.5125 209.328 90.3438C208.809 91.0344 208.256 91.7031 207.675 92.3406C206.241 92.3906 204.831 92.3875 203.453 92.3375C203.259 92.7313 203.059 93.1156 202.856 93.4938C202.844 93.5187 202.831 93.5406 202.819 93.5656C204 93.6219 205.203 93.6406 206.425 93.625C205.812 94.2125 205.172 94.7719 204.509 95.3C203.588 95.3375 202.678 95.3531 201.781 95.3531C201.512 95.7844 201.238 96.2 200.963 96.6C201.544 96.6062 202.131 96.6094 202.725 96.6C200.878 97.8344 198.869 98.8438 196.738 99.5938C198.5 97.9906 200.228 95.7 201.734 92.8937C202.441 91.5812 203.1 90.1562 203.694 88.6437C203.059 89.125 202.409 89.5844 201.753 90.0219C200.369 93.0938 198.716 95.6875 196.981 97.5875C195.594 99.1062 194.166 100.175 192.778 100.647C192.081 100.775 191.375 100.878 190.663 100.953C193.4 98.3156 195.522 95.5219 197.131 92.65C196.466 92.9719 195.797 93.2719 195.125 93.5531C193.469 96.1656 191.347 98.6969 188.675 101.084C188.406 101.094 188.141 101.097 187.872 101.097C186.863 101.097 185.866 101.041 184.884 100.931C185.922 99.9062 187.647 98.0469 189.444 95.4719C189.172 95.5438 188.9 95.6094 188.628 95.675C188.278 95.7594 187.931 95.8375 187.584 95.9125C185.631 98.5125 183.9 100.166 183.3 100.709ZM110.416 96.0094C108.622 97.2562 106.697 98.1406 105.012 98.4938C104.728 99.0219 104.266 99.5406 103.656 100.016C103.109 100.441 102.453 100.834 101.731 101.169C103.225 101.766 104.528 101.853 105.637 101.641C107.653 101.253 109.019 99.8875 109.734 98.9125C110.278 98.1656 110.578 97.175 110.416 96.0094ZM70.4 99.1875C69.4594 98.7938 68.7 98.5719 68.0812 98.4688C66.7062 98.2438 66.1469 98.675 65.8156 99.05C65.6969 99.1813 65.65 99.4031 65.6531 99.6438C65.6594 100.366 66.1781 101.259 67.4437 101.516C67.525 101.531 67.6062 101.55 67.6875 101.569C67.9312 101.222 68.1719 100.9 68.4031 100.613C69 99.875 69.5906 99.3812 70.125 99.2562C70.2187 99.2344 70.3094 99.2125 70.4 99.1875ZM96.4469 91.5844C95.6937 92.0094 94.925 92.4188 94.1594 92.7969C94.1844 94.8187 94.2281 97.0031 93.8937 99.1125C93.8312 99.5125 93.7531 99.9125 93.6625 100.306C93.9094 100.447 94.1156 100.572 94.2719 100.675C95.1437 101.25 96.3406 101.397 97.5938 101.284C98.1375 101.238 98.6906 101.138 99.2344 101C95.9937 98.9156 94.875 96.1594 94.8187 95.225C94.7344 93.8344 95.4188 92.5594 96.4469 91.5844ZM102.397 91.2344C101.725 90.5563 100.55 90.575 99.3969 90.9594C97.5531 91.575 95.7062 93.1938 95.825 95.1625C95.8781 96.0531 97.1156 98.7281 100.519 100.594C101.475 100.231 102.353 99.7562 103.034 99.225C103.269 99.0406 103.481 98.8563 103.662 98.6656C102.087 98.7188 100.85 98.1813 100.25 96.9969C100.019 96.5438 100.066 96.1094 100.344 95.6656C100.541 95.35 100.881 95.0219 101.306 94.6688C101.634 94.3969 102.022 94.1031 102.422 93.7719C102.412 93.5719 102.409 93.3656 102.412 93.1656C102.422 92.5688 102.472 91.9906 102.45 91.5625C102.444 91.4344 102.406 91.2656 102.397 91.2344ZM84.0406 94.8969C83.775 94.9625 83.5094 95.0188 83.2375 95.0719C80.9875 95.5094 78.4562 95.5938 76.0625 95.5312C76.8312 96.3313 77.5625 97.1781 78.2844 97.925C78.7969 98.4531 79.5656 99.2063 80.0656 100.025C80.1281 100.131 80.1875 100.234 80.2406 100.341C80.0062 99.0469 80.1219 97.7656 80.7594 96.8C80.9844 96.4625 81.3656 96.2344 81.8969 96.15C82.4937 96.0531 83.3219 96.1375 84.2719 96.3594C84.3469 96.375 84.4219 96.3938 84.4969 96.4125C84.3531 95.9031 84.2 95.3969 84.0406 94.8969ZM93.1594 93.2656C93.1031 93.2906 93.0469 93.3156 92.9875 93.3406C91.0844 94.1813 89.2094 94.7438 87.55 94.7625C87.3812 95.5219 87.1375 96.3156 86.8187 97.1469C88.9437 97.9219 91.2062 98.9906 92.7437 99.8031C92.8031 99.5219 92.8562 99.2406 92.9 98.9563C93.1969 97.0625 93.1844 95.1063 93.1594 93.2656ZM61.5531 91.7812C59.3719 91.2875 56.9906 90.4031 54.375 88.9906C53.7687 88.6625 53.3281 88.5812 53 88.7719C52.6594 88.9688 52.4781 89.4 52.3531 89.925C51.875 91.8969 52.3937 95.125 52.5719 96.0563C52.9656 98.1063 54.7312 98.6656 57.1969 98.4594C57.4469 98.4406 57.7031 98.4125 57.9656 98.375C58.0687 96.9375 58.3812 95.5656 58.8937 94.4656C59.3562 93.475 59.9875 92.6969 60.7625 92.25C61.0406 92.0906 61.3031 91.9344 61.5531 91.7812ZM62.9906 92.0563C62.4812 92.3969 61.9094 92.75 61.2656 93.1219C60.6531 93.475 60.1719 94.1063 59.8062 94.8906C59.3687 95.8281 59.0969 96.9844 58.9906 98.2063C59.9281 98.025 60.9281 97.7656 61.9781 97.4469C62.4031 96.8187 62.8625 96.25 63.3562 95.7688C64.5625 94.5875 65.9656 93.9 67.5656 93.9438C68.2219 93.9625 69.2562 94.0656 70.5344 94.1781C70.9844 93.9844 71.4344 93.7844 71.8844 93.5844C70.9437 93.0844 69.8875 92.5844 68.7656 92.075C67.0219 92.3469 65.1062 92.3875 62.9906 92.0563ZM102.603 94.9156C102.103 95.3125 101.656 95.6562 101.362 95.9844C101.188 96.1813 101.047 96.3469 101.147 96.5438C101.472 97.1844 102.084 97.5188 102.853 97.625C103.291 97.6875 103.778 97.675 104.297 97.6031C104.319 97.4969 104.325 97.3938 104.319 97.2875C104.291 96.8844 104.016 96.5156 103.494 96.1719C103.044 95.875 102.766 95.4375 102.603 94.9156ZM106.184 90.1063C105.75 91.9344 104.6 93.2094 103.472 94.1937L103.487 94.2875C103.562 94.7156 103.706 95.1063 104.047 95.3313C104.906 95.9 105.278 96.5563 105.322 97.2188C105.328 97.275 105.328 97.3313 105.328 97.3875C105.531 97.3313 105.738 97.2688 105.947 97.2C107.319 96.7406 108.787 95.9688 110.159 94.9719C109.647 93.5156 108.434 91.8531 106.184 90.1063ZM68.5781 95.0125C68.1687 94.9781 67.8187 94.9563 67.5375 94.95C66.2125 94.9125 65.0594 95.5094 64.0625 96.4844C63.9281 96.6188 63.7969 96.7562 63.6687 96.9C65.2437 96.3594 66.8969 95.7125 68.5781 95.0125ZM85.4594 94.4844C85.3125 94.5344 85.1625 94.5844 85.0094 94.6312C85.2281 95.3219 85.4344 96.025 85.625 96.7375C85.7062 96.7625 85.7875 96.7906 85.8719 96.8156C86.1531 96.0813 86.375 95.3781 86.5344 94.7C86.4094 94.6813 86.2875 94.6625 86.1656 94.6375C85.9281 94.5875 85.6937 94.5344 85.4594 94.4844ZM78.1469 91.85C76.8187 92.4531 75.4406 93.0812 74.0406 93.7125C74.3719 93.9531 74.6906 94.2156 75.0031 94.4969C77.6344 94.6125 80.5219 94.575 83.0437 94.0844C83.1875 94.0563 83.3312 94.0281 83.475 93.9969C81.4344 93.4438 79.6281 92.7719 78.2156 91.8969L78.1469 91.85ZM72.9625 94.1937L72.6062 94.3531L73.1344 94.3906L72.9625 94.1937ZM106.334 87.8031C106.372 88.2125 106.375 88.6031 106.353 88.9719C108.903 90.8563 110.325 92.6906 110.988 94.3344C111.981 93.5187 112.894 92.5906 113.644 91.5781C111.506 91.3781 109.528 90.1125 107.534 88.675C107.134 88.3875 106.738 88.0938 106.334 87.8031ZM84.7594 81.8844C84.6656 82.2313 84.6156 82.5688 84.6156 82.9031C84.6187 83.6063 84.4 84.1094 84.0312 84.4594C83.6781 84.7969 83.1687 84.9938 82.5281 85.0375C81.9281 85.0781 81.2 84.9875 80.3781 84.7812C80.6625 85.2156 80.9406 85.65 81.2031 86.0844C82.5437 85.75 83.7594 85.8531 84.9312 86.6781C85.3 86.9375 85.6312 87.2156 85.9281 87.5156C86.3281 87.3844 86.7 87.2719 87.05 87.1813C88.0031 86.9313 88.7719 86.8469 89.3094 86.9375C89.7 87.0063 89.9937 87.1688 90.1937 87.3969C90.4 87.6344 90.5187 87.9531 90.5062 88.3719C90.4437 90.6469 89.4062 92.2469 87.7812 93.35C87.7656 93.4844 87.75 93.6219 87.7312 93.7594C89.3812 93.7031 91.2531 93.0531 93.1437 92.1656C93.1406 91.8938 93.1406 91.6219 93.1406 91.3563C93.1469 89.7344 93.2437 88.2656 93.6312 87.0781C90.6375 85.8188 87.5781 83.9438 84.7594 81.8844ZM85.6156 88.6813C84.8531 88.9531 84.0094 89.2875 83.1031 89.6688C83.5969 90.7594 84.0875 91.9625 84.5375 93.2344C84.8219 93.3063 85.1094 93.375 85.4 93.4406C85.9062 93.25 86.3781 93.0312 86.8125 92.775C86.8875 91.1719 86.5031 89.7969 85.6156 88.6813ZM82.175 90.0594C81.2531 90.4562 80.2781 90.8906 79.2687 91.3438C80.425 91.9781 81.8156 92.4906 83.3562 92.925C82.9781 91.9094 82.5781 90.9469 82.175 90.0594ZM75.8125 89.675C74.6812 90.2375 73.4594 90.7906 72.125 91.2438C72.5719 91.8125 73 92.3719 73.3781 92.9188C74.6781 92.3344 75.9625 91.7469 77.2062 91.1781C76.6469 90.7281 76.1781 90.2281 75.8125 89.675ZM102.469 87.9844C101.506 88.5438 100.391 89.2406 99.1875 89.9719C100.719 89.4875 102.25 89.6344 103.138 90.55C103.263 90.6781 103.359 90.8688 103.409 91.1219C103.481 91.475 103.462 92.0062 103.438 92.5938C103.434 92.6844 103.431 92.7781 103.428 92.8719C104.281 92.0094 105.044 90.9219 105.278 89.4469C104.472 88.9219 103.491 88.4594 102.469 87.9844ZM71.0937 91.5656C70.875 91.6281 70.6531 91.6875 70.425 91.7406C70.8781 91.9531 71.3125 92.1656 71.7312 92.375C71.525 92.1063 71.3125 91.8375 71.0937 91.5656ZM87.8219 92.0469C88.8281 91.1531 89.4531 89.9531 89.5 88.3438C89.5031 88.2406 89.4937 88.1531 89.4531 88.0844C89.4 87.9969 89.3 87.9625 89.1781 87.9375C89.0281 87.9062 88.8531 87.9 88.6531 87.9094C88.1125 87.9406 87.4312 88.0938 86.6281 88.3406C87.3781 89.3969 87.7719 90.6375 87.8219 92.0469ZM94.5687 87.45C94.225 88.5406 94.1562 89.8844 94.15 91.3594C94.15 91.4656 94.15 91.5719 94.15 91.6781C96.1344 90.6719 98.0969 89.4656 99.8187 88.4125C99.1656 88.525 98.5531 88.5406 97.9906 88.4344C96.8781 88.225 95.7312 87.8875 94.5687 87.45ZM65.0937 90.4094C64.8375 90.6562 64.5406 90.9156 64.2031 91.1813C65.15 91.275 66.0562 91.2875 66.9187 91.2406C66.3156 90.9719 65.7062 90.6938 65.0937 90.4094ZM69.3656 80.2188C69.2844 80.2281 69.2031 80.2313 69.1187 80.2375C67.9094 80.2938 66.6125 80.0625 65.4562 79.9C64.75 79.8 64.1031 79.725 63.5687 79.7812C63.2594 79.8156 62.9969 79.8875 62.8094 80.0625C62.625 80.2313 62.5281 80.4969 62.4969 80.8688C62.4344 81.6188 62.7562 82.25 63.2062 82.8344C63.725 83.5062 64.4125 84.1125 65.0187 84.725C65.8531 85.5719 66.5187 86.4469 66.5812 87.4438C66.6219 88.0969 66.4156 88.8219 65.7906 89.6344C66.8344 90.1156 67.8719 90.575 68.8656 91.025C69.3937 90.9375 69.9094 90.825 70.4062 90.6969C69.1375 89.0969 67.8937 87.4531 67.3 85.8875C66.8437 84.6844 66.7625 83.5187 67.2562 82.4344C67.6125 81.6531 68.275 80.9031 69.3656 80.2188ZM80.7437 87.275C79.6031 87.6781 78.3625 88.3625 76.9656 89.0875C76.8844 89.1281 76.8031 89.1719 76.7219 89.2125C77.1125 89.7719 77.6281 90.2656 78.2437 90.7062C79.4687 90.15 80.6469 89.625 81.7469 89.15C81.4437 88.5281 81.1062 87.9031 80.7437 87.275ZM110.1 83.2C108.669 84.0344 107.137 85.0219 105.622 85.9094C105.678 85.9375 105.734 85.9719 105.784 86.0094C105.906 86.1031 106.006 86.225 106.075 86.3875C106.769 86.8688 107.447 87.3719 108.125 87.8594C110.141 89.3125 112.109 90.6469 114.3 90.6C114.641 90.0406 114.928 89.4594 115.147 88.8656C115.378 88.2438 115.434 87.775 115.331 87.3969C115.216 86.9844 114.9 86.7062 114.5 86.4562C114 86.1375 113.369 85.875 112.709 85.5563C111.397 84.9219 110.603 84.1281 110.128 83.2531L110.1 83.2ZM117.834 80.6688C117.709 80.7062 117.581 80.7375 117.453 80.7687C116.131 81.0844 114.588 81.1313 113.191 81.6531C112.506 81.9094 111.762 82.2719 110.984 82.7C111.369 83.4469 112.037 84.1125 113.147 84.65C113.844 84.9875 114.509 85.2719 115.037 85.6063C115.666 86.0031 116.119 86.475 116.3 87.125C116.45 87.6594 116.419 88.3312 116.094 89.2156C115.941 89.625 115.759 90.0281 115.55 90.425C116.45 90.1906 117.387 89.7031 118.384 88.9C120.059 87.55 120.316 85.8844 119.675 84.0219C119.309 82.9594 118.669 81.8344 117.834 80.6688ZM71.1687 80.4062C69.525 81.1344 68.5844 81.9438 68.1719 82.85C67.6844 83.9188 67.9719 85.0875 68.5812 86.2906C69.2531 87.6188 70.3281 88.9844 71.3906 90.3188L71.4531 90.3969C72.8687 89.95 74.15 89.375 75.3312 88.7906C75.0156 88.0625 74.8562 87.2531 74.8719 86.35C74.8937 85.3219 75.15 84.1844 75.6812 82.9406C74.1937 82.2031 72.6437 81.3281 71.1687 80.4062ZM64.0219 69.2844C62.7375 68.6156 61.4687 68.2625 60.35 68.5812C59.4844 68.8312 58.7062 69.4344 58.0187 70.175C56.925 71.3563 56.0656 72.8875 55.4875 74.05C54.3656 76.3125 54.0906 78.2594 54.4469 79.9625C54.9812 82.5344 56.9344 84.5281 59.4281 86.2125C61.075 87.325 62.9562 88.3 64.8531 89.1969C65.3906 88.5625 65.6062 88.0156 65.575 87.5063C65.5281 86.7313 64.95 86.0875 64.3 85.4281C63.6687 84.7875 62.95 84.15 62.4094 83.45C61.8 82.6625 61.4094 81.7969 61.4937 80.7844C61.55 80.1031 61.7844 79.6406 62.125 79.325C62.4594 79.0125 62.9125 78.8406 63.4594 78.7844C64.0656 78.7188 64.8 78.7906 65.5969 78.9031C66.6937 79.0594 67.9219 79.2844 69.0719 79.2313C69.1625 79.2281 69.25 79.2219 69.3406 79.2125C68.2125 78.4469 67.1687 77.675 66.275 76.9469C64.6719 75.6406 63.5531 74.4438 63.2312 73.6531C62.6094 72.1313 62.9687 70.7906 63.7312 69.6719C63.8219 69.5406 63.9219 69.4094 64.0219 69.2844ZM84.8531 87.8937C84.6969 87.7562 84.5281 87.625 84.35 87.5C83.525 86.9188 82.6687 86.8156 81.7406 86.9938C82.0781 87.5844 82.3906 88.1719 82.675 88.7563C83.4469 88.4344 84.1781 88.1437 84.8531 87.8937ZM76.5812 83.3719C76.1219 84.4562 75.8969 85.4562 75.8812 86.3719C75.8656 87.0938 75.9906 87.7438 76.2375 88.3312C76.325 88.2875 76.4125 88.2406 76.5 88.1969C77.8625 87.4875 79.0906 86.8219 80.2187 86.3969C79.7844 85.7 79.325 85 78.8406 84.3063C78.125 84.05 77.3656 83.7344 76.5812 83.3719ZM104.938 86.8281C104.841 86.8438 104.734 86.875 104.619 86.9125C104.466 86.9656 104.297 87.0344 104.119 87.1125C103.938 87.1938 103.747 87.2875 103.544 87.3937C104.181 87.6938 104.797 87.9969 105.353 88.3188C105.341 87.9062 105.294 87.4688 105.2 87.0031L105.137 86.9625C105.097 86.9313 105.053 86.9031 105.009 86.875L104.938 86.8281ZM97.3687 84.9281C97.1187 84.9938 96.8687 85.075 96.6125 85.1719C95.8531 85.4562 95.3312 85.925 94.9719 86.5312C96.0594 86.9375 97.1344 87.25 98.1781 87.4469C98.9406 87.5906 99.8062 87.4656 100.737 87.1656C100.081 86.8406 99.4406 86.4938 98.85 86.1094C98.3062 85.7531 97.8062 85.3625 97.3687 84.9281ZM103.5 85.9438L103.441 85.9125C101.953 85.1 100.378 84.5625 98.6281 84.7094C98.875 84.9062 99.1344 85.0906 99.4031 85.2687C100.206 85.7938 101.103 86.2469 102.006 86.675C102.494 86.4594 102.994 86.2125 103.5 85.9438ZM180.769 48.6469C181.934 48.2906 182.981 48.1156 184.125 47.9531C191.619 57.1125 194.562 65.5219 194.984 72.8188C195.103 74.8844 195.019 76.8594 194.784 78.7375C195.244 78.4594 195.697 78.1719 196.141 77.8719C196.3 76.2313 196.341 74.5187 196.238 72.7469C195.816 65.4094 192.938 56.9688 185.606 47.7875C185.947 47.7531 187.003 47.7031 187.569 47.6969C188.194 47.6875 189.281 47.7156 189.8 47.7625C192.153 49.7094 195.909 55.5438 198.2 63.0656C199.278 66.6125 200.028 70.5406 200.141 74.6188C200.559 74.2031 200.963 73.7719 201.344 73.3312C201.125 69.5875 200.4 65.9875 199.4 62.7031C197.378 56.05 194.209 50.6875 191.803 47.9813C193.281 48.1969 194.719 48.5375 196.109 48.9875C196.572 49.1344 196.919 49.2563 197.372 49.4281C197.812 49.5969 198.25 49.775 198.681 49.9656C202.466 55.1719 204.484 60.9094 205.238 66.5969C205.569 65.5906 205.816 64.5406 205.969 63.45C205.084 59.2406 203.488 55.0594 200.981 51.1187C201.709 51.5281 202.416 51.9688 203.097 52.4438C203.469 52.6969 203.897 53.0156 203.963 53.0656C204.959 53.8156 205.903 54.6344 206.784 55.5156C209.8 68.3063 201.819 77.2625 191.538 81.8531C188.337 83.2812 184.913 84.2906 181.516 84.8594C182.875 85.0531 184.269 85.1813 185.694 85.2344C187.859 84.6594 190 83.9125 192.05 82.9969C202.309 78.4188 210.316 69.6594 208.409 57.2875C209.622 58.7375 210.688 60.3188 211.575 62.0063C210.038 71.8281 205.375 78.8688 199.222 83.4375C200.387 83.075 201.556 82.6531 202.722 82.175C207.397 77.8031 210.941 71.7844 212.503 63.9594C213.153 65.4875 213.666 67.0844 214.025 68.7406C213.066 72.4062 211.609 75.6375 209.778 78.4562C210.609 77.9156 211.438 77.3406 212.256 76.7281C213.113 75.1281 213.859 73.4156 214.481 71.5906C214.578 72.5125 214.625 73.4469 214.625 74.3937C214.625 75.1531 214.594 75.9062 214.531 76.65C214.444 76.6688 214.359 76.7094 214.281 76.7719C193.819 93.1094 169.447 86.1219 161.166 76.0406C161.134 75.4969 161.116 74.95 161.116 74.3937C161.116 73.9531 161.128 73.5156 161.147 73.0781C161.306 73.6438 161.494 74.2062 161.703 74.7687C161.822 74.8594 161.931 74.9656 162.028 75.0844C162.703 75.9281 163.491 76.7438 164.387 77.5281C162.759 74.6719 161.844 71.7031 161.7 68.8219C161.941 67.7031 162.25 66.6094 162.622 65.5438C163.319 69.375 165.188 73.3719 168.109 77.1125C168.244 76.6125 168.391 76.1125 168.544 75.6125C165.541 71.5406 163.825 67.1938 163.6 63.1531C164.328 61.5938 165.2 60.1156 166.2 58.7406C166.522 62.6688 167.984 66.7938 170.372 70.7188C170.575 70.2562 170.788 69.7938 171.006 69.3344C168.709 65.3312 167.412 61.15 167.391 57.2188C168.275 56.1719 169.238 55.1906 170.272 54.2906C170.206 58.0375 171.178 61.9281 172.988 65.6594C173.244 65.2375 173.506 64.8156 173.778 64.3969C172.106 60.7031 171.3 56.8781 171.578 53.2188C173.006 52.125 174.544 51.1719 176.175 50.3781C175.941 51.8062 176.003 53.5531 176.363 55.4969C176.597 56.7719 176.959 58.1375 177.441 59.5531C177.756 59.1906 178.078 58.8375 178.413 58.4844C178.059 57.3688 177.788 56.2906 177.597 55.2688C177.194 53.075 177.172 51.1562 177.609 49.7313C178.219 49.4781 178.841 49.2469 179.475 49.0375C188.925 60.7688 191.128 70.7562 190.325 78.5375C190.231 79.4406 190.097 80.3156 189.931 81.1594C190.294 81.0094 190.659 80.8531 191.019 80.6938C191.116 80.65 191.216 80.6031 191.319 80.5594C191.422 79.9438 191.506 79.3125 191.575 78.6656C192.391 70.7375 190.238 60.5625 180.769 48.6469ZM91.4219 75.3C91.1844 75.3 90.9656 75.3094 90.7656 75.3281C90.075 75.3875 89.2125 75.5156 88.2312 75.6969C88.15 75.8344 88.0656 75.9719 87.9844 76.1094C87.0594 77.6156 86.0094 79.0719 85.3219 80.4531C85.2469 80.6063 85.175 80.7563 85.1094 80.9062C87.9344 82.9938 91.0125 84.9031 94.0219 86.1594C94.4937 85.2875 95.2031 84.625 96.2594 84.2313C96.3906 84.1813 96.5219 84.1344 96.6531 84.0938C96.3125 83.6125 96.0438 83.0812 95.875 82.4938C95.7687 82.1281 95.7 81.7344 95.675 81.3156C92.2969 82.275 90.025 82.4875 88.6656 82.2406C87.1594 81.9719 86.5969 81.175 86.6594 80.2219C86.7187 79.3125 87.4875 78.125 88.8469 76.9969C89.5562 76.4062 90.4281 75.825 91.4219 75.3ZM109.034 73.6625C107.744 74.1031 106.45 74.3781 105.219 74.4313C106.363 77.3094 106.878 79.0875 106.956 80.1031C107.012 80.8312 106.841 81.2625 106.6 81.4938C106.334 81.75 105.941 81.8438 105.434 81.7156C104.95 81.5938 104.309 81.2469 103.594 80.7938C102.844 80.3188 101.994 79.7188 101.147 79.1938C100.709 79.5312 100.028 79.8844 99.0562 80.2313C98.2125 80.5281 97.4188 80.7906 96.6719 81.0219C96.6781 81.45 96.7375 81.8469 96.8438 82.2156C97.0187 82.8219 97.3187 83.35 97.7094 83.8188C100.003 83.3812 102.031 83.9938 103.925 85.0312C104.128 85.1406 104.331 85.2594 104.531 85.3781C106.281 84.3844 108.072 83.2219 109.731 82.2625C109.45 81.2375 109.481 80.1312 109.597 79.0219C109.713 77.9062 109.906 76.7906 109.859 75.7812C109.822 74.9781 109.622 74.2469 109.034 73.6625ZM80.0687 78.1219C79.1312 79.1938 78.3656 80.2094 77.7594 81.1625C78.35 81.9188 78.925 82.6875 79.475 83.4656C79.7 83.5406 79.9187 83.6125 80.1312 83.675C81.0344 83.9406 81.8281 84.0781 82.4594 84.0344C82.8281 84.0094 83.1344 83.925 83.3375 83.7313C83.5281 83.55 83.6125 83.275 83.6094 82.9062C83.6062 82.3688 83.7125 81.8156 83.9 81.2469C82.5469 80.2219 81.2562 79.1625 80.0687 78.1219ZM188.003 67.2C188.15 67.7188 188.281 68.2313 188.4 68.7406C185.369 72.9094 183.144 77.7125 181.753 82.3531C181.628 82.7656 181.512 83.1813 181.4 83.5906C180.95 83.6688 180.5 83.7375 180.05 83.7969C180.2 83.2 180.369 82.5969 180.55 81.9938C182.069 76.9156 184.575 71.6688 188.003 67.2ZM175.003 83.3438C174.594 83.2125 174.194 83.0719 173.797 82.9281C175.163 74.5719 179.2 66.6906 185.566 60.8219C185.759 61.225 185.944 61.625 186.122 62.0219C180.081 67.7219 176.269 75.3125 175.003 83.3438ZM77.2062 82.0875C77.1375 82.2156 77.0687 82.3406 77.0062 82.4625C77.2531 82.5781 77.5 82.6875 77.7437 82.7938C77.5656 82.5563 77.3875 82.3219 77.2062 82.0875ZM74.7875 79.1406C73.8281 79.4375 72.9906 79.7125 72.3344 79.9469C73.5812 80.7062 74.8687 81.4219 76.1094 82.0344C76.2437 81.775 76.3875 81.5125 76.5437 81.2469C75.9687 80.5281 75.3812 79.825 74.7875 79.1406ZM110.806 72.9594C110.644 73.0344 110.478 73.1063 110.316 73.175C110.225 73.2125 110.134 73.25 110.044 73.2875C110.988 74.4906 110.95 76.075 110.756 77.7656C110.603 79.0906 110.353 80.4875 110.641 81.75C111.416 81.3281 112.156 80.9656 112.838 80.7125C113.931 80.3031 115.109 80.1656 116.213 79.9844C116.547 79.9313 116.872 79.875 117.184 79.8031C116.578 79.025 115.9 78.2344 115.166 77.4281C113.841 75.9656 112.344 74.4656 110.806 72.9594ZM93.5406 75.4156C91.9094 76.0781 90.5219 76.9125 89.4906 77.7687C88.4062 78.6688 87.7125 79.5625 87.6625 80.2906C87.6312 80.7969 88.0375 81.1063 88.8437 81.2531C90.1656 81.4906 92.3781 81.2438 95.7 80.2656C95.75 79.7938 95.85 79.2906 96.0094 78.7563C96.25 77.9375 96.6562 77.4562 97.1406 77.1969C97.625 76.9344 98.2094 76.8937 98.8594 77.0375C99.4844 77.175 100.184 77.4969 100.9 77.8969C100.897 77.8 100.838 77.7125 100.756 77.6219C100.625 77.4688 100.434 77.325 100.2 77.1844C98.7719 76.3219 95.9281 75.6719 93.5406 75.4156ZM169.778 81.1594C169.381 80.9562 168.997 80.7438 168.619 80.5281C169.016 78.4813 169.578 76.3906 170.316 74.3063C172.678 67.6313 176.819 61.0063 182.913 56.025C183.141 56.3875 183.359 56.75 183.572 57.1094C177.738 61.925 173.772 68.3031 171.5 74.7219C170.738 76.8844 170.166 79.0469 169.778 81.1594ZM104.131 74.4188C103.838 74.4 103.547 74.3625 103.263 74.3125C100.566 73.8344 97.9312 74.0781 95.6156 74.7125C97.6062 75.0719 99.5844 75.6375 100.722 76.3219C101.475 76.7781 101.878 77.3219 101.906 77.8438C101.916 78.0344 101.884 78.2281 101.794 78.4281C102.609 78.9344 103.416 79.4906 104.134 79.9469C104.713 80.3125 105.228 80.6125 105.634 80.7281C105.731 80.7563 105.869 80.7625 105.903 80.7656C105.909 80.7438 105.931 80.6906 105.941 80.6531C105.966 80.5281 105.966 80.3719 105.953 80.1813C105.872 79.1688 105.322 77.3719 104.131 74.4188ZM78.9094 77.9344C77.8312 78.2313 76.7937 78.5312 75.8375 78.8188C76.2625 79.3188 76.6875 79.825 77.1031 80.3406C77.6094 79.5719 78.2094 78.7719 78.9094 77.9344ZM86.8875 75.9625C85.025 76.35 82.8875 76.8688 80.7937 77.425C81.8844 78.3781 83.0562 79.3438 84.2875 80.2844C84.3312 80.1938 84.375 80.1 84.4219 80.0063C85.0625 78.7188 86.0094 77.3625 86.8875 75.9625ZM100.184 78.6344C99.6437 78.3469 99.1219 78.125 98.6406 78.0187C98.2562 77.9344 97.9062 77.925 97.6156 78.0812C97.3281 78.2375 97.1219 78.55 96.975 79.0406C96.8844 79.3531 96.8125 79.6531 96.7625 79.9406C97.3812 79.7438 98.0312 79.525 98.7188 79.2812C99.3375 79.0625 99.8219 78.8469 100.184 78.6344ZM116.684 69.2C115.253 70.425 113.553 71.5812 111.766 72.4969C113.228 73.9313 114.647 75.3594 115.912 76.7531C116.753 77.6781 117.525 78.5875 118.2 79.4781C118.55 79.3219 118.866 79.1188 119.138 78.8406C119.872 78.0906 120.238 76.8188 120.103 74.5969C119.981 72.5844 118.231 70.5312 116.684 69.2ZM64.9094 69.7906C64.1125 70.7281 63.6031 71.9031 64.1625 73.275C64.45 73.9781 65.4875 75.0062 66.9125 76.1688C67.9844 77.0438 69.2781 77.9813 70.6687 78.8969C70.8656 78.8094 71.0531 78.7031 71.2312 78.575C71.7812 78.175 72.2312 77.5563 72.5375 76.6375C72.175 76.2531 71.8187 75.875 71.4656 75.5125C70.2812 74.2875 67.7812 71.6281 65.1375 69.9313C65.0594 69.8844 64.9844 69.8375 64.9094 69.7906ZM73.3 77.4625C73.0562 78.0312 72.7594 78.4875 72.4219 78.8531C72.9062 78.6875 73.4594 78.5063 74.0656 78.3156C73.8125 78.0281 73.5562 77.7438 73.3 77.4625ZM74.7719 71.2438C74.4312 73.075 74.075 74.8188 73.6625 76.3719C74.1469 76.8937 74.6344 77.4344 75.1219 77.9906C76.2281 77.6531 77.4656 77.2938 78.7531 76.9406C78.2281 76.4562 77.7312 75.9813 77.2625 75.5219C76.6344 74.9031 76.1062 74.0312 75.6187 73.0594C75.3281 72.4781 75.0531 71.8594 74.7719 71.2438ZM75.5906 66.6188C75.4187 67.5969 75.25 68.575 75.0781 69.5375C75.4625 70.3125 75.8187 71.1344 76.1875 71.9188C76.7187 73.0531 77.2656 74.1125 77.9687 74.8063C78.5656 75.3938 79.2125 76.0031 79.9 76.6281L80.1094 76.5719C80.5062 76.1437 80.925 75.7094 81.3687 75.2656C83.4594 73.1844 85.7875 71.275 87.5906 68.9844C86.8531 69.125 86.125 69.2531 85.4156 69.3594C82.4594 69.7906 79.8094 69.7563 78.0531 68.3563C77.2281 67.7 76.3969 67.125 75.5906 66.6188ZM88.8281 68.9969C86.9375 71.5844 84.3812 73.6875 82.0812 75.9781L81.9719 76.0844C83.9562 75.5812 85.9156 75.125 87.5906 74.8C88.6687 72.9156 89.4406 70.9656 88.8281 68.9969ZM74.0344 69.6938C73.8812 69.3969 73.725 69.1125 73.5625 68.8406C72.9844 67.875 72.3281 67.0781 71.4344 66.75C70.55 66.4219 69.4594 66.5812 68.025 67.4062C67.4875 67.7188 66.5062 68.2781 65.6312 69.0563L65.6812 69.0875C68.3969 70.8281 70.9719 73.5563 72.1875 74.8125C72.4062 75.0375 72.625 75.2656 72.8469 75.5C73.2875 73.7344 73.6656 71.7531 74.0344 69.6938ZM97.0344 67.9281C94.8562 67.6406 92.3 68.0688 89.7437 68.5656C90.4281 70.5938 89.8594 72.6125 88.8562 74.5688C89.5469 74.4531 90.1625 74.3719 90.6781 74.325C91.3875 74.2656 92.3406 74.2938 93.3875 74.4C94.2062 74.0812 95.0781 73.8031 95.9906 73.5844C95.6312 73.3719 95.3312 72.8781 95.3312 71.8844C95.3281 70.9219 95.8156 69.6125 97.0344 67.9281ZM98.1281 68.1406C96.8844 69.7656 96.3344 70.9813 96.3375 71.8813C96.3375 72.1781 96.3625 72.4062 96.4219 72.5719C96.4437 72.6406 96.4625 72.6938 96.5062 72.7188C96.6031 72.775 96.7281 72.725 96.8812 72.6781C97.1656 72.5906 97.4937 72.425 97.85 72.2344C98.6969 71.7781 99.6906 71.1813 100.666 70.9094C101.406 70.7 102.141 70.675 102.816 70.9625C103.522 71.2594 104.181 71.9031 104.688 73.125L104.819 73.4375C105.875 73.4344 106.988 73.2406 108.109 72.9062C106.281 71.5063 102.928 69.3125 98.1281 68.1406ZM103.694 73.3656C103.334 72.5563 102.912 72.0938 102.422 71.8875C101.825 71.6344 101.166 71.7687 100.509 72.0187C99.7437 72.3063 98.9906 72.7625 98.3281 73.1188C98.2812 73.1437 98.2344 73.1656 98.1906 73.1906C99.8688 72.9875 101.641 73.0031 103.441 73.325C103.525 73.3375 103.609 73.3531 103.694 73.3656ZM102.306 64.3031C101.069 64.9969 99.7313 66.2625 98.8312 67.2812C104.056 68.6531 107.562 71.1656 109.247 72.5187C109.472 72.4344 109.697 72.3438 109.922 72.25L110.031 72.2031C107.287 69.5281 104.478 66.8438 102.306 64.3031ZM115.856 68.5875C114.975 68.0906 114.091 68.0688 113.175 68.0625C111.878 68.0531 110.525 68.075 109.05 67.2594C108.566 66.9906 108.009 66.1938 107.294 65.3813C106.4 64.375 105.188 63.3406 103.272 63.8844C105.472 66.4219 108.281 69.0938 111.006 71.7531C112.759 70.8906 114.434 69.775 115.856 68.5875ZM77.0969 59.125C76.5937 61.15 76.1719 63.3438 75.7781 65.5563C76.7219 66.1313 77.7062 66.7938 78.6844 67.5719C80.25 68.8219 82.6281 68.75 85.2719 68.3625C86.2594 68.2188 87.2844 68.0281 88.3219 67.8281C87.4187 65.8812 87.1562 63.6656 87.3312 61.5219C83.9812 60.5031 80.2812 59.5312 77.0969 59.125ZM116.647 67.8937C117.319 67.275 117.916 66.6438 118.412 66.0281C119.044 65.2406 119.509 64.4813 119.747 63.8C119.941 63.2313 119.984 62.7313 119.756 62.3406C119.425 61.7625 118.341 60.9219 116.866 59.9813C113.256 57.6781 107.297 54.9094 103.206 54.4156C101.312 54.1844 99.825 54.4062 99.3906 55.6187C101.759 56.7812 103.628 57.0906 104.594 57.5344C105.059 57.7469 105.356 58.0031 105.506 58.3094C105.662 58.6344 105.681 59.0406 105.459 59.5781C105.234 60.1219 104.681 60.7469 103.916 61.3563C103.403 61.7625 102.8 62.1656 102.153 62.5375L102.191 62.5844C102.256 62.6688 102.322 62.75 102.388 62.8344L102.578 63.0656C102.719 63.0062 102.856 62.9594 102.991 62.9219C105.387 62.2375 106.931 63.4562 108.047 64.7188C108.45 65.1719 108.791 65.6281 109.097 65.9719C109.256 66.1531 109.397 66.3 109.537 66.3781C110.841 67.1 112.041 67.0469 113.184 67.0563C114.372 67.0656 115.506 67.1344 116.647 67.8937ZM91.1219 62.7344C91.1906 63.6906 91.1125 64.55 90.8656 65.2375C90.5687 66.0594 90.2031 66.825 89.7781 67.55C92.5906 67.0219 95.4 66.5844 97.7313 67.0219C98.6375 65.9219 100.197 64.4125 101.659 63.5312C101.522 63.3625 101.388 63.1938 101.259 63.025C100.834 63.2406 100.403 63.4406 99.9781 63.6156C99.0219 64.0156 98.0875 64.3 97.3187 64.4094C96.7375 64.4906 96.2406 64.4719 95.8719 64.35C94.7844 63.9875 93.1094 63.3969 91.1219 62.7344ZM88.3187 61.8281C88.2031 63.5375 88.3875 65.2906 89.0094 66.8781C89.3594 66.2531 89.6656 65.5969 89.9156 64.9C90.1594 64.2219 90.1969 63.3563 90.0812 62.3906C89.5125 62.2062 88.9219 62.0156 88.3187 61.8281ZM76.0875 59.0125C75.6625 58.9719 75.25 58.9438 74.85 58.9312C73.4812 58.8844 72.2844 58.9906 71.3625 59.325C70.55 59.6219 69.9625 60.1 69.7187 60.8406C69.5812 61.2594 69.6937 61.6094 69.9719 61.9406C70.2094 62.2281 70.5531 62.5 70.9719 62.7812C71.9531 63.4375 73.325 64.1219 74.8562 65.0063C75.2281 62.95 75.6219 60.9094 76.0875 59.0125ZM98.2625 56.1688C96.9937 55.4875 95.6062 54.5656 94.1469 53.2781C93.3094 52.5375 92.3312 52.9094 91.425 53.8219C90.675 54.575 89.9812 55.6938 89.4375 57.0125C90.1187 58.4219 90.6375 59.8969 90.9156 61.2594C90.9406 61.3844 90.9656 61.5094 90.9844 61.6344C93.1719 62.3563 95.0156 63.0062 96.1906 63.3937C96.4406 63.4781 96.7812 63.4719 97.1781 63.4156C97.875 63.3156 98.7219 63.05 99.5906 62.6906C99.9406 62.5438 100.297 62.3813 100.647 62.2062C99.0781 60.025 98.1469 57.975 98.2625 56.1812V56.1688ZM99.2625 56.6688C99.3187 58.2062 100.194 59.9125 101.534 61.7344C102.181 61.3688 102.784 60.9688 103.287 60.5688C103.891 60.0906 104.353 59.6219 104.528 59.1969C104.606 59.0125 104.65 58.875 104.603 58.7594C104.559 58.6469 104.434 58.5781 104.281 58.5C104.059 58.3844 103.772 58.2844 103.431 58.1719C102.422 57.85 100.981 57.4719 99.2625 56.6688ZM88.9531 58.3781C88.7969 58.8875 88.6687 59.4125 88.5625 59.9531C88.5094 60.2375 88.4594 60.525 88.4219 60.8125C88.9219 60.9688 89.4125 61.125 89.8906 61.2781C89.6844 60.3406 89.3625 59.3531 88.9531 58.3781ZM88.3375 57.0625C87.9781 56.3656 87.5781 55.6875 87.1437 55.0594C85.7344 53.0125 84.0094 51.4438 82.2812 51.4188C81.4156 51.4094 80.5719 51.8156 79.7844 52.7406C78.9125 53.7656 78.1219 55.3906 77.4562 57.7563C77.4219 57.8844 77.3844 58.0156 77.35 58.1469C80.5062 58.5688 84.1406 59.5156 87.4469 60.5156C87.4844 60.2625 87.525 60.0094 87.575 59.7625C87.7562 58.8188 88.0187 57.9062 88.3375 57.0625Z" fill="#434343" stroke="#434343" stroke-width="1.5"/>
<path d="M62.4729 211.79C62.7979 211.79 63.1197 211.709 63.4447 211.55C63.8479 211.306 63.9291 211.062 63.6885 210.822L63.4447 210.334C62.7166 209.284 62.4729 208.15 62.3916 206.937C62.3916 200.384 64.901 188.978 66.6791 182.587C67.0854 181.212 67.4072 179.918 67.7322 178.543C68.0541 177.165 68.3791 175.872 68.7041 174.497C69.2697 171.99 69.7541 169.481 69.7541 166.975C69.7541 166.084 69.6729 165.193 69.5916 164.303C69.5104 163.9 69.4322 163.493 69.1885 163.009C68.6229 162.118 67.8135 161.634 66.8416 161.634C65.1447 161.634 63.8479 163.172 63.1197 164.547C59.5604 170.937 56.6479 177.572 54.0604 184.365C53.4947 185.743 53.0072 187.118 52.5229 188.493C52.0385 189.868 51.551 191.243 50.9854 192.618C50.8229 193.022 50.6635 193.509 50.501 193.993C50.2572 194.478 50.0947 194.965 49.9354 195.45C49.8541 195.693 49.7729 195.853 49.5291 196.097C49.4479 196.178 49.3666 196.178 49.2072 196.178L49.126 196.097C49.126 196.015 49.126 195.853 49.126 195.775C49.0447 195.693 49.0447 195.612 49.126 195.531C49.6916 192.7 50.0947 189.95 50.9854 187.118C51.876 184.287 52.6041 181.453 53.1697 178.622C53.7354 175.79 54.3854 172.959 55.1104 170.128L55.3541 168.672C55.4354 168.431 55.4354 168.106 55.3541 167.862C55.2729 167.378 54.951 167.056 54.3854 166.893H54.1416C53.7354 166.893 53.4947 167.297 53.4135 167.622C52.5229 169.806 51.7135 172.072 51.0666 174.415C50.3385 177.247 49.5291 180 48.801 182.831C47.2635 187.765 46.376 192.618 45.4854 197.715C45.1604 199.737 44.7572 201.759 45.001 203.781C45.001 204.268 45.001 204.672 45.0791 204.915C45.1604 205.4 45.4041 205.725 45.8885 205.884C46.1322 205.965 46.376 206.047 46.7791 206.047C47.3447 206.047 47.751 205.725 47.9916 204.997C48.0729 204.915 48.1541 204.753 48.1541 204.672C49.2072 201.678 50.3385 198.684 51.4729 195.693C52.6041 192.781 53.7354 189.787 54.7885 186.793C57.4572 179.431 60.6947 171.747 64.901 165.193C65.4666 164.465 65.951 163.9 66.5197 163.493C66.601 163.415 66.6791 163.415 66.7604 163.415C67.0041 163.415 67.1666 163.575 67.2479 163.818C67.2479 164.062 67.2479 164.222 67.326 164.384C67.326 164.547 67.326 164.709 67.2479 164.95C67.1666 166.65 66.9229 168.35 66.5197 170.047C65.6291 173.528 64.7385 176.762 63.8479 179.918C62.151 186.065 60.6135 192.293 59.6416 198.684C59.2385 201.275 59.076 203.862 59.1572 206.453C59.2385 206.856 59.2385 207.181 59.3197 207.584C59.3197 207.99 59.401 208.312 59.4791 208.718C59.8041 210.012 60.5322 210.981 61.5822 211.55C61.9072 211.709 62.2322 211.79 62.4729 211.79Z" fill="#434343"/>
<path d="M76.0634 204.671C77.7634 204.671 78.8947 204.59 79.8666 203.053C80.1103 202.812 80.1884 202.65 80.2697 202.406C81.2416 200.546 81.6447 198.443 81.5666 196.178C81.4041 194.318 80.8384 192.7 79.8666 191.162C79.4603 190.596 79.1384 190.109 78.8134 189.543C78.6541 189.221 78.7322 188.978 79.0572 188.815C80.1103 188.734 81.1603 188.653 82.5353 188.653C83.4259 188.653 84.3978 188.653 85.5291 188.653C86.5822 188.734 87.8759 188.734 89.3322 188.734C89.7353 188.653 89.8166 188.412 89.5728 188.006C89.3322 187.684 88.8447 187.44 88.2791 187.278C86.6603 187.196 84.8822 187.118 83.2634 187.118C81.5666 187.118 80.0291 187.196 78.7322 187.278C77.3572 187.44 76.6291 187.684 76.5509 187.925C76.1447 188.006 75.9822 188.493 76.2259 188.815C76.6291 189.543 77.1166 190.271 77.5197 190.918C79.2197 193.59 79.4603 196.34 78.5728 199.334C78.4916 199.737 78.3291 200.062 78.1666 200.384C77.9259 200.709 77.7634 201.031 77.6009 201.356C77.1978 202.003 76.7916 202.487 76.3072 202.731C76.0634 202.893 75.9009 202.975 75.6603 202.975C75.4166 202.975 75.1728 202.893 74.9322 202.65C74.4447 202.246 74.0416 201.759 73.6384 201.031C72.9103 199.737 72.6666 198.281 72.7478 196.662C72.9884 191.565 74.5259 186.468 78.4103 182.99C78.6541 182.75 78.5728 182.425 78.3291 182.343C78.3291 182.262 78.2478 182.262 78.1666 182.262C77.7634 182.103 77.3572 182.021 76.8728 182.021C76.1447 182.021 75.4978 182.262 74.9322 182.75C71.3728 185.5 69.3509 191.646 69.1072 196.096V196.906C69.1072 196.987 69.1072 197.15 69.1884 197.231C69.1884 197.39 69.1884 197.553 69.1884 197.634C69.5916 200.95 71.3728 203.134 74.3666 204.268C74.6072 204.35 74.9322 204.428 75.2541 204.509C75.4978 204.59 75.8228 204.59 76.0634 204.671Z" fill="#434343"/>
<path d="M88.4411 213.006C91.3536 213.006 93.9411 209.446 94.4286 206.612C94.9942 204.106 95.1567 201.759 94.2661 199.253C94.0223 198.443 94.2661 197.796 94.8317 197.231C94.9942 197.15 95.1567 196.987 95.2379 196.825C96.4504 195.612 97.7442 194.396 98.9567 193.184C100.172 192.053 101.385 190.837 102.597 189.625C102.76 189.381 103.004 189.14 103.325 188.815C103.569 188.412 103.569 188.168 103.166 188.006C102.922 187.846 102.679 187.765 102.357 187.765C102.113 187.765 101.869 187.846 101.629 188.087L94.8317 194.803C94.5098 195.125 94.1036 195.45 93.7004 195.775C93.6192 195.853 93.4567 195.934 93.3754 195.934C92.6473 195.934 90.7067 189.303 90.6254 189.14C90.3817 188.25 90.3004 187.278 90.3817 186.228C90.3004 185.175 90.3817 184.206 90.7879 183.315C91.1911 182.103 91.7567 181.131 92.9723 180.565C93.0536 180.484 93.1348 180.484 93.2129 180.484C93.4567 180.484 93.7004 180.565 93.7817 180.806C94.1848 181.615 94.2661 182.343 94.1036 182.99C93.8629 184.528 93.7004 185.903 93.2942 187.278C93.2129 187.521 93.1348 187.846 93.1348 188.087C93.0536 188.412 93.0536 188.734 92.9723 188.978C92.8911 189.381 93.0536 189.706 93.5379 189.787C93.6192 189.787 93.7004 189.787 93.7817 189.787C93.8629 189.868 93.8629 189.868 93.9411 189.868C94.3473 189.868 94.6692 189.625 94.8317 189.221L95.0754 188.734C95.9661 186.631 96.4504 184.446 96.4504 182.262C96.2879 180.887 95.6411 180 94.5879 179.593C94.1848 179.35 93.7004 179.19 93.2942 179.109C92.8911 178.946 92.4848 178.865 92.0004 178.865C91.2723 178.865 90.4629 179.19 89.7348 179.756C88.4411 180.806 87.7129 182.181 87.4692 183.8C87.1473 185.903 87.2286 187.925 87.7942 189.868C88.4411 192.212 89.3317 194.559 90.2223 196.825C90.9504 198.928 91.1098 198.281 89.6536 199.981C87.9567 202.003 86.5817 204.106 85.3661 206.29C85.2848 206.612 85.1254 206.937 84.9629 207.262C84.8004 207.584 84.6379 207.909 84.5567 208.231C83.9911 210.171 85.0442 212.034 86.9848 212.762C87.4692 212.925 87.9567 213.006 88.4411 213.006ZM88.0379 211.387C87.7942 211.387 87.5504 211.306 87.3911 211.062C86.9036 210.496 86.7411 209.768 86.8223 208.878C86.8223 207.181 89.4942 203.296 90.6254 202.003C90.7067 201.759 90.8692 201.759 91.1098 201.84C91.1911 201.921 91.2723 202.084 91.2723 202.165C91.3536 202.406 91.4348 202.731 91.4348 203.053C91.4348 203.378 91.4348 203.781 91.3536 204.187C91.3536 205.237 91.1911 206.29 90.8692 207.421C90.6254 208.475 89.1692 211.387 88.0379 211.387Z" fill="#434343"/>
<path d="M102.274 213.006C105.187 213.006 107.774 209.446 108.262 206.612C108.827 204.106 108.99 201.759 108.099 199.253C107.856 198.443 108.099 197.796 108.665 197.231C108.827 197.15 108.99 196.987 109.071 196.825C110.284 195.612 111.577 194.396 112.79 193.184C114.006 192.053 115.218 190.837 116.431 189.625C116.593 189.381 116.837 189.14 117.159 188.815C117.402 188.412 117.402 188.168 116.999 188.006C116.756 187.846 116.512 187.765 116.19 187.765C115.946 187.765 115.702 187.846 115.462 188.087L108.665 194.803C108.343 195.125 107.937 195.45 107.534 195.775C107.452 195.853 107.29 195.934 107.209 195.934C106.481 195.934 104.54 189.303 104.459 189.14C104.215 188.25 104.134 187.278 104.215 186.228C104.134 185.175 104.215 184.206 104.621 183.315C105.024 182.103 105.59 181.131 106.806 180.565C106.887 180.484 106.968 180.484 107.046 180.484C107.29 180.484 107.534 180.565 107.615 180.806C108.018 181.615 108.099 182.343 107.937 182.99C107.696 184.528 107.534 185.903 107.127 187.278C107.046 187.521 106.968 187.846 106.968 188.087C106.887 188.412 106.887 188.734 106.806 188.978C106.724 189.381 106.887 189.706 107.371 189.787C107.452 189.787 107.534 189.787 107.615 189.787C107.696 189.868 107.696 189.868 107.774 189.868C108.181 189.868 108.502 189.625 108.665 189.221L108.909 188.734C109.799 186.631 110.284 184.446 110.284 182.262C110.121 180.887 109.474 180 108.421 179.593C108.018 179.35 107.534 179.19 107.127 179.109C106.724 178.946 106.318 178.865 105.834 178.865C105.106 178.865 104.296 179.19 103.568 179.756C102.274 180.806 101.546 182.181 101.302 183.8C100.981 185.903 101.062 187.925 101.627 189.868C102.274 192.212 103.165 194.559 104.056 196.825C104.784 198.928 104.943 198.281 103.487 199.981C101.79 202.003 100.415 204.106 99.1993 206.29C99.1181 206.612 98.9587 206.937 98.7962 207.262C98.6337 207.584 98.4712 207.909 98.3899 208.231C97.8243 210.171 98.8774 212.034 100.818 212.762C101.302 212.925 101.79 213.006 102.274 213.006ZM101.871 211.387C101.627 211.387 101.384 211.306 101.224 211.062C100.737 210.496 100.574 209.768 100.656 208.878C100.656 207.181 103.327 203.296 104.459 202.003C104.54 201.759 104.702 201.759 104.943 201.84C105.024 201.921 105.106 202.084 105.106 202.165C105.187 202.406 105.268 202.731 105.268 203.053C105.268 203.378 105.268 203.781 105.187 204.187C105.187 205.237 105.024 206.29 104.702 207.421C104.459 208.475 103.002 211.387 101.871 211.387Z" fill="#434343"/>
<path d="M126.139 204.997C126.948 204.997 127.676 204.672 128.405 204.025C129.051 203.459 129.617 202.894 130.183 202.247C130.992 201.194 131.801 199.981 132.692 198.765L136.089 193.428C136.495 192.862 136.817 192.212 137.223 191.565C137.545 190.919 137.87 190.272 138.273 189.625C138.517 189.222 138.598 188.815 138.68 188.575C138.68 188.575 138.68 188.494 138.68 188.25C138.598 187.847 138.273 187.684 137.708 187.684C137.464 187.684 137.305 187.765 137.223 187.925C136.898 188.25 136.655 188.653 136.495 189.059C134.795 192.294 130.426 199.172 127.839 201.759C127.595 202.003 127.351 202.165 127.111 202.325C126.867 202.569 126.623 202.731 126.301 202.894C126.22 202.894 126.22 202.894 126.22 202.894C126.22 202.975 126.22 202.975 126.139 202.975C125.895 202.975 125.736 202.812 125.573 202.569C125.33 201.678 125.573 200.79 125.655 199.9C126.22 197.231 126.705 194.722 127.676 192.212C128.323 190.678 128.97 189.14 129.536 187.603C129.942 187.037 131.236 183.397 131.236 182.99C131.317 182.587 131.155 182.344 130.833 182.181C130.589 181.94 130.345 181.859 130.023 181.859C129.617 181.859 129.295 182.022 129.051 182.425C128.726 182.99 128.405 183.397 128.08 183.8L125.655 187.278C125.411 187.522 125.248 187.684 125.089 187.765C125.089 187.765 125.008 187.765 124.764 187.765L124.361 186.875C123.389 185.337 122.014 184.609 120.314 184.609C119.264 184.609 118.211 184.934 117.239 185.662C116.592 186.228 116.026 186.794 115.461 187.684C115.136 188.25 114.814 188.734 114.489 189.222C114.167 189.787 113.842 190.353 113.52 190.919C112.548 192.781 112.064 194.803 112.064 196.987C112.305 198.928 113.761 199.981 115.623 200.222H116.108C116.673 200.222 117.161 200.062 117.483 199.819C119.02 198.525 120.233 197.309 121.53 195.775C121.77 195.531 121.933 195.369 122.176 195.125H122.336C122.498 195.287 122.58 195.369 122.58 195.369C122.58 195.45 122.58 195.612 122.58 195.694C122.498 195.853 122.498 196.015 122.498 196.097C122.417 196.744 122.255 197.39 122.176 198.037C122.014 198.684 121.933 199.334 121.851 200.062C121.851 202.569 123.308 204.997 126.139 204.997ZM116.108 197.472C115.864 197.39 115.786 197.069 115.786 196.662C116.189 193.75 119.183 186.147 121.77 186.147C122.095 186.147 122.336 186.309 122.498 186.631C122.742 186.956 122.823 187.197 122.905 187.359C122.983 187.925 123.308 188.331 123.955 188.575C124.198 188.653 124.28 188.897 124.198 189.222C124.198 189.222 124.117 189.303 124.036 189.381C122.176 191.89 120.395 194.075 118.13 196.259C117.889 196.503 117.645 196.662 117.401 196.825C117.161 196.987 116.836 197.15 116.592 197.39C116.511 197.472 116.351 197.472 116.108 197.472Z" fill="#434343"/>
<path d="M181.473 212.278C183.82 212.278 185.76 208.959 186.732 206.937C186.973 206.209 187.298 205.562 187.623 204.915C187.945 204.269 188.27 203.622 188.51 202.975L188.673 202.569C188.754 202.247 188.429 202.003 188.107 202.003C187.701 202.003 187.46 202.084 187.379 202.247C187.298 202.406 187.135 202.569 187.054 202.731C186.895 202.975 186.732 203.134 186.651 203.378C186.407 203.781 186.166 204.269 185.923 204.753C185.679 205.237 185.438 205.725 185.195 206.209C184.548 207.584 183.576 208.719 182.526 209.931C182.282 210.253 181.879 210.497 181.473 210.74C181.391 210.822 181.229 210.822 181.151 210.822C180.745 210.822 180.501 210.659 180.423 210.334C179.854 209.284 179.773 208.394 179.695 207.181C179.695 199.009 181.635 190.919 184.141 183.153C185.195 179.837 186.166 176.6 187.135 173.284C187.782 171.019 188.429 168.753 188.754 166.247C188.754 166.003 188.754 165.678 188.835 165.356C188.835 165.112 188.835 164.79 188.835 164.547C188.754 163.575 187.782 161.878 186.57 161.878C186.245 161.878 185.923 162.04 185.679 162.281C183.82 163.819 182.685 166.084 181.473 168.106C179.207 171.909 177.51 175.953 175.81 179.919C174.838 182.103 173.951 184.206 173.06 186.39C172.17 188.25 171.441 189.869 170.551 191.565L169.985 192.294C169.985 192.294 169.985 192.294 169.904 192.375H169.823C169.741 192.375 169.741 192.375 169.663 192.294C169.663 192.212 169.663 192.053 169.663 191.972C169.582 191.89 169.582 191.809 169.663 191.728C170.066 189.787 170.47 187.847 170.795 185.903L172.007 179.35C172.17 178.462 172.088 177.653 171.845 176.925C171.523 176.034 170.957 175.55 170.066 175.306C169.985 175.225 169.741 175.225 169.501 175.225C168.935 175.225 168.529 175.387 168.207 175.79C167.963 176.034 167.72 176.359 167.557 176.6C167.316 176.925 167.154 177.247 166.91 177.49C163.676 182.669 160.682 190.434 159.145 196.259L158.901 196.906C158.823 196.987 158.741 196.987 158.579 196.987L158.498 196.906C158.416 196.422 158.416 195.934 158.579 195.45C158.66 194.965 158.741 194.478 158.823 194.075C159.145 191.244 159.551 188.653 160.279 185.984C161.573 180.565 162.704 175.306 163.757 169.806L163.998 168.915C164.079 168.025 163.27 167.297 162.382 167.378C162.057 167.378 161.813 167.54 161.735 167.862C161.085 169.078 160.763 170.047 160.438 171.262C159.873 173.284 159.388 175.306 158.901 177.247C158.416 179.272 157.932 181.212 157.366 183.234C155.748 189.706 154.454 197.878 154.454 204.672C154.454 205.237 154.535 205.562 154.613 205.806C155.182 207.422 155.991 207.503 157.366 207.503C157.607 207.503 157.851 207.34 157.932 207.1C158.176 206.612 158.335 206.128 158.416 205.644C158.901 203.862 159.388 202.084 159.954 200.222C160.438 198.444 160.926 196.662 161.41 194.803C162.463 190.919 166.101 181.05 168.854 178.3H169.013C169.095 178.3 169.095 178.381 169.095 178.462C169.176 178.703 169.176 178.947 169.095 179.19C169.013 179.756 168.854 180.322 168.691 180.806C168.529 181.375 168.366 181.94 168.285 182.506C167.557 185.337 166.991 188.006 166.426 190.837C166.101 192.294 166.023 193.75 166.182 195.206C166.345 196.422 167.073 197.231 168.285 197.634C168.366 197.634 168.448 197.634 168.529 197.634C168.61 197.715 168.61 197.715 168.691 197.715C169.257 197.715 169.663 197.472 169.985 196.987L170.632 195.853C172.17 192.7 173.545 189.787 174.838 186.631C176.538 182.506 178.316 178.462 180.179 174.497C181.716 171.344 183.173 168.269 185.357 165.6C185.438 165.519 185.598 165.356 185.923 165.112H186.085C186.166 165.194 186.166 165.194 186.166 165.275C186.245 166.003 186.004 166.65 185.76 167.297C184.87 170.128 184.06 172.8 183.091 175.469C180.341 183.072 176.457 195.612 176.457 203.703V205.806C176.457 207.34 176.86 208.637 177.51 210.012C178.398 211.872 179.854 212.278 181.473 212.278Z" fill="#434343"/>
<path d="M190.047 206.128C192.069 206.128 193.525 204.672 194.741 203.297C196.034 201.678 197.247 199.981 198.462 198.281C199.35 196.906 200.322 195.45 201.212 194.075C202.1 192.7 202.991 191.325 203.881 189.95C203.962 189.706 204.206 189.381 204.447 188.978C204.691 188.575 204.853 188.169 204.853 187.925C204.853 187.847 204.772 187.684 204.691 187.603C204.528 187.359 204.284 187.278 203.962 187.278C203.719 187.278 203.478 187.359 203.316 187.522C203.234 187.603 203.153 187.765 203.153 187.847C203.072 187.925 202.991 188.087 202.909 188.169L198.056 195.45C197.084 197.069 192.15 204.025 190.372 204.025C190.047 204.025 189.806 203.703 189.725 203.134V202.569C189.644 200.628 189.806 198.606 190.128 196.662L190.612 194.64C190.775 194.075 191.1 193.75 191.584 193.669C191.991 193.59 192.312 193.428 192.637 193.347C192.959 193.265 193.284 193.184 193.606 193.022C195.791 191.728 198.056 189.787 198.784 187.197C199.35 185.5 198.866 184.365 197.247 183.637C196.519 183.234 195.953 183.234 195.062 183.234C194.416 183.234 193.769 183.478 193.041 183.881C192.394 184.365 191.909 184.853 191.503 185.256C190.534 186.228 189.725 187.44 189.078 188.653C186.894 193.103 185.922 197.715 186.247 202.487L186.487 203.781C186.894 205.4 188.509 206.128 190.047 206.128ZM191.828 191.972C191.584 191.89 191.584 191.728 191.666 191.487C192.15 189.869 194.578 184.934 196.356 184.934C196.681 184.934 196.925 185.094 197.006 185.5V185.662C197.006 187.925 194.253 191.162 192.15 191.972C192.069 192.053 191.909 192.053 191.828 191.972Z" fill="#434343"/>
<path d="M212.132 208.312C212.697 208.312 213.266 208.15 213.751 207.909C214.316 207.503 214.882 207.019 215.288 206.453L216.744 204.269C217.794 202.406 218.929 200.547 219.979 198.684C221.032 196.906 222.082 195.047 223.135 193.184C223.538 192.456 223.944 191.728 224.266 191C224.591 190.272 224.913 189.462 225.319 188.734C225.563 188.331 225.319 188.006 224.754 187.925C224.672 187.847 224.51 187.847 224.347 187.847C224.026 187.847 223.782 188.006 223.619 188.25L222.81 189.787C220.304 194.64 217.554 199.253 214.397 203.781C214.076 204.187 213.751 204.59 213.347 204.915C213.347 204.997 213.266 204.997 213.022 204.997C213.022 204.915 213.022 204.915 212.941 204.834C212.697 204.187 212.941 203.54 213.022 202.894C213.669 199.656 214.397 196.503 215.288 193.265L217.229 185.744C217.391 184.934 217.472 184.125 217.472 183.315C217.391 182.587 217.066 182.103 216.582 181.859L216.097 181.615C215.935 181.534 215.691 181.453 215.369 181.453C214.316 181.453 212.697 183.881 212.213 184.853L208.332 192.053C207.279 193.912 206.066 195.694 204.851 197.553C204.769 197.634 204.691 197.715 204.447 197.797C204.204 197.878 204.122 197.715 204.122 197.231C204.122 196.825 204.122 196.503 204.204 196.259C204.447 195.206 204.61 194.075 204.851 192.94C205.013 191.809 205.257 190.678 205.497 189.544C205.579 188.978 205.741 188.412 205.904 187.847C205.985 187.359 206.147 186.794 206.226 186.228C206.307 185.744 206.066 185.419 205.66 185.175L205.176 184.934H205.013C204.447 184.934 204.122 185.337 203.882 185.903L203.154 187.847C201.938 191.487 201.291 195.206 200.969 199.009C200.807 200.222 201.291 201.031 202.344 201.519L202.666 201.597C203.072 201.759 203.476 201.84 203.719 201.84C204.366 201.84 204.851 201.597 205.257 201.031C205.66 200.628 205.985 200.222 206.226 199.656C207.522 197.472 208.816 195.206 210.029 193.022L213.347 187.037C213.426 186.794 213.588 186.631 213.669 186.55H213.994C213.994 186.55 213.994 186.631 214.076 186.712L213.588 188.494C212.538 191.809 211.485 195.047 210.594 198.525C209.866 201.356 209.544 203.54 209.544 206.372C209.626 206.937 209.866 207.262 210.272 207.503C210.838 207.99 211.404 208.231 212.132 208.312Z" fill="#434343"/>
<path d="M221.517 215.431C222.892 215.431 223.783 215.268 224.67 214.056L225.158 213.49C226.695 211.306 228.152 209.203 229.364 206.937C229.767 206.047 230.174 205.318 230.739 204.428L233.408 199.818C234.299 198.118 235.27 196.503 236.158 194.803C237.049 193.184 238.02 191.487 238.911 189.787C239.07 189.543 239.233 189.222 239.477 188.815C239.558 188.412 239.477 188.168 239.152 188.006C238.911 187.847 238.749 187.765 238.505 187.765C238.342 187.765 238.183 187.847 238.102 187.925L237.533 188.653L234.864 193.509C234.217 194.559 233.652 195.612 233.005 196.825C231.789 198.847 230.658 200.95 229.527 202.975C228.311 205.078 227.099 207.181 225.886 209.203C225.239 210.253 224.43 211.306 223.702 212.278C223.62 212.437 223.458 212.6 223.377 212.843C223.295 213.006 223.136 213.084 222.892 213.006C222.649 212.925 222.486 212.762 222.486 212.518C222.408 212.278 222.408 212.115 222.327 211.872C222.327 204.187 224.349 196.743 226.533 189.543C226.774 189.059 229.527 180.078 229.93 179.675C230.092 179.431 230.255 179.272 230.495 179.109C232.033 178.3 240.205 177.087 242.227 176.843C244.167 176.6 246.27 176.359 248.133 175.709C248.292 175.631 248.455 175.468 248.536 175.225C248.699 174.822 248.617 174.334 248.214 173.85C248.052 173.687 247.889 173.606 247.645 173.606L243.358 174.415C242.308 174.578 241.336 174.74 240.286 174.903C239.233 175.062 238.261 175.225 237.211 175.468C236.32 175.55 235.511 175.709 234.702 175.872C233.814 176.115 233.005 176.278 232.195 176.359C232.033 176.437 231.87 176.437 231.63 176.437C231.467 176.278 231.386 176.197 231.386 176.115C231.386 175.953 231.467 175.631 231.549 175.225C231.87 174.334 232.195 173.365 232.517 172.475C232.761 171.584 233.086 170.693 233.408 169.806C233.489 169.4 233.57 168.997 233.57 168.672C233.652 168.512 233.57 168.35 233.408 168.187C233.167 167.784 232.761 167.54 232.358 167.54C231.305 167.54 230.577 169.887 230.011 170.693C229.12 172.393 228.392 174.012 227.664 175.872C226.614 177.893 227.099 177.409 224.914 178.056C224.833 178.137 224.752 178.137 224.589 178.137C223.539 178.381 222.567 178.703 221.599 178.947C220.627 179.19 219.655 179.512 218.686 179.756C218.524 179.837 218.361 179.837 218.199 179.918C218.039 180 217.877 180.159 217.633 180.24C217.552 180.322 217.552 180.403 217.552 180.565C217.633 180.968 218.039 181.453 218.361 181.453C218.605 181.534 218.767 181.534 218.927 181.534C219.17 181.534 219.333 181.534 219.495 181.534C220.061 181.453 220.545 181.293 221.03 181.212C221.517 181.131 222.002 180.968 222.486 180.887C222.892 180.806 223.295 180.647 223.702 180.565C224.105 180.484 224.511 180.403 224.914 180.322H225.077C225.642 180.322 225.886 180.565 225.642 181.05C225.561 181.453 225.399 181.859 225.239 182.262C225.077 182.668 224.914 182.99 224.833 183.397C221.839 192.134 219.817 200.709 218.927 209.85C218.927 210.9 219.008 211.872 219.252 212.925C219.574 214.137 220.142 215.19 221.517 215.431Z" fill="#434343"/>
<path d="M237.938 206.128C239.96 206.128 241.416 204.672 242.631 203.297C243.925 201.678 245.138 199.981 246.353 198.281C247.241 196.906 248.213 195.45 249.103 194.075C249.991 192.7 250.881 191.325 251.772 189.95C251.853 189.706 252.097 189.381 252.338 188.978C252.581 188.575 252.744 188.169 252.744 187.925C252.744 187.847 252.663 187.684 252.581 187.603C252.419 187.359 252.175 187.278 251.853 187.278C251.61 187.278 251.369 187.359 251.206 187.522C251.125 187.603 251.044 187.765 251.044 187.847C250.963 187.925 250.881 188.087 250.8 188.169L245.947 195.45C244.975 197.069 240.041 204.025 238.263 204.025C237.938 204.025 237.697 203.703 237.616 203.134V202.569C237.535 200.628 237.697 198.606 238.019 196.662L238.503 194.64C238.666 194.075 238.991 193.75 239.475 193.669C239.881 193.59 240.203 193.428 240.528 193.347C240.85 193.265 241.175 193.184 241.497 193.022C243.681 191.728 245.947 189.787 246.675 187.197C247.241 185.5 246.756 184.365 245.138 183.637C244.41 183.234 243.844 183.234 242.953 183.234C242.306 183.234 241.66 183.478 240.931 183.881C240.285 184.365 239.8 184.853 239.394 185.256C238.425 186.228 237.616 187.44 236.969 188.653C234.785 193.103 233.813 197.715 234.138 202.487L234.378 203.781C234.785 205.4 236.4 206.128 237.938 206.128ZM239.719 191.972C239.475 191.89 239.475 191.728 239.556 191.487C240.041 189.869 242.469 184.934 244.247 184.934C244.572 184.934 244.816 185.094 244.897 185.5V185.662C244.897 187.925 242.144 191.162 240.041 191.972C239.96 192.053 239.8 192.053 239.719 191.972Z" fill="#434343"/>
</svg>
