<svg width="949" height="172" viewBox="0 0 949 172" fill="none" xmlns="http://www.w3.org/2000/svg">
<g opacity="0.3">
<circle cx="746" cy="79" r="5" fill="#00ADAD"/>
<circle cx="746" cy="101" r="5" fill="#00ADAD"/>
<circle cx="746" cy="123" r="5" fill="#00ADAD"/>
<circle cx="746" cy="145" r="5" fill="#00ADAD"/>
<circle cx="746" cy="167" r="5" fill="#00ADAD"/>
<circle cx="768" cy="79" r="5" fill="#00ADAD"/>
<circle cx="768" cy="101" r="5" fill="#00ADAD"/>
<circle cx="768" cy="123" r="5" fill="#00ADAD"/>
<circle cx="768" cy="145" r="5" fill="#00ADAD"/>
<circle cx="768" cy="167" r="5" fill="#00ADAD"/>
<circle cx="790" cy="79" r="5" fill="#00ADAD"/>
<circle cx="790" cy="101" r="5" fill="#00ADAD"/>
<circle cx="790" cy="123" r="5" fill="#00ADAD"/>
<circle cx="790" cy="145" r="5" fill="#00ADAD"/>
<circle cx="790" cy="167" r="5" fill="#00ADAD"/>
<circle cx="812" cy="79" r="5" fill="#00ADAD"/>
<circle cx="812" cy="101" r="5" fill="#00ADAD"/>
<circle cx="812" cy="123" r="5" fill="#00ADAD"/>
<circle cx="812" cy="145" r="5" fill="#00ADAD"/>
<circle cx="812" cy="167" r="5" fill="#00ADAD"/>
<circle cx="834" cy="79" r="5" fill="#00ADAD"/>
<circle cx="834" cy="101" r="5" fill="#00ADAD"/>
<circle cx="834" cy="123" r="5" fill="#00ADAD"/>
<circle cx="834" cy="145" r="5" fill="#00ADAD"/>
<circle cx="834" cy="167" r="5" fill="#00ADAD"/>
<circle cx="856" cy="79" r="5" fill="#00ADAD"/>
<circle cx="856" cy="101" r="5" fill="#00ADAD"/>
<circle cx="856" cy="123" r="5" fill="#00ADAD"/>
<circle cx="856" cy="145" r="5" fill="#00ADAD"/>
<circle cx="856" cy="167" r="5" fill="#00ADAD"/>
<circle cx="878" cy="79" r="5" fill="#00ADAD"/>
<circle cx="878" cy="101" r="5" fill="#00ADAD"/>
<circle cx="878" cy="123" r="5" fill="#00ADAD"/>
<circle cx="878" cy="145" r="5" fill="#00ADAD"/>
<circle cx="878" cy="167" r="5" fill="#00ADAD"/>
<circle cx="900" cy="79" r="5" fill="#00ADAD"/>
<circle cx="900" cy="101" r="5" fill="#00ADAD"/>
<circle cx="900" cy="123" r="5" fill="#00ADAD"/>
<circle cx="900" cy="145" r="5" fill="#00ADAD"/>
<circle cx="900" cy="167" r="5" fill="#00ADAD"/>
<circle cx="922" cy="79" r="5" fill="#00ADAD"/>
<circle cx="922" cy="101" r="5" fill="#00ADAD"/>
<circle cx="922" cy="123" r="5" fill="#00ADAD"/>
<circle cx="922" cy="145" r="5" fill="#00ADAD"/>
<circle cx="922" cy="167" r="5" fill="#00ADAD"/>
<circle cx="944" cy="79" r="5" fill="#00ADAD"/>
<circle cx="944" cy="101" r="5" fill="#00ADAD"/>
<circle cx="944" cy="123" r="5" fill="#00ADAD"/>
<circle cx="944" cy="145" r="5" fill="#00ADAD"/>
<circle cx="944" cy="167" r="5" fill="#00ADAD"/>
</g>
<g opacity="0.3">
<circle cx="5" cy="5" r="5" fill="#00ADAD"/>
<circle cx="5" cy="27" r="5" fill="#00ADAD"/>
<circle cx="5" cy="49" r="5" fill="#00ADAD"/>
<circle cx="5" cy="70.9999" r="5" fill="#00ADAD"/>
<circle cx="5" cy="93" r="5" fill="#00ADAD"/>
<circle cx="27" cy="5" r="5" fill="#00ADAD"/>
<circle cx="27" cy="27" r="5" fill="#00ADAD"/>
<circle cx="27" cy="49" r="5" fill="#00ADAD"/>
<circle cx="27" cy="70.9999" r="5" fill="#00ADAD"/>
<circle cx="27" cy="93" r="5" fill="#00ADAD"/>
<circle cx="49" cy="5" r="5" fill="#00ADAD"/>
<circle cx="49" cy="27" r="5" fill="#00ADAD"/>
<circle cx="49" cy="49" r="5" fill="#00ADAD"/>
<circle cx="49" cy="70.9999" r="5" fill="#00ADAD"/>
<circle cx="49" cy="93" r="5" fill="#00ADAD"/>
<circle cx="71" cy="5" r="5" fill="#00ADAD"/>
<circle cx="71" cy="27" r="5" fill="#00ADAD"/>
<circle cx="71" cy="49" r="5" fill="#00ADAD"/>
<circle cx="71" cy="70.9999" r="5" fill="#00ADAD"/>
<circle cx="71" cy="93" r="5" fill="#00ADAD"/>
<circle cx="93" cy="5" r="5" fill="#00ADAD"/>
<circle cx="93" cy="27" r="5" fill="#00ADAD"/>
<circle cx="93" cy="49" r="5" fill="#00ADAD"/>
<circle cx="93" cy="70.9999" r="5" fill="#00ADAD"/>
<circle cx="93" cy="93" r="5" fill="#00ADAD"/>
<circle cx="115" cy="5" r="5" fill="#00ADAD"/>
<circle cx="115" cy="27" r="5" fill="#00ADAD"/>
<circle cx="115" cy="49" r="5" fill="#00ADAD"/>
<circle cx="115" cy="70.9999" r="5" fill="#00ADAD"/>
<circle cx="115" cy="93" r="5" fill="#00ADAD"/>
<circle cx="137" cy="5" r="5" fill="#00ADAD"/>
<circle cx="137" cy="27" r="5" fill="#00ADAD"/>
<circle cx="137" cy="49" r="5" fill="#00ADAD"/>
<circle cx="137" cy="70.9999" r="5" fill="#00ADAD"/>
<circle cx="137" cy="93" r="5" fill="#00ADAD"/>
<circle cx="159" cy="5" r="5" fill="#00ADAD"/>
<circle cx="159" cy="27" r="5" fill="#00ADAD"/>
<circle cx="159" cy="49" r="5" fill="#00ADAD"/>
<circle cx="159" cy="70.9999" r="5" fill="#00ADAD"/>
<circle cx="159" cy="93" r="5" fill="#00ADAD"/>
<circle cx="181" cy="5" r="5" fill="#00ADAD"/>
<circle cx="181" cy="27" r="5" fill="#00ADAD"/>
<circle cx="181" cy="49" r="5" fill="#00ADAD"/>
<circle cx="181" cy="70.9999" r="5" fill="#00ADAD"/>
<circle cx="181" cy="93" r="5" fill="#00ADAD"/>
<circle cx="203" cy="5" r="5" fill="#00ADAD"/>
<circle cx="203" cy="27" r="5" fill="#00ADAD"/>
<circle cx="203" cy="49" r="5" fill="#00ADAD"/>
<circle cx="203" cy="70.9999" r="5" fill="#00ADAD"/>
<circle cx="203" cy="93" r="5" fill="#00ADAD"/>
</g>
<rect x="83" y="46" width="292" height="70" fill="#49CCCC"/>
<path d="M115.415 102L106.135 70.738H105.903C105.98 71.5113 106.058 72.6327 106.135 74.102C106.212 75.5327 106.29 77.0793 106.367 78.742C106.444 80.366 106.483 81.8933 106.483 83.324V102H97.6669V60.588H111.007L120.229 91.212H120.461L129.973 60.588H143.255V102H134.091V83.092C134.091 81.7773 134.11 80.3273 134.149 78.742C134.226 77.118 134.284 75.5907 134.323 74.16C134.4 72.6907 134.458 71.5693 134.497 70.796H134.265L124.695 102H115.415ZM177.191 102H153.005V60.588H177.191V68.592H162.865V76.538H176.147V84.542H162.865V93.88H177.191V102ZM178.235 48.582C177.616 49.1233 176.823 49.7807 175.857 50.554C174.89 51.3273 173.846 52.1393 172.725 52.99C171.642 53.8407 170.579 54.6527 169.535 55.426C168.491 56.1607 167.601 56.7793 166.867 57.282H160.371V56.528C160.989 55.7933 161.743 54.9427 162.633 53.976C163.522 52.9707 164.392 51.946 165.243 50.902C166.132 49.8193 166.847 48.8527 167.389 48.002H178.235V48.582ZM219.861 80.656C219.861 85.3733 218.971 89.3173 217.193 92.488C215.414 95.6587 212.862 98.0367 209.537 99.622C206.211 101.207 202.248 102 197.647 102H185.177V60.588H198.807C203.176 60.588 206.927 61.3613 210.059 62.908C213.229 64.4547 215.646 66.7167 217.309 69.694C219.01 72.6327 219.861 76.2867 219.861 80.656ZM209.653 81.004C209.653 78.1813 209.247 75.8613 208.435 74.044C207.661 72.2267 206.482 70.8733 204.897 69.984C203.35 69.0947 201.417 68.65 199.097 68.65H195.037V93.88H198.227C202.132 93.88 205.013 92.8167 206.869 90.69C208.725 88.5247 209.653 85.296 209.653 81.004ZM245.108 102H224.982V96.374L230.086 94.228V68.36L224.982 66.214V60.588H245.108V66.214L240.004 68.36V94.228L245.108 96.374V102ZM269.879 68.186C268.371 68.186 267.018 68.4953 265.819 69.114C264.659 69.694 263.673 70.564 262.861 71.724C262.049 72.884 261.431 74.276 261.005 75.9C260.58 77.524 260.367 79.3607 260.367 81.41C260.367 84.194 260.715 86.5527 261.411 88.486C262.107 90.4193 263.171 91.8887 264.601 92.894C266.071 93.8993 267.927 94.402 270.169 94.402C271.909 94.402 273.63 94.1893 275.331 93.764C277.033 93.3 278.831 92.72 280.725 92.024V100.376C278.908 101.149 277.071 101.71 275.215 102.058C273.359 102.406 271.349 102.58 269.183 102.58C264.814 102.58 261.218 101.71 258.395 99.97C255.611 98.1913 253.543 95.7167 252.189 92.546C250.875 89.3367 250.217 85.6053 250.217 81.352C250.217 78.22 250.643 75.3587 251.493 72.768C252.344 70.1387 253.601 67.8767 255.263 65.982C256.965 64.0873 259.033 62.618 261.469 61.574C263.905 60.53 266.728 60.008 269.937 60.008C271.948 60.008 274.017 60.2593 276.143 60.762C278.309 61.2647 280.377 61.98 282.349 62.908L279.275 70.796C277.729 70.0613 276.182 69.4427 274.635 68.94C273.089 68.4373 271.503 68.186 269.879 68.186ZM326.142 81.236C326.142 84.4453 325.755 87.3647 324.982 89.994C324.209 92.5847 323.01 94.8273 321.386 96.722C319.762 98.6167 317.693 100.067 315.18 101.072C312.667 102.077 309.689 102.58 306.248 102.58C302.845 102.58 299.887 102.077 297.374 101.072C294.861 100.028 292.792 98.578 291.168 96.722C289.544 94.8273 288.326 92.5653 287.514 89.936C286.741 87.3067 286.354 84.3873 286.354 81.178C286.354 76.886 287.05 73.1547 288.442 69.984C289.873 66.8133 292.057 64.358 294.996 62.618C297.973 60.8393 301.743 59.95 306.306 59.95C310.907 59.95 314.658 60.8393 317.558 62.618C320.497 64.358 322.662 66.8327 324.054 70.042C325.446 73.2127 326.142 76.944 326.142 81.236ZM296.736 81.236C296.736 83.9427 297.065 86.282 297.722 88.254C298.379 90.1873 299.404 91.676 300.796 92.72C302.227 93.764 304.044 94.286 306.248 94.286C308.529 94.286 310.366 93.764 311.758 92.72C313.15 91.676 314.155 90.1873 314.774 88.254C315.431 86.282 315.76 83.9427 315.76 81.236C315.76 77.1373 315.025 73.928 313.556 71.608C312.125 69.288 309.709 68.128 306.306 68.128C304.063 68.128 302.227 68.6693 300.796 69.752C299.404 70.796 298.379 72.304 297.722 74.276C297.065 76.2093 296.736 78.5293 296.736 81.236ZM359.834 89.994C359.834 92.3527 359.254 94.4987 358.094 96.432C356.934 98.3267 355.194 99.8347 352.874 100.956C350.554 102.039 347.635 102.58 344.116 102.58C342.492 102.58 340.984 102.483 339.592 102.29C338.2 102.097 336.866 101.826 335.59 101.478C334.353 101.091 333.135 100.608 331.936 100.028V91.038C334.024 92.0047 336.151 92.8167 338.316 93.474C340.52 94.1313 342.628 94.46 344.638 94.46C345.914 94.46 346.939 94.3053 347.712 93.996C348.524 93.648 349.104 93.2033 349.452 92.662C349.839 92.082 350.032 91.4247 350.032 90.69C350.032 89.8007 349.723 89.0467 349.104 88.428C348.524 87.7707 347.654 87.152 346.494 86.572C345.334 85.9533 343.923 85.2573 342.26 84.484C341.023 83.9427 339.805 83.324 338.606 82.628C337.446 81.8933 336.383 81.062 335.416 80.134C334.488 79.1673 333.734 78.0267 333.154 76.712C332.613 75.3587 332.342 73.7733 332.342 71.956C332.342 69.3653 332.942 67.2 334.14 65.46C335.378 63.6813 337.098 62.328 339.302 61.4C341.506 60.472 344.097 60.008 347.074 60.008C349.51 60.008 351.753 60.2787 353.802 60.82C355.852 61.3613 357.843 62.0573 359.776 62.908L356.644 70.622C354.788 69.81 353.048 69.1913 351.424 68.766C349.839 68.302 348.292 68.07 346.784 68.07C345.74 68.07 344.87 68.2247 344.174 68.534C343.478 68.8047 342.956 69.2107 342.608 69.752C342.26 70.2547 342.086 70.854 342.086 71.55C342.086 72.362 342.357 73.0773 342.898 73.696C343.44 74.276 344.29 74.8753 345.45 75.494C346.61 76.1127 348.138 76.8667 350.032 77.756C352.082 78.684 353.841 79.6893 355.31 80.772C356.78 81.8547 357.901 83.1307 358.674 84.6C359.448 86.0307 359.834 87.8287 359.834 89.994Z" fill="white"/>
<path d="M445.661 102H439.571L417.415 67.606H417.183C417.222 68.302 417.26 69.0753 417.299 69.926C417.376 70.7767 417.434 71.7047 417.473 72.71C417.512 73.6767 417.55 74.682 417.589 75.726C417.628 76.77 417.647 77.814 417.647 78.858V102H412.833V60.588H418.865L440.963 94.866H441.195C441.156 94.402 441.118 93.764 441.079 92.952C441.04 92.1013 441.002 91.1733 440.963 90.168C440.924 89.124 440.886 88.0607 440.847 86.978C440.808 85.8953 440.789 84.89 440.789 83.962V60.588H445.661V102ZM482.883 102L477.895 89.182H461.481L456.551 102H451.273L467.455 60.414H472.153L488.277 102H482.883ZM471.689 72.014C471.573 71.7047 471.38 71.144 471.109 70.332C470.839 69.52 470.568 68.6887 470.297 67.838C470.065 66.9487 469.872 66.272 469.717 65.808C469.524 66.5813 469.311 67.374 469.079 68.186C468.886 68.9593 468.673 69.6747 468.441 70.332C468.248 70.9893 468.074 71.55 467.919 72.014L463.221 84.542H476.329L471.689 72.014ZM519.971 60.588C525.384 60.588 529.328 61.6513 531.803 63.778C534.277 65.9047 535.515 68.9013 535.515 72.768C535.515 74.4693 535.225 76.1127 534.645 77.698C534.103 79.2447 533.195 80.6367 531.919 81.874C530.643 83.1113 528.941 84.0973 526.815 84.832C524.688 85.528 522.078 85.876 518.985 85.876H514.229V102H509.009V60.588H519.971ZM519.507 65.054H514.229V81.41H518.405C521.034 81.41 523.219 81.1393 524.959 80.598C526.699 80.018 527.994 79.1093 528.845 77.872C529.695 76.6347 530.121 75.0107 530.121 73C530.121 70.332 529.27 68.3407 527.569 67.026C525.867 65.7113 523.18 65.054 519.507 65.054ZM544.126 102V60.588H549.346V97.36H567.442V102H544.126ZM600.526 102L595.538 89.182H579.124L574.194 102H568.916L585.098 60.414H589.796L605.92 102H600.526ZM589.332 72.014C589.216 71.7047 589.023 71.144 588.752 70.332C588.481 69.52 588.211 68.6887 587.94 67.838C587.708 66.9487 587.515 66.272 587.36 65.808C587.167 66.5813 586.954 67.374 586.722 68.186C586.529 68.9593 586.316 69.6747 586.084 70.332C585.891 70.9893 585.717 71.55 585.562 72.014L580.864 84.542H593.972L589.332 72.014ZM620.615 102H615.395V65.17H602.461V60.588H633.491V65.17H620.615V102ZM661.641 102L656.653 89.182H640.239L635.309 102H630.031L646.213 60.414H650.911L667.035 102H661.641ZM650.447 72.014C650.331 71.7047 650.138 71.144 649.867 70.332C649.597 69.52 649.326 68.6887 649.055 67.838C648.823 66.9487 648.63 66.272 648.475 65.808C648.282 66.5813 648.069 67.374 647.837 68.186C647.644 68.9593 647.431 69.6747 647.199 70.332C647.006 70.9893 646.832 71.55 646.677 72.014L641.979 84.542H655.087L650.447 72.014ZM677.92 102H672.7V60.588H695.842V65.17H677.92V79.844H694.74V84.426H677.92V102ZM738.91 81.236C738.91 84.4453 738.504 87.3647 737.692 89.994C736.88 92.5847 735.662 94.8273 734.038 96.722C732.453 98.6167 730.462 100.067 728.064 101.072C725.706 102.077 722.96 102.58 719.828 102.58C716.58 102.58 713.758 102.077 711.36 101.072C708.963 100.028 706.972 98.578 705.386 96.722C703.801 94.8273 702.622 92.5653 701.848 89.936C701.075 87.3067 700.688 84.3873 700.688 81.178C700.688 76.9247 701.384 73.2127 702.776 70.042C704.168 66.8713 706.276 64.3967 709.098 62.618C711.96 60.8393 715.556 59.95 719.886 59.95C724.024 59.95 727.504 60.8393 730.326 62.618C733.149 64.358 735.276 66.8327 736.706 70.042C738.176 73.2127 738.91 76.944 738.91 81.236ZM706.198 81.236C706.198 84.716 706.682 87.7127 707.648 90.226C708.615 92.7393 710.104 94.6727 712.114 96.026C714.164 97.3793 716.735 98.056 719.828 98.056C722.96 98.056 725.512 97.3793 727.484 96.026C729.495 94.6727 730.984 92.7393 731.95 90.226C732.917 87.7127 733.4 84.716 733.4 81.236C733.4 76.016 732.318 71.9367 730.152 68.998C727.987 66.0207 724.565 64.532 719.886 64.532C716.754 64.532 714.164 65.2087 712.114 66.562C710.104 67.8767 708.615 69.7907 707.648 72.304C706.682 74.7787 706.198 77.756 706.198 81.236ZM759.515 60.588C762.956 60.588 765.779 61.0327 767.983 61.922C770.226 62.7727 771.888 64.068 772.971 65.808C774.054 67.548 774.595 69.7327 774.595 72.362C774.595 74.566 774.189 76.4027 773.377 77.872C772.565 79.3413 771.521 80.5207 770.245 81.41C769.008 82.2607 767.693 82.9373 766.301 83.44L777.669 102H771.579L761.545 84.89H753.309V102H748.089V60.588H759.515ZM759.225 65.112H753.309V80.482H759.515C761.758 80.482 763.594 80.192 765.025 79.612C766.456 78.9933 767.5 78.104 768.157 76.944C768.853 75.784 769.201 74.334 769.201 72.594C769.201 70.7767 768.834 69.3267 768.099 68.244C767.403 67.1613 766.32 66.3687 764.851 65.866C763.382 65.3633 761.506 65.112 759.225 65.112ZM802.439 102L788.809 65.692H788.577C788.654 66.4653 788.712 67.4513 788.751 68.65C788.828 69.8487 788.886 71.1633 788.925 72.594C788.964 73.986 788.983 75.4167 788.983 76.886V102H784.169V60.588H791.883L804.643 94.518H804.875L817.867 60.588H825.523V102H820.361V76.538C820.361 75.1847 820.38 73.8507 820.419 72.536C820.458 71.1827 820.516 69.926 820.593 68.766C820.67 67.5673 820.728 66.562 820.767 65.75H820.535L806.731 102H802.439ZM862.772 102L857.784 89.182H841.37L836.44 102H831.162L847.344 60.414H852.042L868.166 102H862.772ZM851.578 72.014C851.462 71.7047 851.269 71.144 850.998 70.332C850.727 69.52 850.457 68.6887 850.186 67.838C849.954 66.9487 849.761 66.272 849.606 65.808C849.413 66.5813 849.2 67.374 848.968 68.186C848.775 68.9593 848.562 69.6747 848.33 70.332C848.137 70.9893 847.963 71.55 847.808 72.014L843.11 84.542H856.218L851.578 72.014Z" fill="#222222"/>
</svg>
