<svg width="707" height="137" viewBox="0 0 707 137" fill="none" xmlns="http://www.w3.org/2000/svg">
<g opacity="0.3">
<circle cx="439.582" cy="6.58163" r="6.58163" fill="#00ADAD"/>
<circle cx="439.582" cy="35.5409" r="6.58163" fill="#00ADAD"/>
<circle cx="439.582" cy="64.5001" r="6.58163" fill="#00ADAD"/>
<circle cx="439.582" cy="93.4591" r="6.58163" fill="#00ADAD"/>
<circle cx="439.582" cy="122.418" r="6.58163" fill="#00ADAD"/>
<circle cx="468.541" cy="6.58163" r="6.58163" fill="#00ADAD"/>
<circle cx="468.541" cy="35.5409" r="6.58163" fill="#00ADAD"/>
<circle cx="468.541" cy="64.5001" r="6.58163" fill="#00ADAD"/>
<circle cx="468.541" cy="93.4591" r="6.58163" fill="#00ADAD"/>
<circle cx="468.541" cy="122.418" r="6.58163" fill="#00ADAD"/>
<circle cx="497.5" cy="6.58163" r="6.58163" fill="#00ADAD"/>
<circle cx="497.5" cy="35.5409" r="6.58163" fill="#00ADAD"/>
<circle cx="497.5" cy="64.5001" r="6.58163" fill="#00ADAD"/>
<circle cx="497.5" cy="93.4591" r="6.58163" fill="#00ADAD"/>
<circle cx="497.5" cy="122.418" r="6.58163" fill="#00ADAD"/>
<circle cx="526.459" cy="6.58163" r="6.58163" fill="#00ADAD"/>
<circle cx="526.459" cy="35.5409" r="6.58163" fill="#00ADAD"/>
<circle cx="526.459" cy="64.5001" r="6.58163" fill="#00ADAD"/>
<circle cx="526.459" cy="93.4591" r="6.58163" fill="#00ADAD"/>
<circle cx="526.459" cy="122.418" r="6.58163" fill="#00ADAD"/>
<circle cx="555.419" cy="6.58163" r="6.58163" fill="#00ADAD"/>
<circle cx="555.419" cy="35.5409" r="6.58163" fill="#00ADAD"/>
<circle cx="555.419" cy="64.5001" r="6.58163" fill="#00ADAD"/>
<circle cx="555.419" cy="93.4591" r="6.58163" fill="#00ADAD"/>
<circle cx="555.419" cy="122.418" r="6.58163" fill="#00ADAD"/>
<circle cx="584.378" cy="6.58163" r="6.58163" fill="#00ADAD"/>
<circle cx="584.378" cy="35.5409" r="6.58163" fill="#00ADAD"/>
<circle cx="584.378" cy="64.5001" r="6.58163" fill="#00ADAD"/>
<circle cx="584.378" cy="93.4591" r="6.58163" fill="#00ADAD"/>
<circle cx="584.378" cy="122.418" r="6.58163" fill="#00ADAD"/>
<circle cx="613.336" cy="6.58163" r="6.58163" fill="#00ADAD"/>
<circle cx="613.336" cy="35.5409" r="6.58163" fill="#00ADAD"/>
<circle cx="613.336" cy="64.5001" r="6.58163" fill="#00ADAD"/>
<circle cx="613.336" cy="93.4591" r="6.58163" fill="#00ADAD"/>
<circle cx="613.336" cy="122.418" r="6.58163" fill="#00ADAD"/>
<circle cx="642.296" cy="6.58163" r="6.58163" fill="#00ADAD"/>
<circle cx="642.296" cy="35.5409" r="6.58163" fill="#00ADAD"/>
<circle cx="642.296" cy="64.5001" r="6.58163" fill="#00ADAD"/>
<circle cx="642.296" cy="93.4591" r="6.58163" fill="#00ADAD"/>
<circle cx="642.296" cy="122.418" r="6.58163" fill="#00ADAD"/>
<circle cx="671.255" cy="6.58163" r="6.58163" fill="#00ADAD"/>
<circle cx="671.255" cy="35.5409" r="6.58163" fill="#00ADAD"/>
<circle cx="671.255" cy="64.5001" r="6.58163" fill="#00ADAD"/>
<circle cx="671.255" cy="93.4591" r="6.58163" fill="#00ADAD"/>
<circle cx="671.255" cy="122.418" r="6.58163" fill="#00ADAD"/>
<circle cx="700.214" cy="6.58163" r="6.58163" fill="#00ADAD"/>
<circle cx="700.214" cy="35.5409" r="6.58163" fill="#00ADAD"/>
<circle cx="700.214" cy="64.5001" r="6.58163" fill="#00ADAD"/>
<circle cx="700.214" cy="93.4591" r="6.58163" fill="#00ADAD"/>
<circle cx="700.214" cy="122.418" r="6.58163" fill="#00ADAD"/>
</g>
<rect y="67" width="523" height="70" fill="#49CCCC"/>
<path d="M71.8707 118L63.6147 91.12H63.4227C63.4547 91.76 63.5027 92.72 63.5667 94C63.6307 95.28 63.6947 96.656 63.7587 98.128C63.8227 99.568 63.8547 100.88 63.8547 102.064V118H57.3747V83.728H67.2627L75.3747 109.936H75.5187L84.1107 83.728H93.9987V118H87.2307V101.776C87.2307 100.688 87.2467 99.44 87.2787 98.032C87.3427 96.624 87.3907 95.296 87.4227 94.048C87.4867 92.768 87.5347 91.808 87.5667 91.168H87.3747L78.5427 118H71.8707ZM109.232 91.792V118H102.08V91.792H109.232ZM105.68 81.52C106.736 81.52 107.648 81.776 108.416 82.288C109.184 82.768 109.568 83.68 109.568 85.024C109.568 86.336 109.184 87.248 108.416 87.76C107.648 88.272 106.736 88.528 105.68 88.528C104.592 88.528 103.664 88.272 102.896 87.76C102.16 87.248 101.792 86.336 101.792 85.024C101.792 83.68 102.16 82.768 102.896 82.288C103.664 81.776 104.592 81.52 105.68 81.52ZM131.585 91.312C134.401 91.312 136.657 92.08 138.353 93.616C140.049 95.12 140.897 97.552 140.897 100.912V118H133.745V102.688C133.745 100.8 133.409 99.392 132.737 98.464C132.065 97.504 130.993 97.024 129.521 97.024C127.345 97.024 125.857 97.776 125.057 99.28C124.257 100.752 123.857 102.88 123.857 105.664V118H116.705V91.792H122.177L123.137 95.152H123.521C124.097 94.256 124.801 93.536 125.633 92.992C126.465 92.416 127.393 92 128.417 91.744C129.441 91.456 130.497 91.312 131.585 91.312ZM155.404 88.96C155.404 90.24 155.356 91.472 155.26 92.656C155.196 93.84 155.132 94.672 155.068 95.152H155.452C156.028 94.256 156.7 93.536 157.468 92.992C158.236 92.416 159.084 92 160.012 91.744C160.972 91.456 161.98 91.312 163.036 91.312C164.924 91.312 166.572 91.648 167.98 92.32C169.388 92.992 170.476 94.032 171.244 95.44C172.044 96.848 172.444 98.672 172.444 100.912V118H165.292V102.688C165.292 100.8 164.94 99.392 164.236 98.464C163.564 97.504 162.508 97.024 161.068 97.024C159.628 97.024 158.492 97.36 157.66 98.032C156.86 98.704 156.284 99.68 155.932 100.96C155.58 102.24 155.404 103.808 155.404 105.664V118H148.252V81.52H155.404V88.96ZM190.551 91.264C194.071 91.264 196.759 92.032 198.615 93.568C200.503 95.072 201.447 97.392 201.447 100.528V118H196.455L195.063 114.448H194.871C194.135 115.376 193.367 116.144 192.567 116.752C191.799 117.36 190.903 117.792 189.879 118.048C188.887 118.336 187.655 118.48 186.183 118.48C184.647 118.48 183.255 118.192 182.007 117.616C180.791 117.008 179.831 116.096 179.127 114.88C178.423 113.632 178.071 112.064 178.071 110.176C178.071 107.392 179.047 105.344 180.999 104.032C182.951 102.688 185.879 101.952 189.783 101.824L194.343 101.68V100.528C194.343 99.152 193.975 98.144 193.239 97.504C192.535 96.864 191.543 96.544 190.263 96.544C188.983 96.544 187.735 96.736 186.519 97.12C185.303 97.472 184.087 97.92 182.871 98.464L180.519 93.616C181.927 92.88 183.479 92.304 185.175 91.888C186.903 91.472 188.695 91.264 190.551 91.264ZM191.559 105.952C189.255 106.016 187.655 106.432 186.759 107.2C185.863 107.968 185.415 108.976 185.415 110.224C185.415 111.312 185.735 112.096 186.375 112.576C187.015 113.024 187.847 113.248 188.871 113.248C190.407 113.248 191.703 112.8 192.759 111.904C193.815 110.976 194.343 109.68 194.343 108.016V105.856L191.559 105.952ZM227.055 110.224C227.055 111.984 226.639 113.488 225.807 114.736C224.975 115.952 223.727 116.88 222.063 117.52C220.399 118.16 218.335 118.48 215.871 118.48C214.047 118.48 212.479 118.352 211.167 118.096C209.855 117.872 208.543 117.488 207.231 116.944V111.04C208.639 111.68 210.159 112.208 211.791 112.624C213.423 113.04 214.863 113.248 216.111 113.248C217.519 113.248 218.511 113.04 219.087 112.624C219.695 112.208 219.999 111.664 219.999 110.992C219.999 110.544 219.871 110.144 219.615 109.792C219.391 109.44 218.879 109.04 218.079 108.592C217.279 108.144 216.031 107.568 214.335 106.864C212.703 106.16 211.359 105.472 210.303 104.8C209.247 104.096 208.463 103.264 207.951 102.304C207.439 101.312 207.183 100.08 207.183 98.608C207.183 96.176 208.127 94.352 210.015 93.136C211.903 91.92 214.415 91.312 217.551 91.312C219.183 91.312 220.735 91.472 222.207 91.792C223.679 92.112 225.199 92.64 226.767 93.376L224.607 98.512C223.743 98.128 222.911 97.792 222.111 97.504C221.311 97.216 220.527 96.992 219.759 96.832C219.023 96.672 218.255 96.592 217.455 96.592C216.399 96.592 215.599 96.736 215.055 97.024C214.543 97.312 214.287 97.744 214.287 98.32C214.287 98.736 214.415 99.12 214.671 99.472C214.959 99.792 215.487 100.144 216.255 100.528C217.055 100.912 218.223 101.424 219.759 102.064C221.263 102.672 222.559 103.312 223.647 103.984C224.735 104.624 225.567 105.44 226.143 106.432C226.751 107.392 227.055 108.656 227.055 110.224ZM255.752 118.48C253.16 118.48 250.952 118.016 249.128 117.088C247.304 116.128 245.912 114.656 244.952 112.672C243.992 110.688 243.512 108.144 243.512 105.04C243.512 101.84 244.056 99.232 245.144 97.216C246.232 95.2 247.736 93.712 249.656 92.752C251.608 91.792 253.848 91.312 256.376 91.312C258.168 91.312 259.72 91.488 261.032 91.84C262.376 92.192 263.544 92.608 264.536 93.088L262.424 98.608C261.304 98.16 260.248 97.792 259.256 97.504C258.296 97.216 257.336 97.072 256.376 97.072C255.128 97.072 254.088 97.376 253.256 97.984C252.424 98.56 251.8 99.44 251.384 100.624C251 101.776 250.808 103.232 250.808 104.992C250.808 106.72 251.016 108.16 251.432 109.312C251.88 110.432 252.52 111.28 253.352 111.856C254.184 112.4 255.192 112.672 256.376 112.672C257.88 112.672 259.208 112.48 260.36 112.096C261.512 111.68 262.632 111.12 263.72 110.416V116.512C262.632 117.216 261.48 117.712 260.264 118C259.08 118.32 257.576 118.48 255.752 118.48ZM293.56 104.848C293.56 107.024 293.256 108.96 292.648 110.656C292.072 112.352 291.224 113.792 290.104 114.976C289.016 116.128 287.688 117.008 286.12 117.616C284.552 118.192 282.776 118.48 280.792 118.48C278.968 118.48 277.272 118.192 275.704 117.616C274.168 117.008 272.84 116.128 271.72 114.976C270.6 113.792 269.72 112.352 269.08 110.656C268.472 108.96 268.168 107.024 268.168 104.848C268.168 101.936 268.68 99.488 269.704 97.504C270.728 95.488 272.2 93.952 274.12 92.896C276.04 91.84 278.312 91.312 280.936 91.312C283.4 91.312 285.576 91.84 287.464 92.896C289.352 93.952 290.84 95.488 291.928 97.504C293.016 99.488 293.56 101.936 293.56 104.848ZM275.464 104.848C275.464 106.576 275.64 108.032 275.992 109.216C276.376 110.368 276.968 111.248 277.768 111.856C278.568 112.432 279.608 112.72 280.888 112.72C282.168 112.72 283.192 112.432 283.96 111.856C284.76 111.248 285.336 110.368 285.688 109.216C286.072 108.032 286.264 106.576 286.264 104.848C286.264 103.12 286.072 101.68 285.688 100.528C285.336 99.376 284.76 98.512 283.96 97.936C283.16 97.36 282.12 97.072 280.84 97.072C278.952 97.072 277.576 97.728 276.712 99.04C275.88 100.32 275.464 102.256 275.464 104.848ZM314.351 91.312C317.167 91.312 319.423 92.08 321.119 93.616C322.815 95.12 323.663 97.552 323.663 100.912V118H316.511V102.688C316.511 100.8 316.175 99.392 315.503 98.464C314.831 97.504 313.759 97.024 312.287 97.024C310.111 97.024 308.623 97.776 307.823 99.28C307.023 100.752 306.623 102.88 306.623 105.664V118H299.471V91.792H304.943L305.903 95.152H306.287C306.863 94.256 307.567 93.536 308.399 92.992C309.231 92.416 310.159 92 311.183 91.744C312.207 91.456 313.263 91.312 314.351 91.312ZM349.305 110.224C349.305 111.984 348.889 113.488 348.057 114.736C347.225 115.952 345.977 116.88 344.313 117.52C342.649 118.16 340.585 118.48 338.121 118.48C336.297 118.48 334.729 118.352 333.417 118.096C332.105 117.872 330.793 117.488 329.481 116.944V111.04C330.889 111.68 332.409 112.208 334.041 112.624C335.673 113.04 337.113 113.248 338.361 113.248C339.769 113.248 340.761 113.04 341.337 112.624C341.945 112.208 342.249 111.664 342.249 110.992C342.249 110.544 342.121 110.144 341.865 109.792C341.641 109.44 341.129 109.04 340.329 108.592C339.529 108.144 338.281 107.568 336.585 106.864C334.953 106.16 333.609 105.472 332.553 104.8C331.497 104.096 330.713 103.264 330.201 102.304C329.689 101.312 329.433 100.08 329.433 98.608C329.433 96.176 330.377 94.352 332.265 93.136C334.153 91.92 336.665 91.312 339.801 91.312C341.433 91.312 342.985 91.472 344.457 91.792C345.929 92.112 347.449 92.64 349.017 93.376L346.857 98.512C345.993 98.128 345.161 97.792 344.361 97.504C343.561 97.216 342.777 96.992 342.009 96.832C341.273 96.672 340.505 96.592 339.705 96.592C338.649 96.592 337.849 96.736 337.305 97.024C336.793 97.312 336.537 97.744 336.537 98.32C336.537 98.736 336.665 99.12 336.921 99.472C337.209 99.792 337.737 100.144 338.505 100.528C339.305 100.912 340.473 101.424 342.009 102.064C343.513 102.672 344.809 103.312 345.897 103.984C346.985 104.624 347.817 105.44 348.393 106.432C349.001 107.392 349.305 108.656 349.305 110.224ZM378.925 91.792V118H373.453L372.493 114.64H372.109C371.565 115.536 370.861 116.272 369.997 116.848C369.165 117.392 368.237 117.792 367.213 118.048C366.189 118.336 365.133 118.48 364.045 118.48C362.189 118.48 360.557 118.144 359.149 117.472C357.741 116.8 356.653 115.76 355.885 114.352C355.117 112.944 354.733 111.12 354.733 108.88V91.792H361.885V107.104C361.885 108.96 362.221 110.368 362.893 111.328C363.565 112.288 364.637 112.768 366.109 112.768C367.581 112.768 368.717 112.432 369.517 111.76C370.349 111.088 370.925 110.112 371.245 108.832C371.597 107.552 371.773 105.984 371.773 104.128V91.792H378.925ZM393.576 118H386.424V81.52H393.576V118ZM412.089 112.768C412.889 112.768 413.657 112.688 414.393 112.528C415.129 112.368 415.865 112.176 416.601 111.952V117.28C415.833 117.6 414.873 117.872 413.721 118.096C412.601 118.352 411.369 118.48 410.025 118.48C408.457 118.48 407.049 118.224 405.801 117.712C404.585 117.2 403.609 116.32 402.873 115.072C402.169 113.792 401.817 112.032 401.817 109.792V97.168H398.409V94.144L402.345 91.744L404.409 86.224H408.969V91.792H416.313V97.168H408.969V109.792C408.969 110.784 409.257 111.536 409.833 112.048C410.409 112.528 411.161 112.768 412.089 112.768ZM432.613 91.264C436.133 91.264 438.821 92.032 440.677 93.568C442.565 95.072 443.509 97.392 443.509 100.528V118H438.517L437.125 114.448H436.933C436.197 115.376 435.429 116.144 434.629 116.752C433.861 117.36 432.965 117.792 431.941 118.048C430.949 118.336 429.717 118.48 428.245 118.48C426.709 118.48 425.317 118.192 424.069 117.616C422.853 117.008 421.893 116.096 421.189 114.88C420.485 113.632 420.133 112.064 420.133 110.176C420.133 107.392 421.109 105.344 423.061 104.032C425.013 102.688 427.941 101.952 431.845 101.824L436.405 101.68V100.528C436.405 99.152 436.037 98.144 435.301 97.504C434.597 96.864 433.605 96.544 432.325 96.544C431.045 96.544 429.797 96.736 428.581 97.12C427.365 97.472 426.149 97.92 424.933 98.464L422.581 93.616C423.989 92.88 425.541 92.304 427.237 91.888C428.965 91.472 430.757 91.264 432.613 91.264ZM433.621 105.952C431.317 106.016 429.717 106.432 428.821 107.2C427.925 107.968 427.477 108.976 427.477 110.224C427.477 111.312 427.797 112.096 428.437 112.576C429.077 113.024 429.909 113.248 430.933 113.248C432.469 113.248 433.765 112.8 434.821 111.904C435.877 110.976 436.405 109.68 436.405 108.016V105.856L433.621 105.952ZM469.118 110.224C469.118 111.984 468.702 113.488 467.87 114.736C467.038 115.952 465.79 116.88 464.126 117.52C462.462 118.16 460.398 118.48 457.934 118.48C456.11 118.48 454.542 118.352 453.23 118.096C451.918 117.872 450.606 117.488 449.294 116.944V111.04C450.702 111.68 452.222 112.208 453.854 112.624C455.486 113.04 456.926 113.248 458.174 113.248C459.582 113.248 460.574 113.04 461.15 112.624C461.758 112.208 462.062 111.664 462.062 110.992C462.062 110.544 461.934 110.144 461.678 109.792C461.454 109.44 460.942 109.04 460.142 108.592C459.342 108.144 458.094 107.568 456.398 106.864C454.766 106.16 453.422 105.472 452.366 104.8C451.31 104.096 450.526 103.264 450.014 102.304C449.502 101.312 449.246 100.08 449.246 98.608C449.246 96.176 450.19 94.352 452.078 93.136C453.966 91.92 456.478 91.312 459.614 91.312C461.246 91.312 462.798 91.472 464.27 91.792C465.742 92.112 467.262 92.64 468.83 93.376L466.67 98.512C465.806 98.128 464.974 97.792 464.174 97.504C463.374 97.216 462.59 96.992 461.822 96.832C461.086 96.672 460.318 96.592 459.518 96.592C458.462 96.592 457.662 96.736 457.118 97.024C456.606 97.312 456.35 97.744 456.35 98.32C456.35 98.736 456.478 99.12 456.734 99.472C457.022 99.792 457.55 100.144 458.318 100.528C459.118 100.912 460.286 101.424 461.822 102.064C463.326 102.672 464.622 103.312 465.71 103.984C466.798 104.624 467.63 105.44 468.206 106.432C468.814 107.392 469.118 108.656 469.118 110.224Z" fill="white"/>
</svg>
