<svg width="1154" height="135" viewBox="0 0 1154 135" fill="none" xmlns="http://www.w3.org/2000/svg">
<rect x="360" y="3" width="321" height="90" fill="#49CCCC"/>
<rect x="739" y="3" width="269" height="90" fill="#49CCCC"/>
<path d="M199.984 68H185.904L167.472 34.528H167.216C167.258 35.424 167.301 36.4053 167.344 37.472C167.429 38.496 167.493 39.5627 167.536 40.672C167.578 41.7387 167.621 42.8053 167.664 43.872C167.706 44.896 167.749 45.8987 167.792 46.88V68H158.064V22.304H172.08L190.448 55.392H190.64C190.597 54.496 190.554 53.5573 190.512 52.576C190.469 51.552 190.426 50.528 190.384 49.504C190.341 48.4373 190.298 47.4133 190.256 46.432C190.256 45.408 190.234 44.4267 190.192 43.488V22.304H199.984V68ZM242.687 50.336C242.687 53.28 242.282 55.8827 241.471 58.144C240.703 60.4053 239.551 62.3253 238.015 63.904C236.522 65.4827 234.708 66.6773 232.575 67.488C230.484 68.256 228.074 68.64 225.343 68.64C222.868 68.64 220.564 68.256 218.431 67.488C216.34 66.6773 214.527 65.504 212.991 63.968C211.498 62.3893 210.324 60.4693 209.471 58.208C208.618 55.904 208.191 53.28 208.191 50.336C208.191 46.4533 208.874 43.168 210.239 40.48C211.647 37.792 213.652 35.744 216.255 34.336C218.858 32.928 221.951 32.224 225.535 32.224C228.906 32.224 231.871 32.928 234.431 34.336C236.991 35.744 238.996 37.792 240.447 40.48C241.94 43.168 242.687 46.4533 242.687 50.336ZM219.135 50.336C219.135 52.512 219.348 54.3467 219.775 55.84C220.202 57.3333 220.884 58.464 221.823 59.232C222.762 59.9573 223.978 60.32 225.471 60.32C227.007 60.32 228.223 59.9573 229.119 59.232C230.015 58.464 230.676 57.3333 231.103 55.84C231.53 54.3467 231.743 52.512 231.743 50.336C231.743 48.16 231.53 46.3467 231.103 44.896C230.676 43.4453 229.994 42.3573 229.055 41.632C228.159 40.9067 226.943 40.544 225.407 40.544C223.231 40.544 221.631 41.376 220.607 43.04C219.626 44.6613 219.135 47.0933 219.135 50.336ZM275.388 57.376C275.388 59.68 274.855 61.6853 273.788 63.392C272.764 65.056 271.143 66.3573 268.924 67.296C266.705 68.192 263.889 68.64 260.476 68.64C258.001 68.64 255.825 68.4907 253.948 68.192C252.113 67.8933 250.257 67.36 248.38 66.592V57.888C250.428 58.784 252.561 59.488 254.78 60C257.041 60.512 258.919 60.768 260.412 60.768C262.033 60.768 263.207 60.5547 263.932 60.128C264.657 59.7013 265.02 59.104 265.02 58.336C265.02 57.7813 264.828 57.2907 264.444 56.864C264.103 56.4373 263.377 55.9467 262.268 55.392C261.201 54.8373 259.601 54.1333 257.468 53.28C255.377 52.384 253.649 51.4667 252.284 50.528C250.961 49.5893 249.959 48.4587 249.276 47.136C248.636 45.8133 248.316 44.192 248.316 42.272C248.316 38.944 249.596 36.448 252.156 34.784C254.759 33.0773 258.193 32.224 262.46 32.224C264.721 32.224 266.855 32.4587 268.86 32.928C270.865 33.3973 272.935 34.1227 275.068 35.104L271.996 42.4C270.844 41.888 269.692 41.44 268.54 41.056C267.431 40.672 266.364 40.3733 265.34 40.16C264.316 39.9467 263.356 39.84 262.46 39.84C261.265 39.84 260.348 40.0107 259.708 40.352C259.068 40.6507 258.748 41.12 258.748 41.76C258.748 42.2293 258.919 42.6773 259.26 43.104C259.644 43.488 260.348 43.9147 261.372 44.384C262.439 44.8533 263.975 45.5147 265.98 46.368C267.985 47.1787 269.692 48.032 271.1 48.928C272.508 49.824 273.575 50.9333 274.3 52.256C275.025 53.5787 275.388 55.2853 275.388 57.376ZM307.763 57.376C307.763 59.68 307.23 61.6853 306.163 63.392C305.139 65.056 303.518 66.3573 301.299 67.296C299.08 68.192 296.264 68.64 292.851 68.64C290.376 68.64 288.2 68.4907 286.323 68.192C284.488 67.8933 282.632 67.36 280.755 66.592V57.888C282.803 58.784 284.936 59.488 287.155 60C289.416 60.512 291.294 60.768 292.787 60.768C294.408 60.768 295.582 60.5547 296.307 60.128C297.032 59.7013 297.395 59.104 297.395 58.336C297.395 57.7813 297.203 57.2907 296.819 56.864C296.478 56.4373 295.752 55.9467 294.643 55.392C293.576 54.8373 291.976 54.1333 289.843 53.28C287.752 52.384 286.024 51.4667 284.659 50.528C283.336 49.5893 282.334 48.4587 281.651 47.136C281.011 45.8133 280.691 44.192 280.691 42.272C280.691 38.944 281.971 36.448 284.531 34.784C287.134 33.0773 290.568 32.224 294.835 32.224C297.096 32.224 299.23 32.4587 301.235 32.928C303.24 33.3973 305.31 34.1227 307.443 35.104L304.371 42.4C303.219 41.888 302.067 41.44 300.915 41.056C299.806 40.672 298.739 40.3733 297.715 40.16C296.691 39.9467 295.731 39.84 294.835 39.84C293.64 39.84 292.723 40.0107 292.083 40.352C291.443 40.6507 291.123 41.12 291.123 41.76C291.123 42.2293 291.294 42.6773 291.635 43.104C292.019 43.488 292.723 43.9147 293.747 44.384C294.814 44.8533 296.35 45.5147 298.355 46.368C300.36 47.1787 302.067 48.032 303.475 48.928C304.883 49.824 305.95 50.9333 306.675 52.256C307.4 53.5787 307.763 55.2853 307.763 57.376ZM347.562 50.336C347.562 53.28 347.157 55.8827 346.346 58.144C345.578 60.4053 344.426 62.3253 342.89 63.904C341.397 65.4827 339.583 66.6773 337.45 67.488C335.359 68.256 332.949 68.64 330.218 68.64C327.743 68.64 325.439 68.256 323.306 67.488C321.215 66.6773 319.402 65.504 317.866 63.968C316.373 62.3893 315.199 60.4693 314.346 58.208C313.493 55.904 313.066 53.28 313.066 50.336C313.066 46.4533 313.749 43.168 315.114 40.48C316.522 37.792 318.527 35.744 321.13 34.336C323.733 32.928 326.826 32.224 330.41 32.224C333.781 32.224 336.746 32.928 339.306 34.336C341.866 35.744 343.871 37.792 345.322 40.48C346.815 43.168 347.562 46.4533 347.562 50.336ZM324.01 50.336C324.01 52.512 324.223 54.3467 324.65 55.84C325.077 57.3333 325.759 58.464 326.698 59.232C327.637 59.9573 328.853 60.32 330.346 60.32C331.882 60.32 333.098 59.9573 333.994 59.232C334.89 58.464 335.551 57.3333 335.978 55.84C336.405 54.3467 336.618 52.512 336.618 50.336C336.618 48.16 336.405 46.3467 335.978 44.896C335.551 43.4453 334.869 42.3573 333.93 41.632C333.034 40.9067 331.818 40.544 330.282 40.544C328.106 40.544 326.506 41.376 325.482 43.04C324.501 44.6613 324.01 47.0933 324.01 50.336ZM714.151 32.224C717.479 32.224 720.338 32.8427 722.727 34.08C725.159 35.2747 727.015 37.0667 728.295 39.456C729.618 41.8027 730.279 44.7253 730.279 48.224V53.216H708.071C708.156 55.52 708.903 57.3547 710.311 58.72C711.719 60.0853 713.724 60.768 716.327 60.768C718.588 60.768 720.636 60.5547 722.471 60.128C724.306 59.7013 726.204 59.0187 728.167 58.08V66.08C726.46 66.976 724.626 67.616 722.663 68C720.7 68.4267 718.29 68.64 715.431 68.64C711.89 68.64 708.732 68 705.959 66.72C703.228 65.44 701.074 63.4773 699.495 60.832C697.959 58.144 697.191 54.752 697.191 50.656C697.191 46.4747 697.895 43.04 699.303 40.352C700.711 37.6213 702.695 35.5947 705.255 34.272C707.815 32.9067 710.78 32.224 714.151 32.224ZM714.343 39.712C712.679 39.712 711.292 40.2453 710.183 41.312C709.116 42.336 708.476 43.9787 708.263 46.24H720.359C720.359 45.0027 720.124 43.8933 719.655 42.912C719.228 41.9307 718.567 41.1627 717.671 40.608C716.775 40.0107 715.666 39.712 714.343 39.712Z" fill="black"/>
<path d="M387.544 22.304C393.389 22.304 397.699 23.584 400.472 26.144C403.288 28.6613 404.696 32.1813 404.696 36.704C404.696 38.752 404.397 40.7147 403.8 42.592C403.203 44.4267 402.2 46.0693 400.792 47.52C399.427 48.9707 397.613 50.1227 395.352 50.976C393.133 51.8293 390.381 52.256 387.096 52.256H383.256V68H372.376V22.304H387.544ZM387.16 31.2H383.256V43.36H386.136C387.629 43.36 388.931 43.1467 390.04 42.72C391.192 42.2933 392.088 41.6107 392.728 40.672C393.368 39.7333 393.688 38.5173 393.688 37.024C393.688 35.1467 393.155 33.7173 392.088 32.736C391.021 31.712 389.379 31.2 387.16 31.2ZM432.337 32.224C432.891 32.224 433.51 32.2667 434.193 32.352C434.875 32.3947 435.409 32.4587 435.793 32.544L434.897 42.656C434.513 42.5707 434.022 42.5067 433.425 42.464C432.827 42.3787 432.166 42.336 431.441 42.336C430.417 42.336 429.393 42.464 428.369 42.72C427.345 42.9333 426.406 43.3387 425.553 43.936C424.699 44.4907 424.017 45.3013 423.505 46.368C422.993 47.392 422.737 48.736 422.737 50.4V68H411.921V32.864H420.049L421.713 38.624H422.161C422.843 37.4293 423.697 36.3627 424.721 35.424C425.745 34.4427 426.897 33.6747 428.177 33.12C429.499 32.5227 430.886 32.224 432.337 32.224ZM472.875 50.336C472.875 53.28 472.469 55.8827 471.659 58.144C470.891 60.4053 469.739 62.3253 468.203 63.904C466.709 65.4827 464.896 66.6773 462.763 67.488C460.672 68.256 458.261 68.64 455.531 68.64C453.056 68.64 450.752 68.256 448.619 67.488C446.528 66.6773 444.715 65.504 443.179 63.968C441.685 62.3893 440.512 60.4693 439.659 58.208C438.805 55.904 438.379 53.28 438.379 50.336C438.379 46.4533 439.061 43.168 440.427 40.48C441.835 37.792 443.84 35.744 446.443 34.336C449.045 32.928 452.139 32.224 455.723 32.224C459.093 32.224 462.059 32.928 464.619 34.336C467.179 35.744 469.184 37.792 470.635 40.48C472.128 43.168 472.875 46.4533 472.875 50.336ZM449.323 50.336C449.323 52.512 449.536 54.3467 449.963 55.84C450.389 57.3333 451.072 58.464 452.01 59.232C452.949 59.9573 454.165 60.32 455.659 60.32C457.195 60.32 458.411 59.9573 459.307 59.232C460.203 58.464 460.864 57.3333 461.291 55.84C461.717 54.3467 461.931 52.512 461.931 50.336C461.931 48.16 461.717 46.3467 461.291 44.896C460.864 43.4453 460.181 42.3573 459.243 41.632C458.347 40.9067 457.131 40.544 455.595 40.544C453.419 40.544 451.819 41.376 450.795 43.04C449.813 44.6613 449.323 47.0933 449.323 50.336ZM491.112 30.56C491.112 31.84 491.069 33.0987 490.984 34.336C490.898 35.5307 490.792 36.5547 490.664 37.408H491.112C492.008 35.9573 493.224 34.7413 494.76 33.76C496.338 32.736 498.344 32.224 500.776 32.224C504.573 32.224 507.666 33.76 510.056 36.832C512.488 39.904 513.704 44.4053 513.704 50.336C513.704 54.3467 513.128 57.7173 511.976 60.448C510.866 63.1787 509.33 65.2267 507.368 66.592C505.405 67.9573 503.101 68.64 500.456 68.64C497.938 68.64 495.976 68.192 494.568 67.296C493.16 66.4 492.008 65.4187 491.112 64.352H490.408L488.68 68H480.296V19.36H491.112V30.56ZM497.064 40.736C495.656 40.736 494.504 41.056 493.608 41.696C492.754 42.2933 492.114 43.2107 491.688 44.448C491.304 45.6853 491.112 47.264 491.112 49.184V50.528C491.112 53.6 491.538 55.9467 492.392 57.568C493.288 59.1467 494.888 59.936 497.192 59.936C498.898 59.936 500.242 59.104 501.224 57.44C502.205 55.776 502.696 53.3653 502.696 50.208C502.696 47.0933 502.205 44.7467 501.224 43.168C500.242 41.5467 498.856 40.736 497.064 40.736ZM531.924 68H521.108V19.36H531.924V68ZM556.339 32.224C559.667 32.224 562.525 32.8427 564.915 34.08C567.347 35.2747 569.203 37.0667 570.483 39.456C571.805 41.8027 572.467 44.7253 572.467 48.224V53.216H550.259C550.344 55.52 551.091 57.3547 552.499 58.72C553.907 60.0853 555.912 60.768 558.515 60.768C560.776 60.768 562.824 60.5547 564.659 60.128C566.493 59.7013 568.392 59.0187 570.354 58.08V66.08C568.648 66.976 566.813 67.616 564.851 68C562.888 68.4267 560.477 68.64 557.619 68.64C554.077 68.64 550.92 68 548.147 66.72C545.416 65.44 543.261 63.4773 541.683 60.832C540.147 58.144 539.379 54.752 539.379 50.656C539.379 46.4747 540.083 43.04 541.491 40.352C542.899 37.6213 544.883 35.5947 547.443 34.272C550.003 32.9067 552.968 32.224 556.339 32.224ZM556.531 39.712C554.867 39.712 553.48 40.2453 552.371 41.312C551.304 42.336 550.664 43.9787 550.451 46.24H562.547C562.547 45.0027 562.312 43.8933 561.843 42.912C561.416 41.9307 560.755 41.1627 559.859 40.608C558.963 40.0107 557.853 39.712 556.531 39.712ZM621.781 32.224C625.792 32.224 628.821 33.248 630.869 35.296C632.96 37.3013 634.005 40.5653 634.005 45.088V68H623.253V48.096C623.253 45.536 622.848 43.68 622.037 42.528C621.269 41.3333 620.074 40.736 618.453 40.736C616.192 40.736 614.592 41.632 613.653 43.424C612.714 45.1733 612.245 47.6907 612.245 50.976V68H601.493V48.096C601.493 46.432 601.322 45.0667 600.981 44C600.64 42.8907 600.128 42.08 599.445 41.568C598.762 41.0133 597.866 40.736 596.757 40.736C595.178 40.736 593.92 41.184 592.981 42.08C592.085 42.9333 591.445 44.192 591.061 45.856C590.72 47.52 590.549 49.568 590.549 52V68H579.733V32.864H587.925L589.461 37.28H589.909C590.592 36.1707 591.445 35.2533 592.469 34.528C593.493 33.76 594.666 33.184 595.989 32.8C597.312 32.416 598.741 32.224 600.277 32.224C602.837 32.224 604.992 32.6507 606.741 33.504C608.49 34.3573 609.856 35.5947 610.837 37.216H611.477C612.586 35.552 614.058 34.3147 615.893 33.504C617.728 32.6507 619.69 32.224 621.781 32.224ZM658.852 32.16C663.417 32.16 666.959 33.2267 669.476 35.36C671.993 37.4507 673.252 40.5653 673.252 44.704V68H665.764L663.652 63.264H663.396C662.415 64.5013 661.391 65.5253 660.324 66.336C659.3 67.1467 658.105 67.7227 656.74 68.064C655.417 68.448 653.775 68.64 651.812 68.64C649.764 68.64 647.908 68.2347 646.244 67.424C644.623 66.6133 643.343 65.376 642.404 63.712C641.465 62.048 640.996 59.936 640.996 57.376C640.996 53.6213 642.297 50.848 644.9 49.056C647.545 47.264 651.407 46.2613 656.484 46.048L662.5 45.856V44.832C662.5 43.1253 662.052 41.888 661.156 41.12C660.303 40.352 659.108 39.968 657.572 39.968C656.036 39.968 654.436 40.224 652.772 40.736C651.108 41.2053 649.423 41.8027 647.716 42.528L644.452 35.36C646.372 34.336 648.548 33.5467 650.98 32.992C653.412 32.4373 656.036 32.16 658.852 32.16ZM659.236 52.128C656.548 52.2133 654.671 52.704 653.604 53.6C652.537 54.4533 652.004 55.6267 652.004 57.12C652.004 58.4427 652.388 59.4027 653.156 60C653.924 60.5973 654.905 60.896 656.1 60.896C657.892 60.896 659.407 60.3627 660.644 59.296C661.881 58.1867 662.5 56.6933 662.5 54.816V52L659.236 52.128ZM783.227 54.752C783.227 57.3547 782.587 59.7227 781.307 61.856C780.027 63.9467 778.107 65.6107 775.547 66.848C772.987 68.0427 769.765 68.64 765.883 68.64C764.091 68.64 762.427 68.5333 760.891 68.32C759.355 68.1067 757.883 67.808 756.475 67.424C755.109 66.9973 753.765 66.464 752.443 65.824V55.904C754.747 56.9707 757.093 57.8667 759.483 58.592C761.915 59.3173 764.24 59.68 766.458 59.68C767.867 59.68 768.997 59.5093 769.851 59.168C770.747 58.784 771.387 58.2933 771.771 57.696C772.197 57.056 772.411 56.3307 772.411 55.52C772.411 54.5387 772.069 53.7067 771.387 53.024C770.747 52.2987 769.787 51.616 768.507 50.976C767.227 50.2933 765.669 49.5253 763.835 48.672C762.469 48.0747 761.125 47.392 759.803 46.624C758.523 45.8133 757.349 44.896 756.283 43.872C755.259 42.8053 754.427 41.5467 753.786 40.096C753.189 38.6027 752.891 36.8533 752.891 34.848C752.891 31.9893 753.552 29.6 754.875 27.68C756.24 25.7173 758.139 24.224 760.571 23.2C763.003 22.176 765.861 21.664 769.147 21.664C771.835 21.664 774.309 21.9627 776.571 22.56C778.832 23.1573 781.029 23.9253 783.163 24.864L779.707 33.376C777.659 32.48 775.739 31.7973 773.947 31.328C772.197 30.816 770.491 30.56 768.827 30.56C767.675 30.56 766.715 30.7307 765.947 31.072C765.179 31.3707 764.603 31.8187 764.219 32.416C763.835 32.9707 763.643 33.632 763.643 34.4C763.643 35.296 763.941 36.0853 764.539 36.768C765.136 37.408 766.075 38.0693 767.355 38.752C768.635 39.4347 770.32 40.2667 772.411 41.248C774.672 42.272 776.613 43.3813 778.235 44.576C779.856 45.7707 781.093 47.1787 781.947 48.8C782.8 50.3787 783.227 52.3627 783.227 54.752ZM822.937 50.336C822.937 53.28 822.532 55.8827 821.721 58.144C820.953 60.4053 819.801 62.3253 818.265 63.904C816.772 65.4827 814.958 66.6773 812.825 67.488C810.734 68.256 808.324 68.64 805.593 68.64C803.118 68.64 800.814 68.256 798.681 67.488C796.59 66.6773 794.777 65.504 793.241 63.968C791.748 62.3893 790.574 60.4693 789.721 58.208C788.868 55.904 788.441 53.28 788.441 50.336C788.441 46.4533 789.124 43.168 790.489 40.48C791.897 37.792 793.902 35.744 796.505 34.336C799.108 32.928 802.201 32.224 805.785 32.224C809.156 32.224 812.121 32.928 814.681 34.336C817.241 35.744 819.246 37.792 820.697 40.48C822.19 43.168 822.937 46.4533 822.937 50.336ZM799.385 50.336C799.385 52.512 799.598 54.3467 800.025 55.84C800.452 57.3333 801.134 58.464 802.073 59.232C803.012 59.9573 804.228 60.32 805.721 60.32C807.257 60.32 808.473 59.9573 809.369 59.232C810.265 58.464 810.926 57.3333 811.353 55.84C811.78 54.3467 811.993 52.512 811.993 50.336C811.993 48.16 811.78 46.3467 811.353 44.896C810.926 43.4453 810.244 42.3573 809.305 41.632C808.409 40.9067 807.193 40.544 805.657 40.544C803.481 40.544 801.881 41.376 800.857 43.04C799.876 44.6613 799.385 47.0933 799.385 50.336ZM841.174 68H830.358V19.36H841.174V68ZM883.637 32.864V68H875.445L874.037 63.52H873.397C872.671 64.7147 871.733 65.696 870.581 66.464C869.471 67.1893 868.234 67.7227 866.869 68.064C865.546 68.448 864.159 68.64 862.708 68.64C860.319 68.64 858.186 68.192 856.309 67.296C854.431 66.4 852.959 65.0133 851.893 63.136C850.826 61.216 850.293 58.7627 850.293 55.776V32.864H861.109V52.768C861.109 55.1573 861.493 56.9707 862.26 58.208C863.071 59.4453 864.351 60.064 866.101 60.064C867.85 60.064 869.215 59.6373 870.197 58.784C871.178 57.9307 871.861 56.672 872.245 55.008C872.629 53.3013 872.821 51.2533 872.821 48.864V32.864H883.637ZM907.962 68.64C904.463 68.64 901.434 68.0213 898.874 66.784C896.357 65.504 894.415 63.5413 893.05 60.896C891.727 58.208 891.066 54.7733 891.066 50.592C891.066 46.3253 891.813 42.848 893.306 40.16C894.842 37.4293 896.954 35.424 899.642 34.144C902.33 32.864 905.402 32.224 908.858 32.224C911.162 32.224 913.231 32.4587 915.066 32.928C916.943 33.3973 918.607 33.9947 920.058 34.72L916.922 42.848C915.429 42.2507 914.042 41.76 912.762 41.376C911.482 40.992 910.181 40.8 908.858 40.8C907.407 40.8 906.17 41.1627 905.146 41.888C904.122 42.5707 903.333 43.6373 902.778 45.088C902.266 46.5387 902.01 48.352 902.01 50.528C902.01 52.704 902.287 54.496 902.842 55.904C903.397 57.2693 904.186 58.2933 905.21 58.976C906.234 59.6587 907.471 60 908.922 60C910.799 60 912.549 59.7227 914.17 59.168C915.834 58.6133 917.413 57.8667 918.906 56.928V65.76C917.455 66.6987 915.877 67.424 914.17 67.936C912.463 68.4053 910.394 68.64 907.962 68.64ZM915.002 75.808C915.002 77.3867 914.661 78.7307 913.978 79.84C913.338 80.992 912.335 81.8667 910.97 82.464C909.647 83.0613 907.941 83.36 905.85 83.36C904.655 83.36 903.567 83.2747 902.586 83.104C901.647 82.9333 900.837 82.7413 900.154 82.528V76.896C900.837 77.1093 901.562 77.28 902.33 77.408C903.141 77.536 903.866 77.6 904.506 77.6C905.189 77.6 905.743 77.4507 906.17 77.152C906.639 76.8533 906.874 76.384 906.874 75.744C906.874 74.976 906.511 74.336 905.786 73.824C905.061 73.312 903.802 72.9067 902.01 72.608L904.186 68H910.266L909.562 69.92C910.415 70.1333 911.247 70.4747 912.058 70.944C912.911 71.456 913.615 72.096 914.17 72.864C914.725 73.632 915.002 74.6133 915.002 75.808ZM942.29 32.16C946.855 32.16 950.396 33.2267 952.914 35.36C955.431 37.4507 956.69 40.5653 956.69 44.704V68H949.202L947.09 63.264H946.834C945.852 64.5013 944.828 65.5253 943.762 66.336C942.738 67.1467 941.543 67.7227 940.178 68.064C938.855 68.448 937.212 68.64 935.25 68.64C933.202 68.64 931.346 68.2347 929.682 67.424C928.06 66.6133 926.78 65.376 925.842 63.712C924.903 62.048 924.434 59.936 924.434 57.376C924.434 53.6213 925.735 50.848 928.338 49.056C930.983 47.264 934.844 46.2613 939.922 46.048L945.938 45.856V44.832C945.938 43.1253 945.49 41.888 944.594 41.12C943.74 40.352 942.546 39.968 941.01 39.968C939.474 39.968 937.874 40.224 936.21 40.736C934.546 41.2053 932.86 41.8027 931.154 42.528L927.89 35.36C929.81 34.336 931.986 33.5467 934.418 32.992C936.85 32.4373 939.474 32.16 942.29 32.16ZM942.674 52.128C939.986 52.2133 938.108 52.704 937.042 53.6C935.975 54.4533 935.442 55.6267 935.442 57.12C935.442 58.4427 935.826 59.4027 936.594 60C937.362 60.5973 938.343 60.896 939.538 60.896C941.33 60.896 942.844 60.3627 944.082 59.296C945.319 58.1867 945.938 56.6933 945.938 54.816V52L942.674 52.128ZM928.53 29.28C928.658 27.488 928.935 25.952 929.362 24.672C929.831 23.392 930.428 22.3467 931.154 21.536C931.879 20.7253 932.711 20.128 933.65 19.744C934.588 19.36 935.612 19.168 936.722 19.168C937.575 19.168 938.428 19.3387 939.282 19.68C940.135 19.9787 940.988 20.3413 941.842 20.768C942.695 21.1947 943.527 21.5573 944.338 21.856C945.148 22.1547 945.959 22.304 946.77 22.304C947.282 22.304 947.794 22.0693 948.306 21.6C948.86 21.1307 949.244 20.2987 949.458 19.104H954.642C954.386 22.6453 953.49 25.2267 951.954 26.848C950.418 28.4267 948.604 29.216 946.514 29.216C945.618 29.216 944.722 29.0667 943.826 28.768C942.972 28.4693 942.119 28.1067 941.266 27.68C940.412 27.2533 939.559 26.8907 938.706 26.592C937.895 26.2507 937.106 26.08 936.338 26.08C935.826 26.08 935.314 26.3147 934.802 26.784C934.29 27.2533 933.906 28.0853 933.65 29.28H928.53ZM998.5 50.336C998.5 53.28 998.094 55.8827 997.284 58.144C996.516 60.4053 995.364 62.3253 993.828 63.904C992.334 65.4827 990.521 66.6773 988.388 67.488C986.297 68.256 983.886 68.64 981.156 68.64C978.681 68.64 976.377 68.256 974.244 67.488C972.153 66.6773 970.34 65.504 968.804 63.968C967.31 62.3893 966.137 60.4693 965.284 58.208C964.43 55.904 964.004 53.28 964.004 50.336C964.004 46.4533 964.686 43.168 966.052 40.48C967.46 37.792 969.465 35.744 972.068 34.336C974.67 32.928 977.764 32.224 981.348 32.224C984.718 32.224 987.684 32.928 990.244 34.336C992.804 35.744 994.809 37.792 996.26 40.48C997.753 43.168 998.5 46.4533 998.5 50.336ZM974.948 50.336C974.948 52.512 975.161 54.3467 975.588 55.84C976.014 57.3333 976.697 58.464 977.635 59.232C978.574 59.9573 979.79 60.32 981.284 60.32C982.82 60.32 984.036 59.9573 984.932 59.232C985.828 58.464 986.489 57.3333 986.916 55.84C987.342 54.3467 987.556 52.512 987.556 50.336C987.556 48.16 987.342 46.3467 986.916 44.896C986.489 43.4453 985.806 42.3573 984.868 41.632C983.972 40.9067 982.756 40.544 981.22 40.544C979.044 40.544 977.444 41.376 976.42 43.04C975.438 44.6613 974.948 47.0933 974.948 50.336Z" fill="white"/>
<g opacity="0.3">
<circle cx="84" cy="42" r="5" fill="#00ADAD"/>
<circle cx="84" cy="64" r="5" fill="#00ADAD"/>
<circle cx="84" cy="86" r="5" fill="#00ADAD"/>
<circle cx="84" cy="108" r="5" fill="#00ADAD"/>
<circle cx="84" cy="130" r="5" fill="#00ADAD"/>
<circle cx="106" cy="42" r="5" fill="#00ADAD"/>
<circle cx="106" cy="64" r="5" fill="#00ADAD"/>
<circle cx="106" cy="86" r="5" fill="#00ADAD"/>
<circle cx="106" cy="108" r="5" fill="#00ADAD"/>
<circle cx="106" cy="130" r="5" fill="#00ADAD"/>
<circle cx="128" cy="42" r="5" fill="#00ADAD"/>
<circle cx="128" cy="64" r="5" fill="#00ADAD"/>
<circle cx="128" cy="86" r="5" fill="#00ADAD"/>
<circle cx="128" cy="108" r="5" fill="#00ADAD"/>
<circle cx="128" cy="130" r="5" fill="#00ADAD"/>
<circle cx="150" cy="42" r="5" fill="#00ADAD"/>
<circle cx="150" cy="64" r="5" fill="#00ADAD"/>
<circle cx="150" cy="86" r="5" fill="#00ADAD"/>
<circle cx="150" cy="108" r="5" fill="#00ADAD"/>
<circle cx="150" cy="130" r="5" fill="#00ADAD"/>
<circle cx="172" cy="42" r="5" fill="#00ADAD"/>
<circle cx="172" cy="64" r="5" fill="#00ADAD"/>
<circle cx="172" cy="86" r="5" fill="#00ADAD"/>
<circle cx="172" cy="108" r="5" fill="#00ADAD"/>
<circle cx="172" cy="130" r="5" fill="#00ADAD"/>
<circle cx="194" cy="42" r="5" fill="#00ADAD"/>
<circle cx="194" cy="64" r="5" fill="#00ADAD"/>
<circle cx="194" cy="86" r="5" fill="#00ADAD"/>
<circle cx="194" cy="108" r="5" fill="#00ADAD"/>
<circle cx="194" cy="130" r="5" fill="#00ADAD"/>
<circle cx="216" cy="42" r="5" fill="#00ADAD"/>
<circle cx="216" cy="64" r="5" fill="#00ADAD"/>
<circle cx="216" cy="86" r="5" fill="#00ADAD"/>
<circle cx="216" cy="108" r="5" fill="#00ADAD"/>
<circle cx="216" cy="130" r="5" fill="#00ADAD"/>
<circle cx="238" cy="42" r="5" fill="#00ADAD"/>
<circle cx="238" cy="64" r="5" fill="#00ADAD"/>
<circle cx="238" cy="86" r="5" fill="#00ADAD"/>
<circle cx="238" cy="108" r="5" fill="#00ADAD"/>
<circle cx="238" cy="130" r="5" fill="#00ADAD"/>
<circle cx="260" cy="42" r="5" fill="#00ADAD"/>
<circle cx="260" cy="64" r="5" fill="#00ADAD"/>
<circle cx="260" cy="86" r="5" fill="#00ADAD"/>
<circle cx="260" cy="108" r="5" fill="#00ADAD"/>
<circle cx="260" cy="130" r="5" fill="#00ADAD"/>
<circle cx="282" cy="42" r="5" fill="#00ADAD"/>
<circle cx="282" cy="64" r="5" fill="#00ADAD"/>
<circle cx="282" cy="86" r="5" fill="#00ADAD"/>
<circle cx="282" cy="108" r="5" fill="#00ADAD"/>
<circle cx="282" cy="130" r="5" fill="#00ADAD"/>
</g>
</svg>
